<svg id="amie_logo" data-name="amie logo" xmlns="http://www.w3.org/2000/svg" viewBox="0 0 24.26 23.21"><defs><style>.cls-1{fill:#231f20;}</style></defs><path class="cls-1" d="M12.44,3.41a1,1,0,0,1,1,1v5.82H19.3a1,1,0,0,1,1,1v.63a1,1,0,0,1-1,1H13.48v5.82a1,1,0,0,1-1,1h-.62a1,1,0,0,1-1-1V13H5a1,1,0,0,1-1-1v-.63a1,1,0,0,1,1-1h5.82V4.44a1,1,0,0,1,1-1h.62m0-2h-.62a3,3,0,0,0-3,3V8.26H5a3,3,0,0,0-3,3v.63a3,3,0,0,0,3,3H8.79v3.82a3,3,0,0,0,3,3h.62a3,3,0,0,0,3-3V15H19.3a3,3,0,0,0,3-3v-.63a3,3,0,0,0-3-3H15.48V4.44a3,3,0,0,0-3-3Z"/></svg>