<svg id="Layer_1" data-name="Layer 1" xmlns="http://www.w3.org/2000/svg" viewBox="0 0 500 500"><defs><style>.cls-1{fill:#fff;}</style></defs><rect class="cls-1" width="500" height="500"/><text/><path d="M205,89.3a2.06,2.06,0,0,0-.35-.42h0l-.08-.05a2,2,0,0,0-.39-.26,2.5,2.5,0,0,0-.25-.09,1.47,1.47,0,0,0-.3-.08,1.23,1.23,0,0,0-.27,0l-.2,0-.12,0-.24.05a2.55,2.55,0,0,0-.33.11l-.13,0-2.75,1.5L200.32,66a2,2,0,0,0-1.41-2l-19.29-6-.11,0-.19,0a1.15,1.15,0,0,0-.32,0h-.19l-.33.07-.17.05a2.82,2.82,0,0,0-.42.22l0,0L150.18,78.23a2,2,0,0,0-.82,1.44L147,104.59l-14.5-5h0a2.05,2.05,0,0,0-.55-.1h-.08a2,2,0,0,0-.53.08.32.32,0,0,0-.09,0l-.15,0-.34.19,0,0a1.69,1.69,0,0,0-.41.39l0,0h0a2.12,2.12,0,0,0-.28.51.14.14,0,0,0,0,.06,1.91,1.91,0,0,0-.1.53.28.28,0,0,0,0,.09,2.28,2.28,0,0,0,0,.45l4.73,21.84a2.13,2.13,0,0,0,.28.68l15.64,23.79.08,9.39h-.07c-1.32.12-2.55.2-3.7.26s-1.89.08-2.24.08a6,6,0,0,1-2.32.78,9.71,9.71,0,0,0-2.5.77,33.28,33.28,0,0,1-4.73.43,24.32,24.32,0,0,0-5.08.69,10.13,10.13,0,0,0-4.13,2.07,5.66,5.66,0,0,0-1.72,4.56,5.81,5.81,0,0,0,2.49,4.82,14.68,14.68,0,0,0,4.91,2.58c.23.35,1,.64,2.41.86a6.15,6.15,0,0,1,2.41.69,3.49,3.49,0,0,1,1,.69c.57.46,1.21.95,1.89,1.47s1.32,1,1.9,1.46.92.75,1,.86a8.72,8.72,0,0,0,2.41.77,20.92,20.92,0,0,1,2.76.78,7.84,7.84,0,0,1,1.55,1.38,10.1,10.1,0,0,1,1.72,2.06c.08.12.15.25.22.37l.57,65.84c-.17.4-.35.8-.53,1.19a12.21,12.21,0,0,1-3.53,4.39H118.1a22.91,22.91,0,0,0-2.75.6,16.09,16.09,0,0,1-3.27.6,16.61,16.61,0,0,1-2,.35c-.87.11-1.73.2-2.59.26s-2,.14-3.35.26c-.24.23-1.27.34-3.1.34-1.5,0-3.07-.06-4.74-.17s-2.72-.17-3.18-.17A6.18,6.18,0,0,1,91,261q-1.81.87-2.67,1.38c-.23,0-.58.4-1,1.21s-.81,1.2-1,1.2A19.94,19.94,0,0,1,83.67,266a19,19,0,0,0-2.58,1.2,2.42,2.42,0,0,1-.52.86c-.34.46-.75.95-1.2,1.46l-1.21,1.38c-.34.4-.52.66-.52.78a15.16,15.16,0,0,1-1.72,1.29,6,6,0,0,0-1.55,1.29,48,48,0,0,0-9.55,11.45c-1.21,2-2.41,4.13-3.62,6.37s-2.49,4.62-3.87,7.14a20.14,20.14,0,0,0-1.2,2.5A10.59,10.59,0,0,1,54.92,304a13.43,13.43,0,0,1-.77,1.21c-.41.57-.81,1.2-1.21,1.89s-.77,1.32-1.12,1.89a3.8,3.8,0,0,0-.51,1q0,.51-.18,2.49c-.11,1.32-.23,2.73-.34,4.22s-.26,2.9-.43,4.22a18.14,18.14,0,0,1-.43,2.49,13.69,13.69,0,0,1-.35,2.16c-.23,1.09-.46,2.29-.68,3.61s-.46,2.58-.69,3.79a17.05,17.05,0,0,0-.35,2.32v2.93a22.38,22.38,0,0,0,1,6.2q.94,3.27,2.06,6.62c.75,2.24,1.52,4.45,2.33,6.63a36.16,36.16,0,0,1,1.72,6.2v5a35.85,35.85,0,0,0,4.65,9.38,84.34,84.34,0,0,0,7.92,10.25,92.42,92.42,0,0,0,9.38,9.12,33.69,33.69,0,0,0,9.38,5.86q2.23.86,4.91,2c1.78.75,3.58,1.52,5.42,2.33a40.18,40.18,0,0,0,5.68,2,22.46,22.46,0,0,0,5.68.77,48.33,48.33,0,0,0,11.11-1.2,54.12,54.12,0,0,0,9.64-3.27,79.7,79.7,0,0,0,9.12-4.91q4.56-2.84,9.56-6.28a5.64,5.64,0,0,1,1.55-1,6.18,6.18,0,0,1,1.72-.17,5.89,5.89,0,0,1,2,.32l.12,13c0,5.26,11.07,7.65,21.36,7.65h3.47c9.34,0,17.21-1.88,20-4.74a4.16,4.16,0,0,0,1.35-3l-.07-8.35a37.57,37.57,0,0,0,5.26-3.56,36.26,36.26,0,0,0,6.19-6.11,7.22,7.22,0,0,0-2.23-3.27,8.56,8.56,0,0,0-3.19-1.46,20.21,20.21,0,0,0-3.87-.52,19.53,19.53,0,0,1-2.29-.24L196.67,137.8a2,2,0,0,0-2-2h0L210.51,100a2,2,0,0,0-.12-1.85ZM152,343.24c-.11.69-.17,1.09-.17,1.21,0,.68-.06,1.75-.17,3.18s-.26,2.93-.43,4.48-.32,3-.43,4.3-.17,2.21-.17,2.67v9.81a9.45,9.45,0,0,1-.86,1.38,19.65,19.65,0,0,1-1.55,1.89,13.6,13.6,0,0,0-.95,1.12c-.4.52-.86,1.09-1.38,1.72l-1.46,1.81c-.46.58-.8,1-1,1.38l-1.21,1.2q-3.62,2.25-8.52,4.82a20.37,20.37,0,0,1-9.55,2.59h-2.07c-.34-.23-1.18-.69-2.5-1.38a16.73,16.73,0,0,0-2.66-1.21c-.24,0-.92,0-2.07-.17s-2.41-.23-3.79-.34-2.64-.26-3.79-.43A18.08,18.08,0,0,0,105,383a7.74,7.74,0,0,1-2.16-1.21q-1.8-1.2-3.87-2.67t-3.87-2.75c-1.21-.86-1.87-1.35-2-1.46v-4a4.72,4.72,0,0,0-1.21-2.07A16.79,16.79,0,0,0,90,367.26L88,365.71a7.57,7.57,0,0,1-1.72-1.81,28.86,28.86,0,0,1-2.84-5.34c-.86-2.06-1.63-4.22-2.32-6.45a58.25,58.25,0,0,1-1.64-6.63,33.59,33.59,0,0,1-.6-6q0-2.93.17-6.54a19.06,19.06,0,0,1,1.21-6.2,2.05,2.05,0,0,1,.51-.77c.35-.4.72-.86,1.12-1.38s.78-1,1.12-1.55a2.4,2.4,0,0,0,.52-1.12,4.68,4.68,0,0,0,.77-1.63,4.82,4.82,0,0,1,.78-1.64c0-.34,0-1,.08-1.89s.15-2,.26-3.1.23-2.24.35-3.27a9.49,9.49,0,0,1,.51-2.41c0-.69.06-1.83.17-3.44s.2-3.3.26-5.08.15-3.47.26-5.08.17-2.75.17-3.44a38.85,38.85,0,0,1,3.19-5.77,26.48,26.48,0,0,1,4-4.91,3.57,3.57,0,0,0,1-.6,2.79,2.79,0,0,1,1.55-.6,58.1,58.1,0,0,0,5.33-2.5c1.61-.86,3.21-1.66,4.82-2.41a29.45,29.45,0,0,1,5.17-1.81,26,26,0,0,1,6.19-.68h1.21a13.61,13.61,0,0,0,1.46.51c.75.23,1.55.49,2.41.78s1.72.54,2.59.77,1.46.41,1.8.52c.58.23,1.72.6,3.45,1.12s3.53,1.09,5.42,1.72l5.42,1.81a32.07,32.07,0,0,1,3.62,1.37,17.8,17.8,0,0,1,2.92,2.93,14.9,14.9,0,0,1,1.72,2.93,26.3,26.3,0,0,1,1.21,3.27c0,.08.06.17.08.26l.46,52.43C152.14,342.45,152.08,342.86,152,343.24Z"/><path d="M454.68,395.69c-.2-.53-.41-1.05-.61-1.58-2.46-6.29-5-12.79-10.52-15.15a3.06,3.06,0,0,0-.63-.2c-.68-.12-1.37-.24-2.08-.34l.09-.2a3,3,0,0,0-.69-3.36,70.53,70.53,0,0,0-14.56-10.45c-5.16-2.6-12.25-3.33-24-4.53-3.05-.32-6.48-.67-10.28-1.1-3.25-7.06-7-15.36-10.65-23.77a5.88,5.88,0,0,1,1.38-1.43c.11-.58.22-1.1.33-1.53a6.3,6.3,0,0,1,.49-1.53,7.28,7.28,0,0,0,.5-1.64c.21-.95.46-1.94.73-3s.5-2,.66-2.84a11.8,11.8,0,0,1,.41-1.75,7.79,7.79,0,0,0,1.23-1.42l1.23-1.64a104.1,104.1,0,0,0,7.14-13.89,113.34,113.34,0,0,0,5.17-16.3V285c.21-.88.49-2.26.82-4.16s.65-3.83,1-5.8.66-3.79,1-5.47a16.4,16.4,0,0,1,.82-3.17,21.1,21.1,0,0,1,1-2.62,10.88,10.88,0,0,0,1-3.28c.77-2.34,1.59-5.47,2.46-9.41s1.7-7.36,2.47-10.28c.21-1.75.38-3.54.49-5.36a13.84,13.84,0,0,1,1.47-5.36c.33-.58.82-1.35,1.48-2.3s1.26-1.89,1.81-2.84,1.06-1.79,1.55-2.52a4.36,4.36,0,0,0,.74-1.31,14.7,14.7,0,0,0,1.23-1q.9-.76,1.89-1.53t1.8-1.32l1.15-.76a16,16,0,0,0,4.51-8.32q1.23-5.25,2.22-10.28v-.22a7.59,7.59,0,0,0-1.07-3.82,12.75,12.75,0,0,0-2.54-3.18,12.34,12.34,0,0,0-3.2-2.07,7.67,7.67,0,0,0-3-.77h-1.48a4.74,4.74,0,0,0-1.07.44c-.6.29-1.23.58-1.88.87s-1.54.73-2.63,1.32c-.22,0-1,0-2.38.11s-2.38.1-3,.1a54.06,54.06,0,0,1-9.6-.87,55.1,55.1,0,0,0-9.76-.88,29.17,29.17,0,0,0-6.81.77c-2.13.51-3.86,2.37-5.17,5.58v1.09a14.2,14.2,0,0,0,1.89,7.22,43.92,43.92,0,0,0,4.43,6.34c1.69,2.05,3.39,4.09,5.08,6.13a19.81,19.81,0,0,1,3.69,6.56,18.93,18.93,0,0,0-.32,4.16v12.9a17.18,17.18,0,0,0,.32,4.16,10.2,10.2,0,0,0,.58,2.19,10.41,10.41,0,0,1,.57,2.19v2.4a53.1,53.1,0,0,1-1,9.63,39.75,39.75,0,0,1-2.79,9.18,8.11,8.11,0,0,1-1,2.3,8.07,8.07,0,0,0-1,2.3A132.71,132.71,0,0,0,384.28,288a103.21,103.21,0,0,1-3.61,13.67,2.63,2.63,0,0,1-.33.88,16.18,16.18,0,0,1-.82,1.42,14.84,14.84,0,0,0-.82,1.42,2.69,2.69,0,0,0-.33.87,23.83,23.83,0,0,0-.66,6.46,10.68,10.68,0,0,1-1.31,5.58,12.32,12.32,0,0,1-1.73,2.38c-5.61-13.59-10.06-25.73-10.7-31.23-.68-5.82-.9-12.54-1.11-19-.41-12.59-.8-24.48-4.39-31.63-1.63-3.23-1.37-12.79-1.16-20.48.35-12.88.68-25.05-4.68-30.71s-20.23-10.25-33.7-10.25h-.23c-8.59,0-20.48,1.84-28.36,10.28-16.35,17.52-16,31.37-8.81,57.75,5.17,19,7.56,23.25,12.66,22.78,2.23-.2,4.95-1.94,5.31-6.19a5.12,5.12,0,0,0,0-.68c-.36-7-.4-15.15-.07-20.71a7,7,0,0,0,5,.73,24.5,24.5,0,0,0-.12,4.63,5,5,0,0,0,3.09,4.29,27,27,0,0,1,7.2,4.63c-.32.11-.64.23-1,.37-3.12,1.34-10.38,5.93-10.44,19.55a81,81,0,0,0,1.67,16.54c.84,4.5,1.14,6.43.15,8.91a.49.49,0,0,0,0,.1,13.84,13.84,0,0,1-3.79.45c-2.7.12-7,.3-10.31,2.89l-.15-.46a9.51,9.51,0,0,1-.74-2.95,20.46,20.46,0,0,0-.74-3.39,13.16,13.16,0,0,1-.74-2c-.38-1.17-.82-2.44-1.31-3.83s-1-2.66-1.39-3.83L285,285c-.22-.88-.58-2.08-1.07-3.61s-1-3.14-1.48-4.82-.93-3.17-1.31-4.48-.63-2.19-.74-2.63a17.08,17.08,0,0,0-.24-2c-.17-1-.3-2.12-.41-3.29s-.25-2.26-.41-3.28a15.57,15.57,0,0,1-.25-2q-1.14-5.69-2.46-10.28t-2.46-9.07c-.77-3-1.42-6.09-2-9.3a66.8,66.8,0,0,1-.82-11.16,33.44,33.44,0,0,1,1.15-9A34.64,34.64,0,0,0,273.7,201q0-8.1-5.91-10.5a32.59,32.59,0,0,1-3.53-.33q-2.53-.33-5.49-.88t-5.58-1a26.79,26.79,0,0,0-3.61-.44,5.57,5.57,0,0,1-1.48-.44c-.76-.29-1.58-.65-2.46-1.09a21.56,21.56,0,0,0-2.54-1.09,6.34,6.34,0,0,0-1.56-.44l-.82-.44a.62.62,0,0,0-.33.11.83.83,0,0,1-.49.11,1,1,0,0,1-.49.22,19.53,19.53,0,0,0-2.46.22c-1.1.14-2.27.29-3.53.43s-2.41.3-3.44.44a9.88,9.88,0,0,0-2.06.44,26.77,26.77,0,0,0-3.28.22,9.49,9.49,0,0,0-3.28,1,7.19,7.19,0,0,0-2.54,2.3,7.6,7.6,0,0,0-1.07,4.37c0,3.07.72,5.4,2.14,7a65,65,0,0,0,4.75,4.82,37.86,37.86,0,0,1,6.16,8.42,29.6,29.6,0,0,0,6.48,8.2l1,1.53a6.07,6.07,0,0,1,.49,1.32c.22.73.47,1.53.74,2.4s.49,1.68.66,2.41a10.23,10.23,0,0,1,.24,1.31,9,9,0,0,1,1.15,3.5q2.29,4.38,4.43,8.75a67.77,67.77,0,0,1,3.61,9q2.13,7,3.53,13.89t3.2,13.67a57.23,57.23,0,0,0,3.85,9.41,38.31,38.31,0,0,1,3.37,8.75c0,.29.05,1,.16,2.08s.22,2.22.33,3.39.22,2.26.33,3.28a9.73,9.73,0,0,0,.32,2,16.69,16.69,0,0,0,1,3.06,17.13,17.13,0,0,1,1,3.06q2.13,6.34,4.43,12.69A107.74,107.74,0,0,1,274.85,341c0,.29.08,1.06.24,2.29s.38,2.56.66,3.94.52,2.7.74,3.94.43,1.93.65,2.08c.17.68.5,1.73,1,3.13-3.54.85-7.19,1.81-11.11,2.83l-6.92,1.8c-20.94,5.36-31.55,11.82-32,12.09a3,3,0,0,0-1.18,3.75,10.82,10.82,0,0,0-5.68,6.71,2.66,2.66,0,0,0-.11.47,14.85,14.85,0,0,0,3,11.2c3.72,5.07,9.87,8.54,16.89,9.51a26.12,26.12,0,0,1,8.29,2.77c5.57,2.61,13.2,6.19,36.19,7.52,4.76.27,9.57.57,14.39.87,17.5,1.09,35.59,2.21,51.78,2.21a196,196,0,0,0,30.53-2c11.39-1.84,23.75-5.49,35.7-9,12.92-3.81,25.12-7.41,32.4-7.41.47,0,.92,0,1.33,0h.22a3,3,0,0,0,2.79-4.1Zm-5,1.06-.61,0Zm-1.5.08-.62,0Zm-1.66.16-.55.06Zm-2,.26-.23,0Zm-2,.33-.58.11Zm-196-23.1-.84-.1Zm-2.61-.28-1-.08Zm-2.52-.17-1,0Zm-2.69,0h0Zm-7.13,1,.21-.06Zm2.08-.51.32-.06C233.78,374.45,233.68,374.48,233.57,374.5Zm2.28-.34.36,0Zm77.88-156.24a17.22,17.22,0,0,1-1.18,3.14q-.09-1.11-.24-2.13A6.4,6.4,0,0,1,313.73,217.92Zm84.8,191.61-1.31.34Zm-2.46.63-1.3.33ZM435.66,377l-1,0Zm-8.08,3.57h0Zm-4.11.07-1.13,0Zm-3.2-.67.73-.26Zm2.25-.79.89-.28Zm2.3-.69c.32-.09.64-.16,1-.24C425.46,378.31,425.14,378.38,424.82,378.47Zm2.36-.57,1-.2Zm12.07,3.33-1-.12Zm-1.09-4.2h0Zm-2.25,3.85-1.13-.08Zm-3.71-.22-.91,0Zm-2.61-3.2,1-.14Zm2.5-.3,1-.09Zm.26-5c-.51-.38-1-.78-1.6-1.17C431.31,371.41,431.84,371.81,432.35,372.19Zm-164.83-10-3,.79Zm9.62-2.47-.27.06Zm-3,.74-.43.11Zm-3.15.81-.53.14Zm-6.92,1.81-3.27.85ZM224,385.93a10.91,10.91,0,0,0,.77,4.17A10.91,10.91,0,0,1,224,385.93Zm1.38,5.54a15.81,15.81,0,0,0,1.73,2.62A15.81,15.81,0,0,1,225.33,391.47Zm64.23,20.81-3.84-.23Zm42.91,2.42-1.09-.05Zm-4.82-.21h0Zm-3.77-.18-1.19-.06Zm-3.9-.21-1.22-.06Zm-4.35-.24-.66,0Zm-4.51-.26-1-.06Zm-3.91-.24-1.31-.08Zm-4.3-.26-.8-.05Zm-3.37-.21-1.09-.07Zm-1.57-.1-3.27-.2Zm-4.48-.27-2.84-.17Zm57.51,2.6h0Zm-15.86-.32,1.21,0Zm4.15.13.75,0Zm4.35.11.93,0Zm3.6.06h0Zm34.52-1.91h0l2.32-.39Zm-26.18,1.91h0Zm3.68-.06,1,0Zm4.44-.15h0Zm3.49-.18.94-.06Zm3.58-.25.76,0Zm4-.35.7-.08Zm3.18-.37.87-.11Zm15.74-3-1.34.32Zm-2.43.57-1.37.3Zm-2.4.53-1.46.3Zm-2.37.49-1.62.31ZM417.88,404l1-.31Zm-18.2,5.19,1.31-.35Zm2.48-.67,1.29-.35Zm2.47-.68,1.28-.36Zm2.5-.71,1.23-.35Zm2.45-.7,1.25-.36Zm2.47-.72,1.21-.35Zm2.55-.75,1.07-.31Zm26.06-7.06-.77.16Zm-1.91.4-.85.2Zm-2,.46-.9.22Zm-2,.5-.93.24Zm-2.09.54-1,.26Zm-2.15.57-1,.28Zm-2.2.61-1,.29Zm-2.24.63L425,402Zm-2.31.67-1.05.3Zm-2.35.68-1.06.31Zm29-6.26c.5,0,1,0,1.45.05C451.43,396.76,450.94,396.74,450.44,396.74Z"/></svg>