<svg id="amie_logo" data-name="amie logo" xmlns="http://www.w3.org/2000/svg" viewBox="0 0 133.07 20.2"><defs><style>.cls-1{fill:#68b4b8;}.cls-2{fill:#fff;}</style></defs><g id="pentagram"><polygon class="cls-1" points="73.9 7.15 73.9 7.11 73.89 7.22 73.9 7.15"/><path class="cls-1" d="M73.84,7.38s0,0,0,.07l0-.29C73.87,7,73.85,7.5,73.84,7.38Z"/><path class="cls-1" d="M73.83,7.35c0-.07,0,.07,0,.12C73.82,7.36,73.84,7.5,73.83,7.35Z"/><path class="cls-1" d="M72.68,7.42h0Z"/><path class="cls-1" d="M72.38,7.89V8c.06-.2.12,0,.18-.09V8c.15,0,.29-.14.44-.22s0,0,0,0,0-.11,0-.1a.15.15,0,0,1,0,.07c0,.18.1-.12.12,0a.74.74,0,0,0,0-.15.76.76,0,0,0,.36-.23.53.53,0,0,1,0,.14c.1-.3.21-.18.31-.13s0-.09,0-.17-.06.19-.09,0V7.22s0,.19,0,.09a.27.27,0,0,1,0-.1s-.1,0-.15.14c0-.16-.05,0-.06-.16a.32.32,0,0,0,0,.16c-.17-.09-.33.07-.5.06-.08.32-.18-.06-.27,0v0c0,.08-.08.12-.11.08l0,.13c-.22-.27-.45-.08-.67-.19s-.47-.31-.72.11V7.49c-.07.06-.13-.06-.2,0v0c-.17.26-.35,0-.51.25a1.24,1.24,0,0,0-.62.08V7.74c-.16.13-.32-.21-.49-.11-.17-.14-.35.37-.52.17s-.24.36-.34,0c-.21-.49-.4-.17-.61.11-.19-.17-.37.27-.56-.08-.08.23-.18-.28-.27-.21v.08c0-.24-.08.33-.1,0v0c0-.18,0,.42-.05.21V8s0-.1,0-.14,0,.16,0,.11c0-.36,0,.08,0-.32a1.93,1.93,0,0,1,0-.25s0,0,0,.15a2.57,2.57,0,0,0,0,.49V7.9a1.23,1.23,0,0,1,0,.17s0,.21,0,.29h0c0-.16,0-.07.05,0v.08c0,.15,0-.3,0,0a.25.25,0,0,1,.2-.06c0-.11.05,0,0-.19,0,.22.07.28.09.27s0,0,0,0c0,.28,0-.27.08.08,0-.25.06.08.08-.21v.15c.06,0,.13.09.18.1,0-.21.11.1.14-.2,0,.07.09.19.13.07v0s.11,0,.14-.23a.72.72,0,0,0,.06.33c0-.14.1-.1.15-.22,0,.13,0-.05,0,.14.14-.37.31-.24.46,0h0c0-.1,0-.34.06-.48v.05s0,.16.08.12v.06c0-.08,0,.16.08,0v.05l0-.07c0,.06,0,.16,0,.14.23.06.47-.27.72-.22v.06l0-.11v.06c.06.11.12-.07.18,0a.48.48,0,0,0,0,.12c0-.17.07.23.09-.13v.13a.28.28,0,0,1,.36-.06c.1-.33.21,0,.31-.29V8c.14-.23.28,0,.42,0s.1,0,.16,0V8c.1-.31.2.28.31-.06V8c0-.17.06.06.06-.23v.09c.07-.39.13.17.22-.08v.07c0-.05,0-.09.07,0a.07.07,0,0,0,0,0c.07.27.15,0,.22,0V8c0-.15.1,0,.15-.08V8l0-.09V8C72.26,8,72.32,7.91,72.38,7.89Z"/><path class="cls-1" d="M73,7.76h0Z"/><path class="cls-1" d="M66.83,8.39v0Z"/><polygon class="cls-1" points="69.67 1.38 69.63 1.38 69.73 1.42 69.67 1.38"/><path class="cls-1" d="M69.88,1.54H70l-.28-.12C69.5,1.44,70,1.54,69.88,1.54Z"/><path class="cls-1" d="M69.85,1.56c-.08,0,.06.05.11.06C69.85,1.6,70,1.58,69.85,1.56Z"/><path class="cls-1" d="M69.54,4.07h0S69.53,4.07,69.54,4.07Z"/><path class="cls-1" d="M69.9,4.79l.11,0c-.17-.16,0-.26,0-.4h0a2.81,2.81,0,0,0-.08-1l0,0s-.1-.05-.09-.07a.08.08,0,0,1,.06,0c.19,0-.08-.22.06-.24,0,0-.09,0-.15,0a2.37,2.37,0,0,0-.1-.82.36.36,0,0,1,.14,0c-.26-.26-.11-.48,0-.7-.08,0-.08,0-.16,0s.17.16,0,.21l-.08,0s.19,0,.09.07-.1,0-.1,0-.07.2.09.32c-.16,0,0,.11-.18.13.06,0,0,.06.15.08a5.78,5.78,0,0,0-.11,1.1c.29.22-.12.37,0,.58h0a.22.22,0,0,1,0,.25l.13.09c-.35.43-.23,1-.42,1.41s-.46,1-.13,1.58c0,0,0,0-.05,0,0,.17-.1.29-.06.44h0c.21.4-.14.74.08,1.13A5.51,5.51,0,0,0,69,10.31H68.9c.08.38-.3.68-.26,1-.19.34.25.81,0,1.15-.34.18.27.58-.08.75-.54.37-.3.84-.08,1.33-.24.38.14.86-.27,1.2.2.22-.33.35-.3.57H68c-.25,0,.3.22-.06.21h0c-.18,0,.4.16.19.15l.08,0c0,.05-.1,0-.14,0s.16,0,.11.05c-.36-.05.06.13-.34.07,0,0-.17,0-.24-.05s0,.09.13.11a1.21,1.21,0,0,0,.48.06l-.13,0h.17c0-.06.22,0,.31-.07h0c-.15-.05,0-.08,0-.1h.07c.16,0-.29-.12,0-.06a1,1,0,0,1,0-.43c-.1,0,0-.11-.17-.11.22,0,.3-.1.29-.14h0c.29,0-.25-.13.11-.15-.25-.05.1-.12-.19-.2a.35.35,0,0,1,.15,0c0-.13.14-.26.17-.37-.2-.13.13-.22-.16-.34.08-.06.22-.15.11-.26h0a.33.33,0,0,0-.17-.34c.29,0,.24-.05.33-.08-.12-.09-.06-.23-.16-.35.13,0,0-.1.15-.08-.32-.36-.14-.71.19-1h0c-.1-.06-.32-.14-.45-.2h0c0-.07.17-.09.14-.16l.06,0c-.07-.07.17-.09,0-.18h.06l-.07-.05c.06,0,.16,0,.13,0,.14-.5-.1-1.07,0-1.59l.06,0-.09-.12.06,0c.12-.11,0-.27,0-.39s.09,0,.13,0c-.16-.12.24-.11-.11-.22a.35.35,0,0,1,.13,0,1.22,1.22,0,0,1,.07-.8c-.3-.26,0-.46-.19-.73l.07,0c-.19-.33.1-.6.1-.91.05-.12,0-.22,0-.35h.08c-.27-.26.34-.4,0-.68l.11,0c-.17-.06.08-.13-.21-.16l.09,0c-.36-.2.22-.24,0-.47l.06,0c0-.06-.07-.12,0-.15l0,0c.3-.11,0-.33.06-.49l.12,0c-.14-.1,0-.22,0-.34l.06,0-.08-.07.13,0C70,5.07,69.9,4.93,69.9,4.79Z"/><path class="cls-1" d="M70,3.42h0S70,3.42,70,3.42Z"/><path class="cls-1" d="M68.56,16.87l0,0S68.56,16.88,68.56,16.87Z"/><polygon class="cls-1" points="69.67 1.58 69.63 1.59 69.73 1.59 69.67 1.58"/><path class="cls-1" d="M69.91,1.67l.07,0-.3,0C69.52,1.68,70,1.63,69.91,1.67Z"/><path class="cls-1" d="M69.89,1.69c-.07,0,.07,0,.12,0C69.9,1.73,70,1.66,69.89,1.69Z"/><path class="cls-1" d="M70.33,4.15h0S70.32,4.15,70.33,4.15Z"/><path class="cls-1" d="M70.9,4.72H71c-.22-.09,0-.26-.14-.37h0a2.68,2.68,0,0,0-.37-.9h.06s-.12,0-.11,0a.06.06,0,0,1,.06,0c.18-.1-.14-.18,0-.25a.27.27,0,0,0-.15,0,2.59,2.59,0,0,0-.34-.74l.13,0c-.33-.17-.24-.42-.23-.65-.08,0-.08,0-.16,0s.21.1.08.18h-.08c0,.05.19,0,.1,0s-.09,0-.1,0,0,.21.19.28c-.16,0,0,.11-.14.17.07,0,.06,0,.17,0a5.71,5.71,0,0,0,.22,1.06c.34.12,0,.38.13.56h0a.2.2,0,0,1,.11.23l.14,0c-.2.51.07,1,0,1.45S70.46,6.93,71,7.4h-.06c.08.14,0,.3.08.43h0c.31.32.08.75.41,1.05a5.12,5.12,0,0,0,.28,1.31h-.06c.18.34-.1.73.06,1.06-.09.39.47.7.33,1.09s.43.47.15.73c-.41.51,0,.88.31,1.28-.11.43.39.76.1,1.2.25.15-.21.43-.12.63l.08,0c-.23.11.35.11,0,.21h0c-.17.06.43,0,.22.08h.09c0,.05-.1,0-.12.07s.15,0,.11,0c-.36.06.09.11-.31.17,0,0-.14.07-.24,0s0,.1.16.07a1.32,1.32,0,0,0,.48-.09h-.13l.16,0c0-.06.2-.1.27-.16h0c-.16,0-.07-.06,0-.09l.07,0c.15,0-.31,0,0,0A.89.89,0,0,1,73,16c-.11,0,0-.11-.2,0,.22-.07.25-.19.24-.23h0c.27-.12-.28,0,.06-.18-.25,0,.06-.14-.24-.14l.15,0c0-.13,0-.28,0-.39-.23-.07.07-.25-.24-.28,0-.08.16-.2,0-.28h0a.32.32,0,0,0-.26-.27c.28-.07.21-.11.3-.17-.15,0-.13-.2-.27-.29.13,0-.06-.07.13-.11-.42-.24-.35-.63-.12-1h0c-.11,0-.35,0-.49-.06h.05c-.05-.06.13-.14.09-.19a.06.06,0,0,1,.06,0c-.09,0,.13-.14,0-.18h0l-.08,0c.06,0,.16,0,.14,0,0-.51-.42-1-.45-1.5h.06L72,10.51h.06c.09-.14-.11-.25-.1-.38s.1,0,.13,0c-.19-.07.2-.19-.17-.18a.53.53,0,0,1,.13,0,1.17,1.17,0,0,1-.17-.77c-.36-.16-.1-.45-.39-.63h.06c-.27-.25-.07-.6-.16-.89,0-.12-.08-.2-.11-.32l.08,0c-.33-.16.21-.48-.16-.65h.11c-.17,0,0-.14-.25-.08l.09,0c-.41-.09.13-.3-.14-.44h.07C71,6,71,6,71,5.93h0c.25-.19-.07-.32-.09-.48h.13c-.16,0,0-.22-.13-.31H71l-.1,0,.12,0C71.05,5,70.93,4.85,70.9,4.72Z"/><path class="cls-1" d="M70.55,3.41Z"/><path class="cls-1" d="M73.18,16.49l0,0S73.18,16.5,73.18,16.49Z"/><polygon class="cls-1" points="73.21 16.38 73.23 16.35 73.14 16.4 73.21 16.38"/><path class="cls-1" d="M73,16.43l-.06,0,.28-.12C73.31,16.24,72.88,16.51,73,16.43Z"/><path class="cls-1" d="M73,16.4s-.07,0-.11,0S72.86,16.49,73,16.4Z"/><path class="cls-1" d="M72,15h0Z"/><path class="cls-1" d="M71.33,14.89l-.1,0c.22,0,.1.15.22.18l0,0c.08.21.35.28.55.42l0,0s.1-.05.1,0a.11.11,0,0,1-.06,0c-.13.14.18.05.07.15a.3.3,0,0,0,.14-.07,1.27,1.27,0,0,0,.49.32.46.46,0,0,1-.12.09c.34,0,.33.16.37.32.07,0,.06-.06.14-.09s-.21,0-.12-.09l.07,0c0-.05-.16.1-.1,0s.08-.05.08-.06,0-.14-.24-.1c.13-.1,0-.06.08-.17a.43.43,0,0,0-.15.05c-.07-.25-.34-.38-.47-.59-.33.07-.09-.25-.25-.31l0,0c-.09,0-.16,0-.15-.1l-.14,0c0-.43-.3-.6-.39-.94s-.13-.76-.68-.84l0,0c-.11-.05-.07-.2-.18-.24l0,0c-.36-.06-.26-.45-.63-.5a2.49,2.49,0,0,0-.58-.73l.06,0c-.25-.14-.11-.52-.32-.67,0-.29-.59-.24-.57-.56.17-.3-.5-.11-.32-.41.24-.52-.18-.59-.59-.69,0-.33-.54-.32-.4-.74-.26,0,.08-.38,0-.47l-.06,0c.17-.17-.34.09-.06-.13h0c.14-.12-.38.18-.22,0l-.07,0s.08-.05.09-.1-.13.09-.1,0c.3-.21-.11,0,.23-.25,0,0,.11-.11.2-.13s0-.07-.16,0a2.06,2.06,0,0,0-.39.28l.11-.07-.13.1s-.15.16-.2.23h0c.15-.07.09,0,.08,0l-.06,0c-.12.1.28-.12,0,0a.56.56,0,0,1,.22.21c.09,0,0,.07.18-.06-.17.15-.18.24-.15.26h0c-.21.2.26-.09,0,.14.22-.13,0,.12.25,0l-.12.08c0,.08,0,.22,0,.29.22-.07,0,.18.29.06,0,.08-.09.21,0,.2h0a.26.26,0,0,0,.31.06c-.23.18-.16.17-.22.25.13,0,.16.07.3.07-.11.08.08,0-.08.13.43,0,.46.25.35.6h0c.1,0,.31-.13.44-.19a.05.05,0,0,1,0,0c.06,0-.08.15,0,.16l-.06,0c.1,0-.08.15.07.11l0,0,.07,0c-.05,0-.13.09-.12.07.14.32.62.44.77.77l0,0h.13l-.06,0c0,.13.16.11.18.2s-.08,0-.1.07c.18,0-.13.21.18,0L69,12a.59.59,0,0,1,.34.43c.36-.06.2.25.51.23l-.06,0c.3,0,.22.35.37.5s.12.09.17.17l-.06,0c.34-.05-.06.41.3.35l-.09.05c.15-.07,0,.12.24-.05l-.06.07c.38-.13,0,.25.23.22l-.06,0c.06,0,.12,0,.08.07l0,0c-.17.24.15.17.21.27L71,14.5c.16,0,.09.12.19.14l-.05,0,.09,0-.1.07C71.13,14.8,71.27,14.82,71.33,14.89Z"/><path class="cls-1" d="M72,15.59Z"/><path class="cls-1" d="M66.35,8.23v0S66.35,8.23,66.35,8.23Z"/><polygon class="cls-1" points="68.55 17.31 68.58 17.33 68.5 17.26 68.55 17.31"/><path class="cls-1" d="M68.4,17.11l-.06,0,.22.2C68.72,17.35,68.3,17.07,68.4,17.11Z"/><path class="cls-1" d="M68.43,17.11c.07,0,0-.06-.08-.09S68.3,17,68.43,17.11Z"/><path class="cls-1" d="M69.33,15.52h0Z"/><path class="cls-1" d="M69.18,14.86l-.09-.06c.12.18-.11.16-.08.29l0,0c-.16.18-.12.47-.17.71l0,0s.08.07.07.08l0,0c-.18,0,0,.19-.12.14a.36.36,0,0,0,.13.09,1.45,1.45,0,0,0-.11.61.57.57,0,0,1-.12-.07c.17.3,0,.38-.15.49.07.05.08,0,.14.09s-.11-.18,0-.15l.06,0c.06,0-.16-.1-.06-.08a.44.44,0,0,1,.09,0c0-.08.11-.11,0-.27.15.07,0-.06.2,0-.05,0,0-.06-.11-.13.21-.17.21-.48.36-.71-.2-.27.2-.2.18-.38l0,0c0-.09,0-.17,0-.19l-.09-.12c.42-.15.44-.55.72-.8s.66-.48.5-1c0,0,.05,0,.05,0,0-.13.16-.16.16-.28h0c-.08-.36.32-.45.21-.81a2.87,2.87,0,0,0,.45-.89l.05,0c0-.3.44-.34.49-.61.27-.16,0-.66.29-.8.35,0-.1-.51.26-.48.58,0,.48-.45.4-.88.3-.17.08-.65.53-.71-.12-.24.39-.1.41-.27l-.07,0c.23.07-.21-.28.1-.13v0c.17.06-.32-.28-.13-.19l-.07,0s.09,0,.13,0-.14-.09-.08-.08c.31.18,0-.11.32.1,0,0,.15.05.2.13s.06,0-.09-.13a2.11,2.11,0,0,0-.42-.25l.11.08-.15-.08s-.2-.06-.29-.08h0c.13.1,0,.08,0,.09l-.07,0c-.13-.07.23.21,0,.06a.68.68,0,0,1-.11.3c.08.06,0,.06.13.14-.21-.09-.29,0-.3,0s0,0,0,0c-.27-.1.19.2-.14.06.21.14-.11,0,.12.22l-.13-.07c-.06.08-.19.12-.24.18.15.18-.17.09,0,.3-.08,0-.23,0-.16.14l0,0a.27.27,0,0,0,.07.31.49.49,0,0,0-.32-.09c.09.11,0,.18.06.31-.12,0,0,.09-.15,0,.2.39,0,.55-.42.61h0l.36.33s0,0,0,0-.18,0-.17.05l0,0c0,.08-.17,0-.07.11l-.05,0,.05.06c-.05,0-.14-.09-.11-.09-.25.29-.17.79-.41,1.09l0-.05,0,.12a.1.1,0,0,1,0,0c-.14,0,0,.21-.11.27a.36.36,0,0,0-.1-.07c.11.15-.25,0,0,.2l-.11-.07a.69.69,0,0,1-.26.52c.2.3-.14.3,0,.58l-.05,0c.08.3-.25.37-.32.58s0,.16-.09.24l-.07,0c.19.3-.41.13-.2.45l-.09-.07c.14.11-.1.06.15.2l-.09,0c.28.3-.25.08-.11.32l0,0c0,.06,0,.12,0,.11l0,0c-.29,0-.1.22-.17.31l-.1-.07c.1.12-.08.14-.06.24l0,0,.06.08-.11-.06C69.17,14.64,69.22,14.77,69.18,14.86Z"/><path class="cls-1" d="M68.78,15.78Z"/><path class="cls-1" d="M73.35,7.1h0Z"/></g><path class="cls-2" d="M10,1c0,.58.31,1.08.31,1.76,0,.3,0,.5,0,.71s-.15.7-.15,1.1.05,1.42.05,2.27c0,.53,0,1,0,1.26a10.15,10.15,0,0,1,.15,1.39,4.31,4.31,0,0,1-.08.65,5.61,5.61,0,0,0,.08.91c0,.05-.08,1.41-.08,2.19,0,.53,0,1.34,0,2a4.19,4.19,0,0,1,0,.7,2.81,2.81,0,0,0-.05.63c0,.35.05.71.05,1.74a2,2,0,0,1,0,.35,3.65,3.65,0,0,1-.15.81,4.2,4.2,0,0,1-.81.65,1.13,1.13,0,0,1-.53.15.71.71,0,0,1-.28-.1.75.75,0,0,1-.22-.5c0-.2.12-.38.12-.63s-.12-.35-.15-.58,0-.55,0-1.06,0-1.06-.05-1.36a5.37,5.37,0,0,1-.08-.83.72.72,0,0,1,.08-.4,1.06,1.06,0,0,0,.07-.48c0-.25-.05-.51-.2-.51a1.56,1.56,0,0,0-.65-.15l-1,.08c-.12,0-.17.1-.4.1a5.29,5.29,0,0,0-1.29.08c-.22.05-.75.05-.75.4a2.72,2.72,0,0,0-.15.83c0,.25,0,.4,0,.53s-.15.45-.15.73,0,.38,0,.73a9.73,9.73,0,0,1-.07,1.13c0,.16-.15.56-.33.63s-.1.28-.23.51-.25.4-.45.4-.4-.28-.53-.45a1.92,1.92,0,0,1-.28-1c0-.3-.05-.71-.05-1s.08-.36.08-.61,0-.37,0-.5,0-.68,0-1.21c0-.18.07-.33.07-.48a.28.28,0,0,0-.1-.25.75.75,0,0,1-.2-.58A2.37,2.37,0,0,1,1.77,13c.05-.15,0-.83.05-1.19,0-1,.08-2,.08-3,0-.23,0-.73,0-1.16A28.93,28.93,0,0,1,2.6,3.93a3.24,3.24,0,0,1,.86-1.26c.15-.15.38-.3.4-.53s.76-.7,1.09-.88A4.37,4.37,0,0,1,5.8.78c.2,0,.61-.2.93-.25S7.72.48,8,.45,9.25.23,9.43.23C9.81.23,10,.58,10,1Zm-2.72.43a4.88,4.88,0,0,0-1.16.15,1.52,1.52,0,0,0-.83.7,3.38,3.38,0,0,0-.42.83c0,.18-.31.76-.43,1.16a4.36,4.36,0,0,0-.13,1.11c0,.48,0,.68,0,.91s-.26.93-.26,1.48v.81c0,1,0,2.42.05,2.77s0,1.26.08,1.49.1.17.3.17H5c.68,0,1.33-.07,2.19-.07a5.53,5.53,0,0,1,.6,0c.28,0,.36-.25.38-.48s0-.45,0-.78,0-.63,0-.75,0-.25,0-.46a5.21,5.21,0,0,1,.05-.75A8.63,8.63,0,0,0,8,8.49c0-.35,0-1.31-.1-2s.18-1.25.18-1.91c0-.3-.11-.58-.11-1,0-.2,0-.43,0-.88s0-1.16-.38-1.33A1.2,1.2,0,0,0,7.26,1.39Z"/><path class="cls-2" d="M15.73.55A1.06,1.06,0,0,1,16.2.3c.21,0,.46.15.66.56A12,12,0,0,1,17.77,3c.1.48.5,1.62.63,2s.15.4.15.45a5.78,5.78,0,0,0,.12,1.26c.15.43.2.25.38.78a2,2,0,0,1,.15.68.38.38,0,0,1,0,.13s.35.38.4.63.25.85.3,1.18.25,1.06.43,1.77.73,1.68.76,2A5.87,5.87,0,0,0,21.34,15a2.74,2.74,0,0,0,.73-1.36c.18-.68.36-1.26.41-1.59s.37-.73.4-1.16a6.11,6.11,0,0,1,.23-1.41,7.78,7.78,0,0,1,.42-1.36c.11-.05.21-.93.33-.93s.05-.15.05-.3a.47.47,0,0,0,0-.18,4.61,4.61,0,0,1,.27-1.08,4.82,4.82,0,0,1,.43-.86,3.1,3.1,0,0,0,.2-1A3.11,3.11,0,0,1,25,3.1a2.34,2.34,0,0,0,.33-.88c0-.08,0-.15,0-.2a4.82,4.82,0,0,0-.07-.51.4.4,0,0,1,.07-.2,3,3,0,0,1,.91-.88s0,0,.08,0c.27,0,.58.48.73,1a5.43,5.43,0,0,1,.22,1.61,4.49,4.49,0,0,0,.18,1.43,6.07,6.07,0,0,1,.15,1.14,7.84,7.84,0,0,1,.15,1.51c0,.83.13,1.74.13,2.44a4.18,4.18,0,0,1-.05.58,2.27,2.27,0,0,0-.05.41,3.52,3.52,0,0,0,.17.8c.05.33.21.3.21.91,0,.1,0,.25,0,.4a4.65,4.65,0,0,0,0,.63c0,.53.06.91.06,1.64,0,.48.12.63.12,1.13s0,.88,0,1.11v.58c0,.3.2.68.2.93s-.71,1.14-1.09,1.14c-.1,0-.22-.08-.42-.23-.43-.33-.38-.6-.48-1.06a4.14,4.14,0,0,1-.08-1c-.07-2-.28-2.65-.28-3.07v-1a10,10,0,0,0-.1-1.82A7,7,0,0,1,26,10.4c0-.42,0-.8,0-1s-.23-2.17-.23-2.6c0-.17,0-.35,0-.53s0-.35,0-.55a11.84,11.84,0,0,0-.05-1.19c0-.12-.43,1.16-.65,1.59s-.48.53-.51.93a2.25,2.25,0,0,1-.15,1c-.18.35-.38,1.16-.53,1.58a15.49,15.49,0,0,1-.38,1.79c-.27.71-.52,1.39-.68,1.94a18,18,0,0,1-.45,1.79c-.2.51-.35,1.19-.5,1.56a.27.27,0,0,0,0,.15c0,.23.23.38.23.68v.61a.56.56,0,0,1-.3.55c-.43.33-.61.66-1,.66s-.71-.05-.86-1A27.52,27.52,0,0,0,19,15.06c-.08-.15-.38-.93-.48-1.18s-.12-.73-.23-1-.15-.66-.27-1a6.51,6.51,0,0,1-.36-1.43,3.89,3.89,0,0,1,.06-.53.28.28,0,0,0-.13-.23c-.25-.22-.08-.53-.28-.9S17,7.46,16.88,7.08a8.79,8.79,0,0,1-.25-1.36,6.35,6.35,0,0,0-.45-1.11c0-.05-.05-.08-.08-.08s-.27.89-.37,1.44a9,9,0,0,0-.16,1.79v.63a2.09,2.09,0,0,1-.05.53,5.45,5.45,0,0,0-.2,1.21c0,.48.08.8.08,1.06a7.13,7.13,0,0,1-.18,1.68,4.35,4.35,0,0,0-.18,1,2.18,2.18,0,0,0,0,.35v.28a2.14,2.14,0,0,1-.08.65c-.15.61-.27,1.44-.35,2s-.15,1.18-.2,1.81,0,.58-.25.86a.66.66,0,0,1-.43.23c-.13,0-.23-.08-.25-.28a2.73,2.73,0,0,1-.05-.53A5.71,5.71,0,0,1,13.56,18a7.58,7.58,0,0,0,.12-1.41v-.33c0-.3.16-.83.16-1.31a1,1,0,0,0,0-.3,2,2,0,0,1,0-.33,8.82,8.82,0,0,1,.17-1,9.31,9.31,0,0,0,.3-1.36.86.86,0,0,0,0-.23.59.59,0,0,1,0-.25c0-.93.43-3.86.46-4.51s.15-1.19.15-1.64S15,4.21,15,3.68a18.23,18.23,0,0,1,.25-2.29A1.43,1.43,0,0,1,15.73.55Z"/><path class="cls-2" d="M33,.91c.3-.18.35-.48.63-.56l.1,0c.25,0,.5.22.6.75a4,4,0,0,1,.18,1.26v.91a5.24,5.24,0,0,1-.1,1.31,7.59,7.59,0,0,0-.25,1.69c0,.7.05,1.46.07,1.69s.08,1.36.08,2.92c0,.88,0,2,0,2.69s0,1,0,1.29a1.38,1.38,0,0,1,0,.45,3,3,0,0,0-.07.63c0,.23,0,.46,0,.68,0,.38-.18.78-.18,1s.08.43.08.58a.9.9,0,0,1,0,.35c-.1.35-.53.66-.91,1s-.37.38-.5.38c-.38,0-.38-.71-.38-.91v-.5c0-.66,0-1.47,0-1.89s.08-2.77.1-3.18c0-.22,0-.43,0-.65,0-.73,0-.86,0-1s.07-.5.07-.76-.07-.65-.1-1.13v-.4A26.51,26.51,0,0,1,32.4,6.6a4,4,0,0,0,.05-.6c0-.26,0-.56,0-.86,0-.48.2-.83.2-1.21s-.15-.63-.15-1,.1-.85.13-1.21C32.65,1.23,32.72,1.08,33,.91Z"/><path class="cls-2" d="M38.34,1.81c0-.4,0-.63.28-.63.45,0,.65-.05.68-.1A1,1,0,0,1,40,.76,7.64,7.64,0,0,0,41.54.58a3.26,3.26,0,0,1,1.18-.1c.28,0,.73,0,1.11,0a2,2,0,0,1,.46,0c.3.05.6.28.6.55s-.18.43-.43.66a1.12,1.12,0,0,1-.45.2c-.15,0-.23,0-.25-.13s-.2-.15-.51-.22a1.5,1.5,0,0,0-.4-.05l-1.31,0a.58.58,0,0,0-.4.13c-.25.2-.46.25-.46.65s.26,1.69.26,3a3.44,3.44,0,0,1,0,.57c-.08,1.09-.1,1.49-.1,1.74s.08.51.08.71-.08.35-.08.53a6.23,6.23,0,0,1,.08.65c0,.1,0,.2,0,.33,0,.3,0,.6,0,.86a1.2,1.2,0,0,0,.2.85.84.84,0,0,0,.58.15c.81,0,1,0,1.31,0a4.09,4.09,0,0,1,.76-.13c.53,0,.63.15.73.48a.39.39,0,0,1,0,.15c0,.2-.17.28-.63.3H43a5.8,5.8,0,0,0-1.21,0,1.7,1.7,0,0,1-.51,0,.37.37,0,0,0-.32.12,2,2,0,0,0-.36,1.21c0,.68.08,1.18.08,1.66v.28c-.05.48-.13,1.13-.13,1.54,0,.1,0,.17,0,.4s0,.35,0,.48a.35.35,0,0,0,.05.2,3.91,3.91,0,0,0,1.16.15c.28,0,.61.08.91.08a1.53,1.53,0,0,0,.33-.05c.32-.1.65-.05,1-.31s.48-.3.68-.47a.43.43,0,0,1,.23-.1c.12,0,.22.12.25.37s.12.58.12.78a.26.26,0,0,1,0,.18,3.63,3.63,0,0,1-1,.35,2.78,2.78,0,0,1-.7.05,8,8,0,0,0-1.16,0,2.4,2.4,0,0,1-.46.05c-.35,0-.7-.05-1-.05a6.9,6.9,0,0,0-1.41.05,4.16,4.16,0,0,1-.61.1.42.42,0,0,1-.25-.05c-.2-.1-.15-.45-.3-.85a.39.39,0,0,1,0-.15c0-.26.32-.23.32-.43a8.1,8.1,0,0,0-.12-.91,13.29,13.29,0,0,1-.13-1.71c0-.2,0-.38,0-.58,0-.38,0-.71,0-1a1.63,1.63,0,0,0,0-.6,2.32,2.32,0,0,1-.33-.81c0-.05,0-.07,0-.1.1-.2.38-.4.38-.53,0-.45-.1-.93-.1-1.41a2.7,2.7,0,0,1,.07-.63A7.62,7.62,0,0,0,38.57,8a5.5,5.5,0,0,0,0-.93,7.21,7.21,0,0,1-.08-1.36V5.19c0-.38,0-1,0-1.29s0-1,0-1.53Z"/><path class="cls-2" d="M60.86,4.51a.42.42,0,0,1,0-.2c0-.28.1-.63.1-1.09a4.08,4.08,0,0,0-.25-1.08c-.1-.35-.23-.43-.6-.63a1,1,0,0,0-.53-.12,2.53,2.53,0,0,0-1.24.47,4,4,0,0,0-1.46,2c-.12.3-.38.48-.38,1a2.83,2.83,0,0,1-.12.78,12.67,12.67,0,0,0-.08,1.49,9.76,9.76,0,0,1-.07,1.13c-.1,1-.18,2-.18,2.37a4.17,4.17,0,0,1,0,.86,1.75,1.75,0,0,0,.1.7,7.1,7.1,0,0,1,.25,1.36,15.24,15.24,0,0,0,.83,3.15c.25.33.5,1,.86,1.19a2.42,2.42,0,0,0,.93.45,1.31,1.31,0,0,0,1.26-.58c.2-.23.45-.65.55-.78a12.13,12.13,0,0,0,.46-1.18c.07-.23.17-.63.42-.63s.51.1.51.37c0,.1,0,.21,0,.31a1.09,1.09,0,0,1-.07.37c-.1.26-.15.63-.23.86s-.45.4-.63.68a3.49,3.49,0,0,1-.65.93,4.4,4.4,0,0,1-.76.43,2.75,2.75,0,0,1-1.38.48c-.18,0-.31,0-.58-.05a3.73,3.73,0,0,1-1.39-.43c-.25-.18-.6-.33-1-.6a5.5,5.5,0,0,1-1.14-1.74,8.91,8.91,0,0,1-.22-1,13.13,13.13,0,0,1-.61-3.88,28.43,28.43,0,0,1,.18-3,2.75,2.75,0,0,1,.1-1,3.15,3.15,0,0,0,.18-1.11.8.8,0,0,1,.22-.68c.15-.13.1-.53.26-1A5.25,5.25,0,0,1,55,3.88c.15-.2.38-.81.58-1a11.24,11.24,0,0,1,.93-1,5.74,5.74,0,0,1,.86-.63c.25-.13.42,0,.73-.28a1.71,1.71,0,0,1,1.28-.5,1.73,1.73,0,0,1,1,.28,3.35,3.35,0,0,1,1.16.68A2.91,2.91,0,0,1,62,2.44s0,.08,0,.13c0,.2-.07.55-.07.73,0,.4,0,.68,0,1s-.07.61-.43.61S60.93,4.84,60.86,4.51Z"/><path class="cls-2" d="M71.16.43a2,2,0,0,1,1.21.33,9.67,9.67,0,0,1,1.18,1.31c.2.37.35.83.53,1.13a3.24,3.24,0,0,1,.45,1.36c.11,1.44.16,2.52.16,3.4a15,15,0,0,1-.18,2.44,20.91,20.91,0,0,1-.23,2.7,10.08,10.08,0,0,0-.43,1.76,7,7,0,0,1-1.41,3c-.75.86-1,.58-1.18.88s-.25.38-.61.56a2.42,2.42,0,0,1-1.41.48,4.7,4.7,0,0,1-1.51-.46,4.55,4.55,0,0,1-1.41-1.06,2.42,2.42,0,0,1-.68-1.1,14.87,14.87,0,0,1-.58-1.47,15.81,15.81,0,0,0-.25-1.78,6.3,6.3,0,0,1-.23-1.29c0-.4-.07-1.06-.07-1.61a2.39,2.39,0,0,1,.07-.76l.15-.5a7.47,7.47,0,0,1-.07-.93c0-.13,0-.23,0-.33A6,6,0,0,1,65,7.28,17,17,0,0,1,65.57,5a4.76,4.76,0,0,1,1.1-1.94A6.59,6.59,0,0,1,68,1.89a2.72,2.72,0,0,0,.91-.63A3.94,3.94,0,0,1,70.78.45,2.42,2.42,0,0,1,71.16.43Zm-1,1.38c-.17,0-.33-.07-.6-.07a.67.67,0,0,0-.53.2A8.61,8.61,0,0,0,68,3.45a7.8,7.8,0,0,0-.55,1.82,15.58,15.58,0,0,1-.31,1.88A4.75,4.75,0,0,0,67,8.94a10.63,10.63,0,0,0,.15,1.67,11.86,11.86,0,0,0,.33,2.11,16.33,16.33,0,0,0,.3,1.82c.15.47.23,1.28.31,1.51A5,5,0,0,0,69,17.41c.48.38.63,1,1.36,1a1.34,1.34,0,0,0,.41-.08,2,2,0,0,0,.73-.68c.2-.28.32-.3.42-.3s.28-.58.36-.83.6-.94.65-1.26c0-.16,0-.41,0-.63a.8.8,0,0,1,.15-.58c.22-.23.35-.26.45-1a8.25,8.25,0,0,0,0-1.1,8.1,8.1,0,0,1,0-1.09,5.06,5.06,0,0,0,.05-.68c0-.3,0-.58,0-.85a4.61,4.61,0,0,1,0-.53c0-.56.15-.68.15-1a1.42,1.42,0,0,0,0-.28C73.7,6.85,73.6,5.27,73.5,5a8.89,8.89,0,0,1-.4-1.21,1.27,1.27,0,0,0-.61-.9c-.25-.23-.55-.78-.85-1a1.25,1.25,0,0,0-.76-.23C70.63,1.61,70.45,1.81,70.2,1.81Z"/><path class="cls-2" d="M78.94.78a1.65,1.65,0,0,1,.78-.33c.3,0,.61.78.63,1A10.76,10.76,0,0,1,80.58,3c0,1.26,0,1.61,0,1.92,0,.55-.17,1.11-.17,1.51,0,.73-.08,1-.08,1.38s.08.91.08,1.67a6.19,6.19,0,0,1,0,.73c-.1,1.36-.2,2.42-.28,3.05s-.15,1.91-.15,2.29,0,1.16,0,1.56c0,.2,0,.4,0,.58s0,.35.15.43a4.24,4.24,0,0,0,1,.22c.58.13,1.21.06,1.53.13a2,2,0,0,0,.43,0,1,1,0,0,0,.56-.12,2.4,2.4,0,0,1,1.08-.28.47.47,0,0,1,.55.45c0,.05,0,.08,0,.13,0,.25-.2.38-.56.5a11.59,11.59,0,0,1-1.38.2,2.08,2.08,0,0,1-.41.05c-.32,0-.62-.07-1-.07s-.48,0-.61,0c-.4,0-.78-.05-1.43-.05a6,6,0,0,1-.68.05.88.88,0,0,1-.38-.05c-.3-.12-.93-.07-.93-.58,0-.32,0-.9,0-1.38a5.83,5.83,0,0,0,0-.63c0-.1,0-.25,0-.41,0-.5,0-1.18.1-1.71,0-.07,0-.12,0-.2.05-.58.22-.86.22-1.23s0-.33,0-.43c0-.28,0-.61,0-.88,0-.11,0-.18,0-.56,0-.65.08-2,.08-2.74,0-.21,0-.36,0-.46s0-.25,0-.38a2.87,2.87,0,0,1,.2-1.28.05.05,0,0,0,0,0c0-.1-.15-.33-.15-.5s.1-.63.1-.94a1.1,1.1,0,0,0,0-.25,4.42,4.42,0,0,1-.11-1.06,3.57,3.57,0,0,1,0-.55c0-.73.1-1.49.1-1.79S78.69,1,78.94.78Z"/><path class="cls-2" d="M89.49.78a1.69,1.69,0,0,1,.78-.33c.31,0,.61.78.63,1A10.76,10.76,0,0,1,91.13,3c0,1.26,0,1.61,0,1.92,0,.55-.17,1.11-.17,1.51,0,.73-.08,1-.08,1.38s.08.91.08,1.67a6.19,6.19,0,0,1,0,.73c-.1,1.36-.2,2.42-.27,3.05s-.16,1.91-.16,2.29,0,1.16,0,1.56c0,.2,0,.4,0,.58s0,.35.16.43a4,4,0,0,0,1,.22c.58.13,1.21.06,1.53.13a2,2,0,0,0,.43,0,1,1,0,0,0,.56-.12,2.4,2.4,0,0,1,1.08-.28.47.47,0,0,1,.55.45c0,.05,0,.08,0,.13,0,.25-.2.38-.55.5a12.11,12.11,0,0,1-1.39.2,2.08,2.08,0,0,1-.4.05c-.33,0-.63-.07-1-.07s-.48,0-.61,0c-.4,0-.78-.05-1.43-.05a5.89,5.89,0,0,1-.68.05.88.88,0,0,1-.38-.05c-.3-.12-.93-.07-.93-.58,0-.32,0-.9,0-1.38a5.83,5.83,0,0,0,0-.63c0-.1,0-.25,0-.41,0-.5.05-1.18.1-1.71,0-.07,0-.12,0-.2,0-.58.23-.86.23-1.23s0-.33,0-.43c0-.28.05-.61.05-.88,0-.11,0-.18,0-.56,0-.65.07-2,.07-2.74,0-.21,0-.36,0-.46s0-.25,0-.38A2.87,2.87,0,0,1,89,6.45a.05.05,0,0,0,.05,0c0-.1-.15-.33-.15-.5S89,5.27,89,5a1.1,1.1,0,0,0,0-.25,4.44,4.44,0,0,1-.1-1.06,5.34,5.34,0,0,1,0-.55c0-.73.1-1.49.1-1.79S89.24,1,89.49.78Z"/><path class="cls-2" d="M99.69.91c.3-.18.35-.48.63-.56l.1,0c.25,0,.51.22.61.75a4.36,4.36,0,0,1,.17,1.26v.91a5.24,5.24,0,0,1-.1,1.31,8.22,8.22,0,0,0-.25,1.69c0,.7.05,1.46.08,1.69s.07,1.36.07,2.92c0,.88,0,2,0,2.69s0,1,0,1.29a1.38,1.38,0,0,1,0,.45,3.1,3.1,0,0,0-.08.63c0,.23,0,.46,0,.68,0,.38-.18.78-.18,1s.08.43.08.58a.9.9,0,0,1,0,.35c-.11.35-.53.66-.91,1s-.38.38-.51.38c-.37,0-.37-.71-.37-.91v-.5c0-.66,0-1.47,0-1.89s.07-2.77.1-3.18c0-.22,0-.43,0-.65,0-.73,0-.86,0-1s.08-.5.08-.76S99,10.33,99,9.85v-.4c0-.91,0-2.62.07-2.85a3,3,0,0,0,0-.6c0-.26,0-.56,0-.86,0-.48.2-.83.2-1.21s-.15-.63-.15-1,.1-.85.12-1.21C99.31,1.23,99.39,1.08,99.69.91Z"/><path class="cls-2" d="M106,.38a2.59,2.59,0,0,1,1.44.85,15.48,15.48,0,0,1,.88,1.57,6.37,6.37,0,0,1,.86,1.43,4.44,4.44,0,0,0,.35.93c.4,1.24,2.47,4.87,2.57,5.62s.23.61.33.88a4.64,4.64,0,0,1,.22.89c0,.32.46.95.58,1.33a7.62,7.62,0,0,0,.63,1.31,3.06,3.06,0,0,1,.38,1c0,.21.2.48.28.48s0,0,0-.1a12.53,12.53,0,0,0,.12-1.69c0-.63,0-1.38,0-1.79s.18-.73.18-1.05a.51.51,0,0,0,0-.21,3.29,3.29,0,0,1-.07-.85V10.5c0-.35.15-.6.15-1.05a1.35,1.35,0,0,0,0-.33,6.55,6.55,0,0,1,0-.68c0-.68.08-1.46.1-1.92s-.15-2-.17-2.49a8.83,8.83,0,0,1,0-.93,5.35,5.35,0,0,1,0-.78A4.38,4.38,0,0,1,115,.91c.2-.43,0-.73.43-.89a.25.25,0,0,1,.12,0c.3,0,.53.48.58.91s-.12,1-.12,1.56,0,.93,0,1.36a5.44,5.44,0,0,1,0,.86,3.83,3.83,0,0,0-.06.8c0,.53.06,1,.08,1.34v.4c0,.3,0,.53,0,.88,0,.51,0,3.48-.13,4.31s0,2.64-.13,3.27a5.88,5.88,0,0,0-.1,1.37c0,.22.1.57.1.93a6.05,6.05,0,0,1-.3,1.53c-.1.28-.25.46-.53.46s-.25,0-.35,0a1.69,1.69,0,0,1-1-.17,3.88,3.88,0,0,1-.91-1.06c-.22-.41-.85-1.94-1.08-2.42a19.3,19.3,0,0,1-1-2.65c0-.32,0-.47-.17-.68a1.12,1.12,0,0,1-.41-.65,17.67,17.67,0,0,0-1.1-2c-.26-.48-.28-1.18-.56-1.46a2.12,2.12,0,0,1-.48-1,4.23,4.23,0,0,1-.22-1c0-.25-.18-.38-.36-.76a3.59,3.59,0,0,0-.37-.86c-.16-.2-.16-.7-.43-.7s-.38.25-.38,1c0,1.19,0,1.64,0,2.22s.07,1,.1,1.46a4.67,4.67,0,0,1-.13,1.21.58.58,0,0,0,0,.23c0,.22.08.4.08.7,0,.63-.28,1.26-.28,1.74a1.53,1.53,0,0,0,.05.33,7.42,7.42,0,0,1,.23,1.76v.4c0,.41.13,1,.13,1.26a5.38,5.38,0,0,1-.13,1.49c-.08.23,0,.55-.35.91s-.33.83-.53.83-.38-.2-.4-1.11a13.14,13.14,0,0,1,.12-1.31c0-.23,0-.38,0-.53s0-.4,0-.58a.72.72,0,0,0,0-.33A4.26,4.26,0,0,1,105,15a3.32,3.32,0,0,1,0-.53,8.63,8.63,0,0,1,.08-1c0-.4.1-.6.12-.9,0-.11,0-.26,0-.48a13,13,0,0,0-.13-1.74,6.41,6.41,0,0,1-.07-1c0-.5.05-1,.07-1.33a3.11,3.11,0,0,1,.2-1.09c0-.1.15-.17.15-.3a.57.57,0,0,0-.12-.33,2.34,2.34,0,0,1-.35-1.43c0-.56.07-1.39.07-2a12.62,12.62,0,0,0-.13-1.36,1.55,1.55,0,0,1,.06-.33C105,.68,105.66.4,106,.38Z"/><path class="cls-2" d="M125.81,4.89c0-.1,0-.53,0-1,0-.25.08-.5.08-.83s-.23-.53-.31-.9a1.51,1.51,0,0,0-.63-1,1,1,0,0,0-.3-.05,2.94,2.94,0,0,0-1.08.23,3.56,3.56,0,0,0-1.11,1.23.79.79,0,0,0-.13.48c0,.33.1.71.1,1.14a1.4,1.4,0,0,0,.26,1c.15.23.1.78.22,1.13s.23.31.81.68a14.79,14.79,0,0,1,1.79,1.64,6.39,6.39,0,0,1,1.84,2.14,7.66,7.66,0,0,1,.5,2.5,8.59,8.59,0,0,1-.23,1.76c-.12.5-.3.91-.37,1.21a3.53,3.53,0,0,1-.61,1.16,2.64,2.64,0,0,1-.78.75c-.35.31-1.41.86-1.86,1.16a1.28,1.28,0,0,1-.73.18c-.28,0-.53,0-.79-.05a5.26,5.26,0,0,1-1.43-.35A3.12,3.12,0,0,1,119.94,18a6.21,6.21,0,0,1-.35-1.74c0-.42-.18-1.33-.18-1.91a.84.84,0,0,1,0-.3.94.94,0,0,1,.9-.78c.31,0,.78.25.78.63s-.25.55-.35.88a2.63,2.63,0,0,0-.15.75,2.76,2.76,0,0,0,.08.56,3.11,3.11,0,0,0,.5,1.46,4,4,0,0,0,1.26,1,1.56,1.56,0,0,0,.55.1,1.49,1.49,0,0,0,.94-.31,2.28,2.28,0,0,0,.83-1,.86.86,0,0,1,.27-.6,4.43,4.43,0,0,0,.41-1,2.46,2.46,0,0,0,.1-.78,8.35,8.35,0,0,0-.08-1.13,2.4,2.4,0,0,1,0-.25,4.68,4.68,0,0,0-.58-1.54c-.25-.58-.68-.78-1-1.16L123,9.72a12.56,12.56,0,0,0-1.31-1.18,4.5,4.5,0,0,1-.93-1c-.1-.25-.1-.58-.33-.8A1.86,1.86,0,0,1,120,5.52a1.35,1.35,0,0,1,0-.33A5.21,5.21,0,0,1,120.67,3c.43-.5.38-.73.68-1.13a2.12,2.12,0,0,1,.91-.91,3.74,3.74,0,0,1,1.64-.7,5.74,5.74,0,0,1,1.63.32,3,3,0,0,1,1.21,1.06A2.43,2.43,0,0,1,127,2.7,12.31,12.31,0,0,0,127.12,4c0,.25-.23,1.23-.55,1.2S125.81,5,125.81,4.89Z"/></svg>