<svg id="Layer_1" data-name="Layer 1" xmlns="http://www.w3.org/2000/svg" viewBox="0 0 1728 1728"><defs><style>.cls-1,.cls-3{fill:#243168;}.cls-1{stroke:#8f261d;stroke-miterlimit:10;stroke-width:29px;}.cls-2{fill:#e7e518;}</style></defs><polyline class="cls-1" points="864 437 384.24 437 216.68 620.78 864 1415.38 864.11 1415.38 1511.43 620.78 1343.87 437 864.11 437"/><path class="cls-2" d="M438,451.53v418l59.9,73.58V829.91h31.89s70,7.49,82.72-102.22c0,0,3-28,2.64-48.88s0-91.5,0-91.5,2.6-71.41-31.07-112.48c0,0-14.06-20.7-45.51-23.3S438,451.53,438,451.53Z"/><path class="cls-3" d="M497.89,536.3V742.07h30s26.53,2.23,27.2-43.69V588.69s2.23-52.38-26.53-52.39Z"/><polygon class="cls-2" points="671.26 451.65 615.81 1087.67 665.18 1148.23 675.85 1020.2 749.41 1020.2 771.06 1278.37 838.41 1361.04 759.21 451.65 671.26 451.65"/><polygon class="cls-3" points="712.23 576.51 683.54 926.19 741.51 926.19 712.23 576.51"/><polygon class="cls-2" points="805.71 452.86 863.98 1392.73 921.92 1321.72 952.68 781.23 980.45 1249.6 1053.44 1160 1096.51 452.86 1044.28 452.86 1013.14 1004.29 983.12 452.86 925.59 452.86 896.69 1000.24 864.6 452.86 805.71 452.86"/><path class="cls-2" d="M1130.87,451.53l.61,612.67,59.29-73V829.91h31.89s70,7.49,82.72-102.22c0,0,3-28,2.64-48.88s0-91.5,0-91.5,2.6-71.41-31.07-112.48c0,0-14.06-20.7-45.51-23.3S1130.87,451.53,1130.87,451.53Z"/><path class="cls-3" d="M1190.74,536.3V742.07h30s26.53,2.23,27.2-43.69V588.69s2.23-52.38-26.53-52.39Z"/></svg>