<svg id="amie_logo" data-name="amie logo" xmlns="http://www.w3.org/2000/svg" viewBox="0 0 131.71 24.63"><defs><style>.cls-1{fill:#fff;}.cls-2{fill:#68b4b8;}.cls-3{fill:#333;}</style></defs><rect class="cls-1" x="1.19" y="2.12" width="128.43" height="21.11"/><polygon class="cls-1" points="129.43 23.23 129.57 22.4 129.17 22.14 129.43 23.23"/><path class="cls-1" d="M130.88,19.3l-.16-1.41c-1.18.81-.84-.29-1.67,1.93.18.78.59,2.49,1,2.26a7.45,7.45,0,0,1-.35-2.2c.34.35.3,1.24.74,1.66.36-1.34-.29-.85-.13-2.31Z"/><path class="cls-1" d="M129.72,17.63a1,1,0,0,0,.57.24C130.08,17.74,129.83,17,129.72,17.63Z"/><path class="cls-1" d="M129.6,16.77c0-.9.43,0,.49-.08l-.75-1Z"/><path class="cls-1" d="M129.65,13c0-.15,0-.28-.07-.42C129.46,12.76,129.56,12.89,129.65,13Z"/><path class="cls-1" d="M129.56,11.21c-.26.37-.11.83,0,1.41l0-.06c.21-.51.75,0,.61.8.12.87-.41.79-.06,1.54l.44-1A6.12,6.12,0,0,0,129.56,11.21Z"/><path class="cls-1" d="M129.65,13a3.79,3.79,0,0,1,0,.49A.51.51,0,0,0,129.65,13Z"/><polygon class="cls-1" points="129.58 14.91 129.7 15.37 129.92 15.26 129.58 14.91"/><path class="cls-1" d="M129.52,8.16c.73.21-.08,2.18.49,2.42,0-1.2.5-2.17.91-1.9l-.23-1.34C130.41,6.9,129.86,7.46,129.52,8.16Z"/><path class="cls-1" d="M131.37,5.55a.79.79,0,0,1-.13-.31A.53.53,0,0,0,131.37,5.55Z"/><path class="cls-1" d="M126.3,1.62l.78-.18.39-.09.55-.1c.75-.12,1.59-.24,2.51-.36a4.3,4.3,0,0,1-1.66.55,7.44,7.44,0,0,0,1.48-.06,6.7,6.7,0,0,1,.24,2.1c-.34.31-.35-.34-.35-.93s0-1.13-.3-.46a11.21,11.21,0,0,0,.1,1.57A2.45,2.45,0,0,0,130.56,5L130.1,6.3l.75-.44c.21-.51-.59-1-.07-1.35.32-.16.38.35.46.72a2.32,2.32,0,0,1,0-.59l.06-.35.09-.68c.12-1,.27-2.23.32-3.59-.49,0-1,0-1.59,0C126.45.09,127.6,1.27,126.3,1.62Z"/><polygon class="cls-1" points="126.17 0.8 125.97 0.51 126.12 0.9 126.17 0.8"/><path class="cls-1" d="M122.78,1.78l1.62-.47c.18.06.27.22.39.36-.07-.17.37-.47.3-.61-.74-.68-2,.21-2.85.33-2.3-.3.1-.36-.79-1,.64,0,.66.18,1.56.22-1.41-.76-3.18-.06-4.08.13.26.07.33.28.83.22l-.94.22C119.79,1.72,120.62,1.86,122.78,1.78Z"/><path class="cls-1" d="M125.68,1.77c-.61.05-.83,0-.88-.09C125,1.86,125.16,2,125.68,1.77Z"/><path class="cls-1" d="M118.44.76a.93.93,0,0,0,.49,0A1,1,0,0,0,118.44.76Z"/><path class="cls-1" d="M119.37,1.56l-1.14-.06.44.31C118.83,1.78,119.39,1.73,119.37,1.56Z"/><path class="cls-1" d="M75.91.53c.11.28.52.41,1.4.36-.1.36-1.24.29-1.77.5,1.16.24,0,.43.27.79,1.29,0,1.87-.44,3.26-.35-.07.11,0,.27.13.4A22.86,22.86,0,0,1,85.31,2a22.61,22.61,0,0,0,4.45-.2c5.67.19,11.57-.19,17.66.16l.86-.72c.3.36,1.45,0,1.28.46a3.68,3.68,0,0,0-1,0c1.3.62,3.45,0,5,.17-.18-.13-.44-.75,0-.86-.12.8,1.85,0,2.31.9,1.56.23.06-.69,1.69-.57.17-.47-1.56-.22-1.86-.58.51-.38,1.47.16,1.4-.33-2.61-.23-7.46.74-11.45,1l.42-.44c-2,.31-5.35.33-7-.39.38.42-3-.22-2.71.73A4.06,4.06,0,0,0,95,1l-.2.31c-1,0-.88-.48-2.07-.45.78.41-.09.53-.44.87-1.38-.45-3-.85-4.2-1.23a1.25,1.25,0,0,0,.62.46c-.83-.14-.68.25-.91.39-.79,0-.71-.51-.68-.78-1.47-.16-2.13.85-3.23.51l.39.42c-1.51.11-2.78-.36-4.46-.22C79,.75,81.16.82,81.86.58,81.52.45,80.8.42,80.57.23c-.72.3-1.91.7-2.8,1C78.61.53,76.49.57,75.91.53Z"/><path class="cls-1" d="M80.57.23A2.72,2.72,0,0,0,81.05,0a1.35,1.35,0,0,1-.56.05A.16.16,0,0,0,80.57.23Z"/><path class="cls-1" d="M75.91.53s0,0,0-.07C75.71.5,75.77.52,75.91.53Z"/><path class="cls-1" d="M85.53,2l-.22,0L85,2Z"/><path class="cls-1" d="M86.78.09a9.65,9.65,0,0,0,1.28.45C87.92.35,87.8.2,86.78.09Z"/><path class="cls-1" d="M97,.57c.32-.08.14-.21.36-.34C96.7.21,96.48.35,97,.57Z"/><polygon class="cls-1" points="78.73 0.12 77.46 0.26 76.99 0.37 78.73 0.12"/><path class="cls-1" d="M53,2.32c1.13.5,2.77.19,4.16.29,2.53-.26.32-1.1,2.72-1.16l-.41,1c2.4-.06,5.82.15,7.86-.76.18.13.61.28,0,.43,1.61,0,.83-1.47,3-1.13-2,.64.65.61.1,1.25L70,2.36c1.36-.07,3.16-.41,4-.37,0-.26-.74-.67.46-.7-.49-.06-.29-.36-.25-.63a18,18,0,0,0-2.67.47c-.7-.35.47-.11-.23-.46L70.4,1c-.73-.08.76-.35-.38-.42a3.23,3.23,0,0,1-2,.38l.26-.12c-.69.14-1.65,0-1.32.54L66.19.8l.14.39C64.45,1,63.75.1,61.32.59c.59.12,0,.33-.26.4,1,.27,1.25-.29,2.21-.35.14.39-1.49.86-.33,1.1-1.27-.47-2.41.06-2.95-.92-1.53-.06-2.12.42-3.68.19l0-.14c-.29.64-1.27-.3-2.43.37l.83.14c0,.27-.44.27-1,.32.06-.1.06-.1-.12-.23-.17.47-1.93.55-2.15.68A11.54,11.54,0,0,0,54,1.73C53.56,2,53.7,2.4,53,2.32Z"/><path class="cls-1" d="M68.82.6l-.5.23A.87.87,0,0,0,68.82.6Z"/><path class="cls-1" d="M46,1.5c-1-.11.26-.41-.66-.61-1,.32,1.15.66.17,1.15-.6-.28-1.58.2-2,.21.45-.27.19-.9,0-1-.38.17-1.22-.14-1.87-.16,1.58.39-1.34.24.1.66-.11.37-1.6.64-2.21.36,0-.27.54-.21.94-.22.32-.51-1-.28-1.24-.73-1.51.69-6.35.65-5,1.77.52.22,1-.06,1.52-.1-1.57-.23,0-.6.12-.8.67.18,1.82-.18,1.56.23l-1.06.42c3.4.21,8.07.13,12,0l-1.7,0c.2-.3,1-.32,1.63-.47l-.83-.74c.49.06.95,0,.91.21.6-.31.33-.5,0-.76C49.66.71,49.87,1,50.85.52c-2.11-.61-1.78.5-4.19,0Z"/><polygon class="cls-1" points="50.61 1.09 50.1 1.46 50.88 1.28 50.61 1.09"/><path class="cls-1" d="M49.8,2.72c0-.16.29-.23.26-.4C49.08,2.21,49.2,2.44,49.8,2.72Z"/><path class="cls-1" d="M38,1.1l-1.27.13.82.15C37.5,1.21,37.81,1.14,38,1.1Z"/><path class="cls-1" d="M29.08,3c1.76-.08,2.51-.43,4.49,0,1-.48-.45-.91,0-1.35-1-.11-.87.72-1.89.87-.38-.41-1.49.1-2.47,0A.35.35,0,0,1,29.08,3Z"/><path class="cls-1" d="M23,1.43c-.81,0-1.62.33-2.25.12.09-.26.57-.35,1.05-.29-.31-.59-.89.1-1.76-.3.08.06.39.17.15.29-2.16-.13-1.21.49-4,.15-.41.17-.81.16-.74.56A16.91,16.91,0,0,0,12.74,1c.08.24.71.77.69,1.26-2.71-.7-2.76.1-4.49-.42a2.17,2.17,0,0,1,.89-.09c-.22-.69-1.45.13-2.41,0l.09-.59c-.89.09-2.42.48-3.53.05l.25-.3-.74.13L3,1.09l-.56,0c-.73.05-1.44.08-2.15.09L.34,4.06l0,1c0,.3,0,.59.07.87L.08,7c.45,2.66.21-2.65,1.09-.7-1.08.29.36,1.37-.07,2.89C.67,9.88.87,7.63.37,8.42c.56.33.16.81.33,1.61C.17,9.86.62,11.72,0,11.22l1,2.84A3.13,3.13,0,0,0,.84,16c0-1.54.78.42,1-1.3a59.45,59.45,0,0,1-.15-9.81c-.36-.18-.36-.68-.34-1.14a2.39,2.39,0,0,0-.24-1.43,2,2,0,0,0,.35.15,4.19,4.19,0,0,1,.44.3c.66-.08.57-.17.23-.29s-.94-.24-.82-.37a2.76,2.76,0,0,1,1.21.17c.32.13.47.3.47.43a2,2,0,0,0,.53,0c.1,0,.09-.06.07-.11s-.19-.26.18-.46l1,.8c4.5-.24,10.47-.78,15.6-.33L20,2c2.33.28,3.89-1.1,5.95,0l.7-.43c-.38.24.4.75-.2,1.08.63-.16,1.3,0,2-.13L27.2,2.29a1.67,1.67,0,0,1,2,.21c1.74-.5-1-.86-1.41-1.28-2.44.92-2.46-.9-4.8-.51C21.5,1,23.11,1.17,23,1.43Z"/><path class="cls-1" d="M26,2.8a1.59,1.59,0,0,0,.36-.14A1.58,1.58,0,0,0,26,2.8Z"/><path class="cls-1" d="M.84,16a5.69,5.69,0,0,0,0,.68C1,16.86.9,16.49.84,16Z"/><path class="cls-1" d="M29.18,2.51h0Z"/><polygon class="cls-1" points="30.35 1.29 29.7 1.27 29.81 1.5 30.35 1.29"/><path class="cls-1" d="M.21,23.58l.26-.2C.39,23.37.31,23.39.21,23.58Z"/><path class="cls-1" d="M19.33,24.36h-.41A.94.94,0,0,0,19.33,24.36Z"/><path class="cls-1" d="M63.87,23.82a15.22,15.22,0,0,0,3.72-.74l-.09.26c.65-.13,2.75-.55,1.39-1l-.32.23c-1.54.38-1.12-.44-2.32-.61-1.44.13-2.28,1.11-3.56.88-.56,0-.47-.24-.31-.43-1.28-.08-1.79.68-2.67.78-.35-2-4,.54-5.85-.72a33,33,0,0,0-4.35.37c.81-.49-1.45,0-1.11-.59-.43,1.15-4.41-.52-4.69.93-2.08-.4-.08.1-2.48-.24,0-.16.4-.16.56-.19-.95-.31-1.46.62-2.25,0-1.92-.11-.32.39-1.46.78-2-.17-1.44-.36-2.55-1-.18.69-1.37.36-2.35.71.24,0,1.61.17.71.44-2.32-.11-1.86.45-4,.64-1.1-.77,2.18,0,.26-.63,1.38-.35,2.43-.32,3.16-.87a35.06,35.06,0,0,0-6.12.4c-1.12-.11.57-.36-.31-.43-2-.34-3.07.77-4.67.44l.33-.39c-1,.52-3.53-.12-5.39.17.24.2.39.33.15.46,0-1-2.58.52-4.42-.18.15.62-1.63,1-2.76,1a.47.47,0,0,1-.3-.59c1.84.36,1.78-.69,3.24-1-1.21.33-3.22,0-4.28.44l.42-.49c-1.68-.07-1.48,1.11-3.23.64L6.1,23c-.79,0-1.6,0-2.43,0L1.6,22.82l0-1.25V21l0-.73a12.14,12.14,0,0,0-.38-2.62c-.3-.25-1,1.18-1.23,1.25A12.78,12.78,0,0,0,.52,21c.19.77.39,1.38.52,2l-.57.43c.1,0,.19.15.28.29.89-.24,1.6-.42,1.16-.65.56-.14.64,0,.82.1a1.09,1.09,0,0,0,1,.07.94.94,0,0,1-.46.62c-.24.15-.52.29-.58.53.25-.05.59-.09.74-.14L4,24.05c-.34.23.63.2.3.43,2-.71,2.72.28,4.74,0l-1.12-.11c0-.33.65-.29,1.14-.39.55.46.88.4,1.91.6.89-.26,1.39-.85,2.6-.84-.26.62,2,.34,2.23.86.25-.62,2.33-.22,2.5-.58.64-.12,1.53-.06,1.52.27-.09,0-.28.08-.48.11l.64,0c-.06.07,0,.12-.11.13.57,0,.57-.44,1.32-.13,0,.17-.41.17-.74.23,1.53.11,2.68-.95,3.95-.38.25-.29,2-.32,1.64-1,.48.23.29.76,1.58.66.75-.55,1.44.21,2.42-.15-1.3.59,0,.16-1.14.72.88.24,2.18-.52,3.71-.41.16.13.15.3.31.43.57-.2,1.22-.65,1.77-.19l-.07-.4a21.47,21.47,0,0,1,3.61.51l1.3-.75c1.75.8,4.1.09,5.48-.6.64,0,1.6.17,1.6.34s-.4.17-.7.27c1,0,2.1.46,2.63-.17,1-.19.71.43,1.43.54,1.95-.89,5.77.65,6.37-.7-.8,0-2.32-.28-3.85-.22.4-.16.09-.42.65-.45,1.53-.06,2.32.43,3.85.21l-.18.86C59.43,24.63,61.82,22.59,63.87,23.82Z"/><path class="cls-1" d="M44.26,23.8l1.11.43-.11-.37A1.77,1.77,0,0,1,44.26,23.8Z"/><path class="cls-1" d="M45.26,23.86a3.35,3.35,0,0,0,.64-.17,1.9,1.9,0,0,0-.68.08Z"/><path class="cls-1" d="M68.3,23.67a3.33,3.33,0,0,0,1.2,0A2.13,2.13,0,0,0,68.3,23.67Z"/><polygon class="cls-1" points="69.59 23.42 69.03 23.28 68.95 23.38 69.59 23.42"/><path class="cls-1" d="M102.08,22.67l1.79-.52c.31.27,2.33,0,1.67.4,1.07-.62,3.38,0,2.52-.91-5.23.31-12.45-.22-18.51.58l1-.36c-3.14.71-4.31-.78-6.84.63l.34-.72c-1.44-.21-2.76,1-4.26.27l.14.3c-.4,0-.55-.13-1-.14l.16.14a5.17,5.17,0,0,1-2.73.05c-.07-.23.48-.09.81-.16-.48-.23-1.3.26-2.1.26-.64-.21,0-.34.09-.43-2.42.32-3.52-.45-5.24.63-.16.2.63.37-.25.47A10.05,10.05,0,0,0,74,22.77h-.4c1.15-1,.87.24,2.73-.21-.49.42-1.3.42-1.62.65,2.15.8,3.07-.61,4.49.41l-.16,0a3.83,3.83,0,0,0,1.37-.19,3.86,3.86,0,0,0-1-.31c.49-.09.74-.55.91-.75.55.46.73-.22,1.6,0,.31.43-.73.39-1.06.62L82,22.75c1,0,1,.46,1.42.7.82-.33-.47-.24.19-.7,1,.54,5.45.39,7.55,0-.72.06-.26.46-1.13.39.31.1,1.44-.12,1.45-.45a12.32,12.32,0,0,1,4.66.21l-.39-.33c1.14-.55,2.88.41,4.9.09h0c.65-.07,1.21-.87,2.4-.71C102.66,22.31,102,22.27,102.08,22.67Z"/><path class="cls-1" d="M109.18,21.91l-.66.46c.72.1,1.63-.49,1.47-.79-.49.1-1.12-.1-1.21.16C108.86,21.81,108.85,22,109.18,21.91Z"/><path class="cls-1" d="M122.68,21.84c.27-.11.2-.28.31-.41-2.86.06-6.39.24-7.53-.12-1-.14-1.14.56-2.35.72l-.54-.47c-.66.3-2.66-.21-1.95.55.07.07.57-.36,1.13-.22l-.09.26,1.29-.09-.41.33c1.76.46,1.23-1,3.39-.68v.66a10.85,10.85,0,0,1,3.45.21s0-.33-.24-.2c-.24,0-.55-.3-.38-.49,2.18-.52-.34.39,1.18.66,1.86-.45,5.41-.83,6.44-.3-.88-.4.42-.82,1.47-.79.47.24-.33.4-.5.6a3.94,3.94,0,0,0,1.36.13c-.63-.36-.22-.85.91-1.08C127.14,20.7,125.17,21.91,122.68,21.84Z"/><path class="cls-1" d="M123.42,21.28a.61.61,0,0,0-.43.15l1,0Z"/><path class="cls-2" d="M31,17.23c-.18,0-.47-.39-.47-.65a1.3,1.3,0,0,1,.1-.56,1.06,1.06,0,0,0,0-.14c0-.09,0-.22.09-.41a3.68,3.68,0,0,1,.32-.81c.13-.28.29-.64.49-1.12s.25-.51.37-.6l.05-.1a.3.3,0,0,1,.1-.18,1.06,1.06,0,0,1,.13-.27,1.68,1.68,0,0,1,.23-.43l.17-.28c.25-.41.32-.56.38-.67l.05-.09a.62.62,0,0,1,.17-.27c.09-.1.22-.3.33-.45l.14-.2A1.81,1.81,0,0,1,34,9.49c.1-.05.1-.05.16-.16a1.25,1.25,0,0,0,.11-.18,1.72,1.72,0,0,1,.41-.51,2,2,0,0,0,.17-.2.26.26,0,0,1,.09-.09c.15-.06.2-.11.21-.13l.11-.12.23-.22a1.82,1.82,0,0,1,1.15-.42.54.54,0,0,1,.62.52,1.55,1.55,0,0,1-.3.79s0,.11-.14.21a.43.43,0,0,0,0,.12c0,.06,0,.13-.07.2a1,1,0,0,1-.35.4,1,1,0,0,0-.14.17l-.11.14c-.09.13-.28.37-.43.56l-.21.26a1.47,1.47,0,0,1-.32.38.66.66,0,0,1-.21.21.91.91,0,0,1-.34.36.8.8,0,0,0-.16.19l-.07.09c0,.14-.48.55-.53.59a1.37,1.37,0,0,0-.28.3,2.33,2.33,0,0,1-.26.38l-.07.09a1,1,0,0,1-.22.21l-.09.06a1,1,0,0,1-.38.38.5.5,0,0,0-.12.14,1.17,1.17,0,0,1-.14.22,1.9,1.9,0,0,0-.31.66l0,.13a3.46,3.46,0,0,0-.27.57v0l.07-.07a1,1,0,0,1,.23-.22l.14-.12a5.48,5.48,0,0,0,.44-.4l.2-.19a1.28,1.28,0,0,0,.23-.19l.1-.08c.06,0,.07,0,.12-.09s.11-.12.21-.21a4.1,4.1,0,0,1,.66-.56,1,1,0,0,0,.19-.15.31.31,0,0,1,.2-.12l.48-.31a2,2,0,0,1,.93-.35.62.62,0,0,1,.58.62,1,1,0,0,1-.21.47.61.61,0,0,0-.15.22l0,.09a1.62,1.62,0,0,0-.1.18,1.18,1.18,0,0,1-.11.19.86.86,0,0,1-.07.1s-.05.05-.05.1-.06.13-.09.18a1.66,1.66,0,0,1-.15.33,1.15,1.15,0,0,0-.2.64c0,.16,0,.16.06.16a1.68,1.68,0,0,0,.47-.17.56.56,0,0,1,.26-.1.7.7,0,0,1,.3-.27l.1-.06a1.5,1.5,0,0,0,.43-.3,1.37,1.37,0,0,1,.27-.22l.1-.07a.41.41,0,0,1,.15-.07.22.22,0,0,1,.21.22.24.24,0,0,1-.13.2l-.22.18-.19.16a1.65,1.65,0,0,1-.58.37,3.42,3.42,0,0,1-.86.49.24.24,0,0,0-.11.06.87.87,0,0,1-.49.13.71.71,0,0,1-.6-.27.77.77,0,0,1-.26-.61.94.94,0,0,1,.19-.64,2.53,2.53,0,0,0,.18-.37,1.38,1.38,0,0,1,.13-.25,2.19,2.19,0,0,0,.23-.38,1.52,1.52,0,0,1,.18-.23,2.08,2.08,0,0,0,.19-.23.75.75,0,0,0,.2-.37l-.28.19-.09.05a1.89,1.89,0,0,0-.53.3,1.18,1.18,0,0,1-.22.2,1.74,1.74,0,0,0-.25.23,1.17,1.17,0,0,1-.28.24l-.08.06a1.14,1.14,0,0,0-.28.26c0,.06-.1.13-.21.22a2.61,2.61,0,0,0-.2.17l-.41.35-.12.11a.87.87,0,0,1-.36.2.38.38,0,0,1-.13.27,1.1,1.1,0,0,1-.39.35.43.43,0,0,0-.08.14,1.61,1.61,0,0,1-.15.28l-.1.14C31.19,17.12,31.11,17.23,31,17.23Zm5.72-9.32a.8.8,0,0,0-.46.26.83.83,0,0,1-.14.13.44.44,0,0,0-.15.16.7.7,0,0,1-.22.25.89.89,0,0,0-.14.13c-.15.16-.18.18-.22.28a1.44,1.44,0,0,1-.22.37l-.06.09a1.82,1.82,0,0,0-.19.29l-.13.2-.09.09a.67.67,0,0,0-.17.23,3.22,3.22,0,0,1-.42.52L34,11a.74.74,0,0,1-.14.28,1.12,1.12,0,0,1-.22.33,1.94,1.94,0,0,0-.14.32,5.9,5.9,0,0,1-.31.62c-.08.15-.16.28-.18.33l.31-.36.38-.39.07-.1.16-.21.24-.29a3,3,0,0,0,.26-.31,7,7,0,0,0,.5-.54l.11-.11a.77.77,0,0,0,.19-.24,3.21,3.21,0,0,1,.41-.54c.08-.09.15-.17.2-.24L36,9.42a1,1,0,0,1,.18-.23,1.37,1.37,0,0,0,.16-.25,3.13,3.13,0,0,1,.21-.34A2.32,2.32,0,0,0,36.74,8,.07.07,0,0,0,36.67,7.91Z"/><path class="cls-3" d="M36.61,7.58c.4,0,.49.26.49.4a1.61,1.61,0,0,1-.23.68.82.82,0,0,1-.17.24c-.07,0-.07.2-.15.34a.79.79,0,0,1-.29.35,2,2,0,0,0-.29.35c-.15.21-.55.69-.64.82a2.14,2.14,0,0,1-.36.42c-.08.12-.17.14-.22.22s-.17.21-.26.27a1.7,1.7,0,0,0-.25.31,2.83,2.83,0,0,1-.51.57,1.58,1.58,0,0,0-.31.32,3.66,3.66,0,0,1-.33.48,1.5,1.5,0,0,1-.29.25,1.17,1.17,0,0,1-.37.37c-.16.13-.11.14-.29.38a2.83,2.83,0,0,0-.37.82,5.42,5.42,0,0,0-.27.57c0,.11,0,.35,0,.35a1,1,0,0,0,.31-.26c.11-.16.22-.2.37-.35s.49-.45.64-.58a4,4,0,0,0,.31-.26c.11,0,.13-.12.34-.31a3.65,3.65,0,0,1,.64-.54c.17-.09.28-.26.33-.26A3.8,3.8,0,0,0,35,13.2a2,2,0,0,1,.86-.33.5.5,0,0,1,.45.5.87.87,0,0,1-.18.4.73.73,0,0,0-.2.33c-.07.09-.13.25-.2.34s-.13.13-.15.26-.07.2-.22.47a1.35,1.35,0,0,0-.22.7c0,.14,0,.29.19.29s.65-.28.73-.28a.17.17,0,0,0,.14-.1c0-.1.22-.17.33-.24a1.88,1.88,0,0,0,.46-.33,2,2,0,0,1,.34-.27.1.1,0,0,1,.08,0,.11.11,0,0,1,.09.09c0,.06-.09.09-.15.15s-.22.2-.34.29a1.69,1.69,0,0,1-.53.35,5.56,5.56,0,0,1-.88.49,1.05,1.05,0,0,1-.56.18.66.66,0,0,1-.55-.27.57.57,0,0,1-.18-.48.81.81,0,0,1,.16-.56c.15-.22.24-.53.31-.62a2.62,2.62,0,0,0,.24-.41c.14-.2.16-.18.36-.43a.77.77,0,0,0,.22-.46s0-.13-.09-.13a3.88,3.88,0,0,0-.44.26,2.15,2.15,0,0,0-.58.33c-.06.11-.29.23-.48.43a1.08,1.08,0,0,1-.33.28,1.41,1.41,0,0,0-.31.29c0,.11-.21.2-.4.38s-.4.35-.53.46a.92.92,0,0,1-.27.16c-.07,0-.07.17-.22.31a1,1,0,0,1-.36.33c-.13.11-.11.22-.28.46s-.18.33-.31.33a.7.7,0,0,1-.34-.53,1,1,0,0,1,.09-.51c0-.11,0-.24.12-.57a20.28,20.28,0,0,1,.81-1.91c.16-.39.23-.48.33-.55s.07-.22.14-.28a2.82,2.82,0,0,1,.17-.31,3.13,3.13,0,0,1,.4-.71c.25-.42.33-.56.38-.67s0-.17.2-.33.4-.57.48-.66a1.81,1.81,0,0,1,.32-.49c.1-.06.1,0,.19-.2a2.67,2.67,0,0,1,.49-.66c.27-.27.16-.24.24-.27a.56.56,0,0,0,.25-.17c.06-.07.06,0,.33-.33a1.7,1.7,0,0,1,1.06-.38M32.45,13.7l.6-.64a5.94,5.94,0,0,0,.4-.48l.37-.36a3.55,3.55,0,0,1,.23-.31c.11-.15.46-.53.52-.62s.34-.35.49-.53a1.48,1.48,0,0,0,.31-.37,6.7,6.7,0,0,1,.6-.76,2,2,0,0,1,.26-.35c.11-.11.22-.38.38-.6a2.35,2.35,0,0,0,.26-.7.22.22,0,0,0-.19-.2.88.88,0,0,0-.56.31c-.13.13-.26.19-.31.33s-.24.2-.35.35a.77.77,0,0,0-.24.31A2,2,0,0,1,35,9.5c-.11.13-.26.4-.33.49a1.29,1.29,0,0,0-.28.35,2.62,2.62,0,0,1-.38.47c-.07.07-.07.26-.18.38a1.19,1.19,0,0,1-.22.33,1.25,1.25,0,0,0-.16.37c-.1.22-.44.82-.5.95s-.16.31-.25.42a2,2,0,0,0-.22.44m4.16-6.37a1.89,1.89,0,0,0-1.22.45L35.14,8,35,8.14a.38.38,0,0,1-.15.09.37.37,0,0,0-.17.16.8.8,0,0,1-.15.16,2,2,0,0,0-.41.53l-.1.15a1.18,1.18,0,0,1-.08.13l-.07,0a1.87,1.87,0,0,0-.38.55l-.12.18a5,5,0,0,1-.33.44.94.94,0,0,0-.19.31.2.2,0,0,0,0,.08c-.06.1-.13.25-.38.65l-.17.28a2.28,2.28,0,0,0-.24.46,2.54,2.54,0,0,0-.14.25v0a.47.47,0,0,0-.1.18s0,0,0,.06a1.49,1.49,0,0,0-.38.63c-.2.48-.37.84-.49,1.12a3.08,3.08,0,0,0-.33.85,2.55,2.55,0,0,0-.09.4l0,.13a1.27,1.27,0,0,0-.1.59c0,.31.32.78.59.78a.52.52,0,0,0,.43-.3l.08-.13a1.09,1.09,0,0,0,.17-.31c0-.07,0-.09.07-.11a1.11,1.11,0,0,0,.4-.36.93.93,0,0,0,.16-.25,1.38,1.38,0,0,0,.31-.2l.12-.11.39-.33a1.36,1.36,0,0,1,.21-.18.8.8,0,0,0,.25-.27.82.82,0,0,1,.22-.2l.09-.07a1.23,1.23,0,0,0,.3-.26c.08-.08.17-.15.24-.21a1.06,1.06,0,0,0,.24-.23,3,3,0,0,1,.45-.25l-.13.15a1.31,1.31,0,0,0-.18.23,3.68,3.68,0,0,1-.24.4,1.1,1.1,0,0,0-.14.27,2,2,0,0,1-.18.36,1.07,1.07,0,0,0-.2.7.81.81,0,0,0,.24.64l0,.06a.83.83,0,0,0,.69.3.9.9,0,0,0,.55-.15l.1-.05a4,4,0,0,0,.83-.45l.05,0a2.09,2.09,0,0,0,.6-.39l.19-.16.12-.11a.1.1,0,0,0,0,0A.42.42,0,0,0,37.7,15a.35.35,0,0,0-.34-.34.34.34,0,0,0-.25.11l-.07,0a1.68,1.68,0,0,0-.29.25,1.5,1.5,0,0,1-.38.26.4.4,0,0,1-.12.07.86.86,0,0,0-.31.26l-.24.1-.36.16v0a1,1,0,0,1,.18-.55,3,3,0,0,0,.17-.37.28.28,0,0,1,.05-.11.36.36,0,0,0,0-.11.83.83,0,0,0,.11-.15.78.78,0,0,0,.11-.2l.07-.13s0,0,0,0l0-.1a.32.32,0,0,1,.09-.15l0-.05a1,1,0,0,0,.23-.54.75.75,0,0,0-.7-.75,2,2,0,0,0-1,.37l-.23.15-.24.15a.45.45,0,0,0-.24.14.54.54,0,0,1-.16.14,3.75,3.75,0,0,0-.7.6,1.25,1.25,0,0,0-.2.2l0,.05s0,0,0,0a.39.39,0,0,0-.11.09,1.16,1.16,0,0,1-.2.16l-.23.22c-.13.12-.29.28-.41.37a1.42,1.42,0,0,0,0-.16,1.91,1.91,0,0,1,.27-.6,2.2,2.2,0,0,0,.17-.25.28.28,0,0,1,.09-.1,1.64,1.64,0,0,0,.42-.41l0,0a.91.91,0,0,0,.25-.24l.07-.09a2.67,2.67,0,0,0,.28-.41,1.9,1.9,0,0,1,.24-.25h0a2.9,2.9,0,0,0,.57-.63l0-.07a1.43,1.43,0,0,1,.15-.18.73.73,0,0,0,.32-.33.61.61,0,0,0,.19-.2l0,0a1.86,1.86,0,0,0,.35-.42l.19-.23c.15-.2.35-.44.44-.58l.1-.13a.45.45,0,0,1,.13-.14,1.18,1.18,0,0,0,.37-.45,1,1,0,0,0,.08-.22s0-.05,0-.07a.73.73,0,0,0,.2-.27A2,2,0,0,0,37.35,8a.67.67,0,0,0-.74-.65ZM34.17,11a3.5,3.5,0,0,0,.4-.5.73.73,0,0,1,.17-.23l.09-.1L35,9.93a1.81,1.81,0,0,1,.18-.27l.07-.09a2.05,2.05,0,0,0,.23-.4c0-.08,0-.09.12-.17l.06-.06a1.58,1.58,0,0,1,.13-.13A.84.84,0,0,0,36,8.54a.32.32,0,0,1,.12-.15.53.53,0,0,0,.14-.12.85.85,0,0,1,.31-.22,3.14,3.14,0,0,1-.18.44l0,.06c-.08.11-.14.23-.2.33a1.43,1.43,0,0,1-.14.22,1,1,0,0,0-.19.25.73.73,0,0,0-.09.13,1.92,1.92,0,0,1-.2.23,3.71,3.71,0,0,0-.43.57.6.6,0,0,1-.15.2l-.11.1c-.15.19-.41.45-.49.53a.1.1,0,0,0,0,.05c0,.05-.14.17-.24.29l-.26.31a1,1,0,0,0-.15.2l-.08.11h0a.47.47,0,0,0,0-.1,1,1,0,0,1,.13-.3,1.37,1.37,0,0,0,.2-.29l0-.07a.9.9,0,0,0,.13-.28.14.14,0,0,1,0-.06Z"/><path class="cls-2" d="M37.94,17.27a.69.69,0,0,1-.45-.12l-.09,0a1.29,1.29,0,0,1-.19-.13,1,1,0,0,1-.45-.85,3,3,0,0,1,.42-1.27,3.6,3.6,0,0,1,.47-.71,3,3,0,0,0,.36-.41,1.66,1.66,0,0,1,.43-.37l.25-.18a1.45,1.45,0,0,1,.72-.36l.1-.05a1.21,1.21,0,0,1,.7-.13.8.8,0,0,1,.78.89,4.63,4.63,0,0,1-.62,1.78,1.76,1.76,0,0,1-.21.29,2,2,0,0,0-.12.17l.2,0a3.26,3.26,0,0,0,.47-.08l.21-.08.2-.06a4.58,4.58,0,0,0,.51-.37l.4-.3a.85.85,0,0,1,.17-.06.2.2,0,0,1,.18.22.3.3,0,0,1-.19.25l-.11.08a1.46,1.46,0,0,1-.3.22,1.4,1.4,0,0,1-.6.37l-.43.16a1.83,1.83,0,0,1-.31.12l-.26.06a2.07,2.07,0,0,1-.45.07.48.48,0,0,0-.38.2,2.79,2.79,0,0,1-.6.41.48.48,0,0,0-.16.08.73.73,0,0,1-.28.1A.67.67,0,0,1,37.94,17.27Zm2.23-4.16a1.29,1.29,0,0,0-.78.35l-.21.24a2.18,2.18,0,0,1-.3.31.67.67,0,0,0-.19.26l-.07.13a2.55,2.55,0,0,0-.29.38,1.19,1.19,0,0,1-.15.3l-.13.23a1.69,1.69,0,0,0-.22.74c0,.29.05.4.09.44s.14.16.21.16a.45.45,0,0,0,.18-.08.53.53,0,0,1,.24-.11,2.07,2.07,0,0,0,.32-.23l.17-.08c-.09-.08-.14-.14-.14-.23a.79.79,0,0,1,.56-.56.68.68,0,0,1,.19,0h0a1.58,1.58,0,0,0,.26-.44,2.22,2.22,0,0,0,.22-.47,1.16,1.16,0,0,1,.06-.15,1.24,1.24,0,0,0,.11-.58c0-.07,0-.14,0-.21s0-.11,0-.16a.5.5,0,0,1,0-.12C40.29,13.19,40.21,13.11,40.17,13.11Z"/><path class="cls-3" d="M40.21,12.76a.69.69,0,0,1,.65.77,4.54,4.54,0,0,1-.6,1.72c-.11.2-.35.42-.35.51s.08.09.17.09h.16a4.52,4.52,0,0,0,.5-.09c.11-.06.32-.09.43-.15a3.5,3.5,0,0,0,.55-.4l.38-.27a.15.15,0,0,1,.1,0s0,0,0,.09,0,.09-.13.15a3.9,3.9,0,0,1-.4.29,1.33,1.33,0,0,1-.58.36c-.4.13-.48.2-.73.28a5.53,5.53,0,0,1-.68.13.61.61,0,0,0-.47.23,2.5,2.5,0,0,1-.57.39c-.14.05-.27.16-.38.16s-.22.16-.37.16a.57.57,0,0,1-.38-.09,2.09,2.09,0,0,1-.27-.18.89.89,0,0,1-.4-.75,2.77,2.77,0,0,1,.4-1.2,4,4,0,0,1,.45-.7,2.25,2.25,0,0,0,.37-.42,3.78,3.78,0,0,1,.66-.52,1.21,1.21,0,0,1,.67-.33s.07,0,.15-.08a1.06,1.06,0,0,1,.62-.11m-2.08,4c.14,0,.31-.18.43-.2a1.13,1.13,0,0,0,.39-.26c.16-.07.27-.11.27-.16S39,16,39,15.92s.33-.44.44-.44.16,0,.22,0,.2-.22.34-.51a4,4,0,0,0,.28-.62,1.41,1.41,0,0,0,.13-.64c0-.13,0-.26,0-.37a.61.61,0,0,0,0-.14.34.34,0,0,0-.26-.26,1.37,1.37,0,0,0-.86.39,6.88,6.88,0,0,1-.51.54,1.38,1.38,0,0,0-.29.42,1.91,1.91,0,0,0-.29.41,5.15,5.15,0,0,1-.28.51,1.85,1.85,0,0,0-.23.8.8.8,0,0,0,.12.53c.11.13.15.2.3.2m2.08-4.27a1.26,1.26,0,0,0-.77.16l.1.25-.15-.21h0a1.55,1.55,0,0,0-.79.39l-.23.17a1.77,1.77,0,0,0-.47.41,3.11,3.11,0,0,1-.33.38,3.29,3.29,0,0,0-.5.75,2.91,2.91,0,0,0-.43,1.32,1.18,1.18,0,0,0,.52,1l.18.12.08.05a.85.85,0,0,0,.52.13.66.66,0,0,0,.38-.14l0,0a1.25,1.25,0,0,0,.29-.11l.13-.07a2.62,2.62,0,0,0,.67-.45.33.33,0,0,1,.28-.15,2.39,2.39,0,0,0,.48-.08l.25-.06a2.58,2.58,0,0,0,.34-.12l.41-.16a1.71,1.71,0,0,0,.67-.4,2.77,2.77,0,0,0,.29-.21l.08-.07A.43.43,0,0,0,42.5,15a.31.31,0,0,0-.3-.34.39.39,0,0,0-.27.11l-.35.25a.1.1,0,0,0,0,0,3.26,3.26,0,0,1-.43.31l-.06,0-.15,0-.24.08-.32.07a1.43,1.43,0,0,0,.15-.22,4.86,4.86,0,0,0,.63-1.84.92.92,0,0,0-.9-1Zm-2.09,4h0s0,0,0-.06l0,0s-.06-.08-.06-.37a1.64,1.64,0,0,1,.2-.68l.13-.22a1.25,1.25,0,0,0,.17-.35,2.31,2.31,0,0,1,.2-.26l0,0,.1-.16a.52.52,0,0,1,.16-.22,2.34,2.34,0,0,0,.31-.33l.22-.24a1.19,1.19,0,0,1,.68-.31s0,0,0,0a.14.14,0,0,0,0,.07h0s0,0,0,0v.16a1.41,1.41,0,0,0,0,.21,1.28,1.28,0,0,1-.09.51.58.58,0,0,0-.08.18,2.49,2.49,0,0,1-.2.44c-.1.2-.17.31-.2.37l-.15,0a.93.93,0,0,0-.69.69.28.28,0,0,0,.06.18l0,0a1,1,0,0,1-.27.19,1,1,0,0,0-.27.13l-.12.07Z"/><path class="cls-2" d="M42.43,17.14a.85.85,0,0,1-.53-.25l-.12-.1a1.07,1.07,0,0,1-.26-.83A5.93,5.93,0,0,1,42,14.47a6.07,6.07,0,0,1,.33-.53,1.48,1.48,0,0,1,.21-.37c.09-.15.22-.34.38-.63a6.31,6.31,0,0,1,.55-.81l.15-.21c0-.05,0-.1.08-.16a1.44,1.44,0,0,1,.26-.44,6.13,6.13,0,0,0,.54-.72,7.61,7.61,0,0,1,.48-.61l.18-.21a2.09,2.09,0,0,0,.3-.3l.11-.13c.07-.07.31-.32.45-.5a5.16,5.16,0,0,1,.64-.57l.16-.1A.76.76,0,0,0,47.08,8a1.55,1.55,0,0,1,1-.37c.52,0,.59.33.59.53a2.08,2.08,0,0,1-.25.9,2.61,2.61,0,0,1-.3.55L48,9.65l-.14.16a.5.5,0,0,0-.18.27,5.67,5.67,0,0,1-.57.81l-.07.09a.8.8,0,0,0-.26.31l-.08.09a.9.9,0,0,0-.22.25,1.94,1.94,0,0,0-.16.17.6.6,0,0,1-.11.12.55.55,0,0,0-.16.15,1.5,1.5,0,0,1-.19.23,4.16,4.16,0,0,1-.41.42l-.14.13-.13.09c-.09.05-.12.06-.15.15a3.06,3.06,0,0,1-.7.59l-.23.2c-.07.07-.14.13-.19.19a.51.51,0,0,0-.15.14.55.55,0,0,1-.17.13.76.76,0,0,0-.16.13c-.06,0-.12.11-.18.15l-.37.35a5.75,5.75,0,0,0-.23.7,2,2,0,0,0-.06.65c0,.23.11.33.21.33a1.2,1.2,0,0,0,.43-.14c.14-.08.5-.29.66-.41a2,2,0,0,1,.66-.34l.06-.06c0-.07.12-.13.23-.2l.1-.06a1.45,1.45,0,0,0,.44-.31,1.37,1.37,0,0,1,.27-.22l.1-.07.15-.07a.21.21,0,0,1,.21.22.26.26,0,0,1-.12.2l-.18.14a1.2,1.2,0,0,1-.27.21,1.27,1.27,0,0,1-.52.36,3.07,3.07,0,0,1-.28.2l-.36.22-.19.11-.12.06-.21.13-.24.15a3,3,0,0,1-.41.23A2.05,2.05,0,0,1,42.43,17.14Zm5.53-9a1.54,1.54,0,0,0-.54.39l-.17.16a.73.73,0,0,0-.15.16A.36.36,0,0,0,47,9a1.3,1.3,0,0,1-.17.19,2.67,2.67,0,0,0-.31.36l-.22.25-.17.2-.18.22a1.54,1.54,0,0,0-.31.43c0,.06-.08.14-.26.36l-.23.28a5.54,5.54,0,0,0-.54.8c-.06.09-.1.17-.13.22l-.12.17-.18.24A.92.92,0,0,1,44,13a1.73,1.73,0,0,0-.15.2,3.08,3.08,0,0,1-.3.56,1.36,1.36,0,0,1-.1.21l.16-.13a1.57,1.57,0,0,0,.21-.17,1.53,1.53,0,0,1,.16-.13l.11-.11a.9.9,0,0,1,.22-.2,3.07,3.07,0,0,0,.38-.34l.23-.22c.2-.2.5-.48.75-.78a1.75,1.75,0,0,0,.2-.19,2.21,2.21,0,0,1,.25-.27,2.85,2.85,0,0,0,.23-.26l.21-.24a2.09,2.09,0,0,1,.2-.22l.09-.08a2,2,0,0,0,.28-.42l.2-.31a4.57,4.57,0,0,1,.45-.66.27.27,0,0,0,.11-.2.65.65,0,0,1,0-.13A1,1,0,0,1,48,8.61a1.65,1.65,0,0,0,.08-.32C48.06,8.11,48,8.11,48,8.11Z"/><path class="cls-3" d="M48.06,7.71c.32,0,.47.15.47.4a2.06,2.06,0,0,1-.24.84,3.83,3.83,0,0,1-.34.62c-.15.18-.3.26-.35.48a6.61,6.61,0,0,1-.62.85,1.22,1.22,0,0,0-.28.33,1.62,1.62,0,0,0-.29.33c-.12.11-.16.2-.23.26s-.17.18-.37.4a6.63,6.63,0,0,1-.55.54c-.16.11-.23.11-.31.28a4.5,4.5,0,0,1-.73.6c-.12.13-.27.24-.36.35s-.18.2-.28.23a3.53,3.53,0,0,0-.36.3c-.15.12-.38.36-.38.36a4.8,4.8,0,0,0-.28.77,2.41,2.41,0,0,0-.05.67c0,.33.18.46.33.46a1.28,1.28,0,0,0,.49-.16c.13-.08.51-.3.67-.42a2.36,2.36,0,0,1,.59-.32.24.24,0,0,0,.16-.1c0-.1.22-.17.31-.24a1.57,1.57,0,0,0,.46-.33,1.73,1.73,0,0,1,.35-.27s.05,0,.07,0A.09.09,0,0,1,46,15c0,.06-.07.09-.13.15s-.22.2-.38.29a1.3,1.3,0,0,1-.49.35c-.1,0-.13.1-.31.21l-.55.33a3.35,3.35,0,0,0-.35.2,5.63,5.63,0,0,1-.62.37,1.94,1.94,0,0,1-.77.13c-.25,0-.42-.22-.58-.33a1,1,0,0,1-.2-.73,5.6,5.6,0,0,1,.42-1.44,3.87,3.87,0,0,1,.31-.51c.09-.22.27-.42.6-1a9.75,9.75,0,0,1,.7-1A3.75,3.75,0,0,1,44,11.4a6.06,6.06,0,0,0,.55-.73,9.08,9.08,0,0,1,.66-.81,3.6,3.6,0,0,0,.4-.42c.07-.07.31-.33.46-.51a4.45,4.45,0,0,1,.62-.55A1.88,1.88,0,0,0,47.18,8a1.53,1.53,0,0,1,.88-.31M43,14.41a2.66,2.66,0,0,0,.46-.35c.11-.11.25-.2.42-.35a2.73,2.73,0,0,0,.29-.27c0-.07.4-.31.58-.51s.6-.55,1-1c.07,0,.27-.31.44-.45s.31-.38.43-.49a1.77,1.77,0,0,1,.3-.31,3.72,3.72,0,0,0,.31-.46,9.39,9.39,0,0,1,.62-.93c.14-.11.12-.22.18-.38a3.94,3.94,0,0,0,.16-.61c0-.18,0-.31-.22-.31a1.58,1.58,0,0,0-.63.44,2.49,2.49,0,0,0-.33.33c-.13.07-.13.16-.3.31s-.41.51-.52.6-.26.29-.37.44a1.62,1.62,0,0,0-.33.47,6.48,6.48,0,0,1-.47.61,8.59,8.59,0,0,0-.68,1c-.11.14-.18.27-.29.4s-.22.29-.33.49a3.78,3.78,0,0,1-.29.55c-.13.29-.27.47-.42.77m5.06-6.95A1.76,1.76,0,0,0,47,7.85a.86.86,0,0,1-.28.23.94.94,0,0,0-.18.11,4.25,4.25,0,0,0-.66.59c-.14.17-.37.42-.44.49l-.11.12a2.34,2.34,0,0,1-.27.28l0,0a2.25,2.25,0,0,1-.17.21,7.68,7.68,0,0,0-.49.61,6.53,6.53,0,0,1-.53.71,2,2,0,0,0-.29.48.33.33,0,0,1-.06.12,1.43,1.43,0,0,1-.15.22,7.07,7.07,0,0,0-.56.83c-.16.28-.28.48-.38.62a2.54,2.54,0,0,0-.23.41c-.13.18-.2.32-.3.48A6.07,6.07,0,0,0,41.4,16a1.19,1.19,0,0,0,.29.92l.13.1a1,1,0,0,0,.61.29,2.09,2.09,0,0,0,.87-.15,2.92,2.92,0,0,0,.43-.25l.21-.13a1.19,1.19,0,0,1,.23-.13l.12-.07.19-.11.36-.22a1,1,0,0,0,.23-.17,1.88,1.88,0,0,0,.61-.41l.26-.2.09-.08,0,0a.4.4,0,0,0,.2-.32.34.34,0,0,0-.34-.34.48.48,0,0,0-.17,0l-.06,0-.09.07a1.28,1.28,0,0,0-.29.24,1.31,1.31,0,0,1-.37.26l-.05,0-.09.06a.68.68,0,0,0-.28.23,2.71,2.71,0,0,0-.69.37c-.15.11-.52.32-.64.39a1,1,0,0,1-.37.14s-.08-.05-.08-.21a2.3,2.3,0,0,1,0-.6,3.89,3.89,0,0,1,.25-.69l.33-.33a.66.66,0,0,0,.17-.14l.13-.11a.44.44,0,0,0,.21-.16L44,14.2a.18.18,0,0,0,.07,0,1.49,1.49,0,0,1,.18-.17l.17-.16.05,0a2.82,2.82,0,0,0,.72-.62c0-.07,0-.07.11-.11L45.4,13l.18-.16a4.37,4.37,0,0,0,.42-.43l.19-.23a1.33,1.33,0,0,1,.1-.11.53.53,0,0,0,.17-.17l.12-.12,0-.06a1.42,1.42,0,0,1,.2-.22l.06-.06,0-.05a.77.77,0,0,1,.23-.27l.09-.12a6.91,6.91,0,0,0,.59-.82A.48.48,0,0,1,48,9.89l.15-.16.07-.1A5.24,5.24,0,0,0,48.53,9a2.31,2.31,0,0,0,.25-.93.63.63,0,0,0-.72-.65Zm-1.7,2.37.21-.24c.1-.12.21-.26.3-.35A.85.85,0,0,0,47.06,9L47.12,9l.09-.08a.64.64,0,0,1,.12-.13l.17-.16a2.64,2.64,0,0,1,.43-.35v0a1.41,1.41,0,0,1-.07.28,1.52,1.52,0,0,0-.09.28.81.81,0,0,0,0,.11c0,.09,0,.09-.05.12a4.16,4.16,0,0,0-.5.7c-.07.13-.14.23-.17.28a.05.05,0,0,0,0,0,1.53,1.53,0,0,1-.23.33l0,.07-.07.06a2.76,2.76,0,0,0-.21.24,1.6,1.6,0,0,0-.21.23,1.71,1.71,0,0,1-.21.24,3.84,3.84,0,0,0-.27.29c-.06.06-.1.12-.14.15s0,0-.05,0c-.25.29-.55.58-.75.77l-.24.24a4.05,4.05,0,0,1-.36.31,1.29,1.29,0,0,0-.23.21s-.07.07-.1.1l0,0a2.14,2.14,0,0,0,.1-.22l.12-.16a1.31,1.31,0,0,0,.2-.3l.16-.22.11-.16.15-.24a6.27,6.27,0,0,1,.5-.76l.25-.3c.2-.23.27-.32.29-.41a1.62,1.62,0,0,1,.27-.36,1.66,1.66,0,0,1,.19-.23l.18-.22Z"/><path class="cls-2" d="M46.18,16.85a.71.71,0,0,1-.48-.17.44.44,0,0,1-.25-.38.43.43,0,0,0,0-.12.62.62,0,0,1,0-.22,1.72,1.72,0,0,1,.16-.7,4.37,4.37,0,0,1,.27-.44,2,2,0,0,0,.14-.29,3.42,3.42,0,0,1,.16-.33,1.85,1.85,0,0,1,.6-.64l.11-.14a1.85,1.85,0,0,1,.31-.35,1,1,0,0,1,.64-.39c.24,0,.57,0,.57.21a.42.42,0,0,1-.15.31,1.33,1.33,0,0,1-.34.37,2,2,0,0,0-.25.34l-.18.26a2.49,2.49,0,0,1-.31.4.27.27,0,0,0-.06.09,2.91,2.91,0,0,1-.29.51,3.48,3.48,0,0,0-.43,1c0,.12,0,.19.15.19a1.53,1.53,0,0,0,.61-.21l.15-.09c.3-.2.39-.25.46-.25A.65.65,0,0,1,48,15.5a.41.41,0,0,0,.11-.07,1.49,1.49,0,0,0,.44-.3c.2-.21.32-.32.44-.32h.09a.17.17,0,0,1,.18.19.3.3,0,0,1-.19.25,1.87,1.87,0,0,1-.37.3,1.24,1.24,0,0,1-.53.36,1.68,1.68,0,0,1-.29.2,4.11,4.11,0,0,0-.4.24,1.33,1.33,0,0,1-.28.16.82.82,0,0,1-.25.15l-.15.07A1.26,1.26,0,0,1,46.18,16.85Zm2.28-5.06c-.16,0-.46,0-.46-.25a.68.68,0,0,1,.29-.57l.13-.11a.81.81,0,0,1,.37-.24h.12a1.24,1.24,0,0,1,.48.06.33.33,0,0,1,.11.19.78.78,0,0,1-.31.55A1.45,1.45,0,0,1,48.46,11.79Z"/><path class="cls-3" d="M48.82,10.74a1.57,1.57,0,0,1,.51,0,.1.1,0,0,1,0,.08.69.69,0,0,1-.26.45,1.27,1.27,0,0,1-.65.35c-.15,0-.33,0-.33-.13a.55.55,0,0,1,.24-.47,1.47,1.47,0,0,1,.45-.33m-1,2.06c.15,0,.44,0,.44.09a.26.26,0,0,1-.11.22,1.28,1.28,0,0,1-.33.37,3.57,3.57,0,0,0-.45.62c-.3.43-.35.4-.39.53a3.36,3.36,0,0,1-.27.47,3.48,3.48,0,0,0-.46,1,.28.28,0,0,0,.28.31,1.71,1.71,0,0,0,.67-.22,4.25,4.25,0,0,1,.55-.33.15.15,0,0,0,.13-.1c0-.1.23-.17.34-.24a1.57,1.57,0,0,0,.46-.33c0-.05.26-.27.35-.27a.11.11,0,0,1,.09,0s.05,0,.05.09,0,.09-.13.15a2.75,2.75,0,0,1-.36.29,1.3,1.3,0,0,1-.49.35c-.09,0-.13.1-.33.21-.37.19-.49.33-.66.39a2.73,2.73,0,0,1-.42.24,1.1,1.1,0,0,1-.56.1.56.56,0,0,1-.41-.14.38.38,0,0,1-.2-.28c0-.14,0-.18,0-.34a1.47,1.47,0,0,1,.15-.64,2.32,2.32,0,0,1,.25-.42c.11-.18.2-.46.31-.64a1.6,1.6,0,0,1,.53-.58c.11-.06.22-.31.46-.51a1,1,0,0,1,.56-.37m1-2.31h-.06a1,1,0,0,0-.42.26l-.13.11a.79.79,0,0,0-.33.67c0,.38.43.38.58.38a1.58,1.58,0,0,0,.84-.43.92.92,0,0,0,.32-.62.34.34,0,0,0-.11-.25l-.06,0a1.46,1.46,0,0,0-.63-.08Zm-1,2.06A1.26,1.26,0,0,0,47,13a1.6,1.6,0,0,0-.3.35,1.33,1.33,0,0,1-.1.11c-.25.09-.58.61-.61.67a2.85,2.85,0,0,0-.17.35c-.05.1-.09.21-.14.29a2.5,2.5,0,0,0-.27.44,1.81,1.81,0,0,0-.17.75.72.72,0,0,0,0,.25.31.31,0,0,1,0,.09.59.59,0,0,0,.34.5.76.76,0,0,0,.52.17,1.28,1.28,0,0,0,.68-.14l.15-.07a1.64,1.64,0,0,0,.28-.16,1.74,1.74,0,0,0,.26-.15,3.07,3.07,0,0,1,.38-.23,1.54,1.54,0,0,0,.26-.18,1.64,1.64,0,0,0,.6-.41,1.65,1.65,0,0,0,.3-.24l.07-.05a.44.44,0,0,0,.22-.35.31.31,0,0,0-.3-.34.46.46,0,0,0-.2,0,1.18,1.18,0,0,0-.39.31l0,0a1.27,1.27,0,0,1-.36.26l-.15.08a.8.8,0,0,0-.32.26h0a1.83,1.83,0,0,0-.44.26L47,16a1.38,1.38,0,0,1-.54.18s0,0,0-.06a3.9,3.9,0,0,1,.41-.87,2.83,2.83,0,0,0,.3-.53.21.21,0,0,1,0-.07,3.84,3.84,0,0,0,.31-.41l.18-.26a1.74,1.74,0,0,1,.23-.31,2,2,0,0,0,.37-.4.52.52,0,0,0,.16-.38c0-.34-.43-.34-.69-.34Z"/><path class="cls-2" d="M49,18.22a1.24,1.24,0,0,1-.66-.21.83.83,0,0,1-.41-.65.82.82,0,0,1,.5-.64,1.7,1.7,0,0,0,.33-.15,1.07,1.07,0,0,1,.33-.13.79.79,0,0,0,.28-.11c.16-.07.39-.18.79-.33,0,0,0-.1,0-.16a.86.86,0,0,0,0-.26,1.83,1.83,0,0,1,.05-.5,5,5,0,0,0,0-.69,1.09,1.09,0,0,1,0-.22l-.11.11-.14.15a1.22,1.22,0,0,1-.27.2l-.1.09a1.22,1.22,0,0,1-.23.2,1.54,1.54,0,0,1-.32.23.37.37,0,0,1-.22.13c-.07,0-.2-.11-.2-.18s0-.2.23-.31l.6-.5c.25-.2.31-.25.54-.46l.37-.34v-.15A1,1,0,0,1,50.5,13l.07-.11a.8.8,0,0,1,.22-.29,1.76,1.76,0,0,1,.58-.34.87.87,0,0,1,.32-.09l.11,0a.33.33,0,0,1,.2.31.94.94,0,0,1-.23.44.62.62,0,0,0-.18.18l-.1.14a1.75,1.75,0,0,1-.2.19l-.12.1a7.62,7.62,0,0,0,0,1c0,.15,0,.27,0,.37a.66.66,0,0,1,0,.26,1.85,1.85,0,0,0,0,.25.66.66,0,0,1,0,.14l.07,0a.48.48,0,0,0,.16-.08,6.48,6.48,0,0,0,.57-.33.94.94,0,0,0,.23-.16l.14-.12a.67.67,0,0,1,.15-.06.23.23,0,0,1,.19.22.26.26,0,0,1-.12.2h-.2l.09.1a1.4,1.4,0,0,1-.36.24,3.36,3.36,0,0,1-.62.36,2.39,2.39,0,0,1-.43.2l-.1,0s0,.1,0,.18a.86.86,0,0,1-.14.39,4.69,4.69,0,0,1-.55.84.89.89,0,0,1-.23.22.47.47,0,0,0-.13.12A1.38,1.38,0,0,1,49,18.22Zm1-1.68c-.2.07-.47.18-.85.35a.87.87,0,0,0-.44.32.31.31,0,0,0-.07.21.35.35,0,0,0,.19.28.3.3,0,0,0,.21.07c.15,0,.18,0,.37-.14a.76.76,0,0,0,.2-.21.81.81,0,0,1,.13-.15,1.62,1.62,0,0,0,.2-.55Z"/><path class="cls-3" d="M51.69,12.29l.05,0a.19.19,0,0,1,.13.2.93.93,0,0,1-.2.36c-.11.06-.16.19-.27.31s-.2.19-.31.3-.08.09-.08.14c0,.64.06,1,.06,1.28a.53.53,0,0,1,0,.2,4.15,4.15,0,0,0,0,.55l0,.16a.48.48,0,0,0,.14-.09c.06-.05.26-.11.35-.18s.44-.24.57-.33a3.07,3.07,0,0,0,.36-.27.15.15,0,0,1,.08,0,.11.11,0,0,1,.07.09c0,.06-.07.09-.13.15a1.5,1.5,0,0,1-.38.27,5,5,0,0,1-.62.37,4.73,4.73,0,0,1-.53.23,1.47,1.47,0,0,0-.08.28.93.93,0,0,1-.14.4,4.51,4.51,0,0,1-.51.76c-.17.22-.24.19-.37.35a1.25,1.25,0,0,1-.82.29,1,1,0,0,1-.58-.18.75.75,0,0,1-.37-.55c0-.22.22-.42.44-.53s.47-.25.62-.27.33-.16,1.1-.44h0a2.53,2.53,0,0,0,.1-.33,4.07,4.07,0,0,1,0-.67,4.48,4.48,0,0,0,0-.73c0-.17.08-.31.08-.38s0-.08,0-.08-.35.31-.45.4-.11.13-.24.19-.17.18-.35.29a1.48,1.48,0,0,1-.29.22c-.06.05-.15.13-.18.13s-.08,0-.08-.06,0-.13.17-.2l.62-.51c.35-.28.33-.28.91-.8.07-.06,0-.39.09-.53a1.17,1.17,0,0,1,.26-.37,1.93,1.93,0,0,1,.53-.31.81.81,0,0,1,.29-.09M50.1,16.34a7.73,7.73,0,0,0-1.09.44,1,1,0,0,0-.5.36.47.47,0,0,0-.09.28.5.5,0,0,0,.28.4.4.4,0,0,0,.25.07.6.6,0,0,0,.44-.16c.22-.15.22-.26.35-.37s.14-.31.36-1M51.69,12a.9.9,0,0,0-.34.09l-.05,0a2,2,0,0,0-.58.34,1.11,1.11,0,0,0-.26.33l-.06.11a.86.86,0,0,0-.08.41s0,.07,0,.1l-.33.3a4.65,4.65,0,0,1-.53.45l-.62.52a.44.44,0,0,0-.26.39.3.3,0,0,0,.33.31s.14,0,.32-.17a2.34,2.34,0,0,0,.32-.24,1,1,0,0,0,.22-.19.59.59,0,0,1,.08-.08.63.63,0,0,0,.21-.15l.07-.05h0a2.79,2.79,0,0,1,0,.55,2.11,2.11,0,0,0,0,.51,1.28,1.28,0,0,0,0,.18h0l0,.07s0,.06,0,.1a6.21,6.21,0,0,0-.71.3.7.7,0,0,1-.23.09,1.36,1.36,0,0,0-.39.15l-.29.14a.94.94,0,0,0-.61.76,1,1,0,0,0,.49.77,1.42,1.42,0,0,0,.71.21A1.52,1.52,0,0,0,50,18a.47.47,0,0,1,.1-.1,1,1,0,0,0,.27-.26,4.88,4.88,0,0,0,.53-.8l0,0a1.19,1.19,0,0,0,.15-.43l0-.14a2.76,2.76,0,0,0,.44-.2,4.59,4.59,0,0,0,.63-.37,1.39,1.39,0,0,0,.36-.25l0,0,.06-.05a.39.39,0,0,0,.17-.3.35.35,0,0,0-.32-.34.37.37,0,0,0-.25.11s-.07.05-.13.1a1.33,1.33,0,0,1-.16.12l-.05,0c-.11.07-.42.25-.53.3l-.05,0,0,0c0-.07,0-.12,0-.19a.74.74,0,0,0,0-.27c0-.1,0-.23,0-.38s0-.5,0-.87l.11-.1.22-.2.11-.15a.29.29,0,0,1,.08-.1l.09-.07a.93.93,0,0,0,.25-.52.47.47,0,0,0-.27-.43h0a.35.35,0,0,0-.12,0ZM49,17.64a.17.17,0,0,1-.12,0l0,0a.28.28,0,0,1-.11-.17.14.14,0,0,1,0-.11.79.79,0,0,1,.4-.3c.25-.12.45-.2.62-.27a1.62,1.62,0,0,1-.16.45.67.67,0,0,0-.14.16.68.68,0,0,1-.17.17c-.17.12-.17.12-.3.12Z"/><path class="cls-2" d="M52,17.57a1.05,1.05,0,0,1-.75-.85,2.49,2.49,0,0,1,.39-1.2,3,3,0,0,0,.2-.41.88.88,0,0,1,.11-.24,1.72,1.72,0,0,1,.23-.35l.07-.08,0-.13a2.12,2.12,0,0,1,.23-.45l.12-.19a2.84,2.84,0,0,1,.2-.29,7.46,7.46,0,0,1,.51-.72,1.72,1.72,0,0,0,.16-.2,3.81,3.81,0,0,1,.55-.81l.06-.08.22-.25h-.5a2.78,2.78,0,0,1-.56-.11c-.09,0-.32-.11-.32-.33s.21-.5.4-.5a.32.32,0,0,1,.17.09.49.49,0,0,0,.1.09,1.77,1.77,0,0,0,.91.22h.2l.23-.36a3.21,3.21,0,0,1,.19-.31,1.83,1.83,0,0,0,.18-.3,1.69,1.69,0,0,1,.11-.32l0-.1c0-.14.39-.35.63-.35s.33.15.33.28a1.86,1.86,0,0,1-.39,1c-.07.12-.16.23-.23.34l-.13.19c.21,0,.51,0,.66,0a1,1,0,0,1,.19,0,2,2,0,0,0,.28-.06h0a.22.22,0,0,1,.23.13.4.4,0,0,1,0,.19.36.36,0,0,1-.26.16,2.24,2.24,0,0,1-.49.1l-.17,0a5.05,5.05,0,0,1-.8,0l-.13.16a1.22,1.22,0,0,0-.08.17l-.12.23c-.12.16-.57.85-.79,1.24a6,6,0,0,1-.41.58l-.14.18a4.34,4.34,0,0,0-.3.48,1.2,1.2,0,0,0-.28.41,3.09,3.09,0,0,1-.17.29c-.05.1-.09.21-.13.31a1.62,1.62,0,0,1-.23.41.84.84,0,0,0-.13.27l0,.15a1.39,1.39,0,0,0-.18.66c0,.22.07.22.1.22a.45.45,0,0,0,.24-.12.86.86,0,0,1,.23-.13.69.69,0,0,0,.36-.2l.44-.34a4.61,4.61,0,0,1,.77-.57,1.12,1.12,0,0,1,.36-.27l.12-.07a1.42,1.42,0,0,0,.39-.29,1.88,1.88,0,0,1,.44-.31h0a.2.2,0,0,1,.11-.06A.2.2,0,0,1,56,15a.26.26,0,0,1-.12.2,2.07,2.07,0,0,0-.23.18,1.12,1.12,0,0,1-.22.16,1.31,1.31,0,0,1-.53.37,1.71,1.71,0,0,1-.27.2,3,3,0,0,0-.41.28l-.13.1a3.8,3.8,0,0,1-.44.31l-.23.16a.5.5,0,0,1-.23.19.75.75,0,0,0-.14.08l-.3.16-.12.08a1.28,1.28,0,0,1-.51.12Z"/><path class="cls-3" d="M56.14,9.17c.17,0,.2.05.2.15a1.66,1.66,0,0,1-.36.93c-.18.29-.39.53-.49.74h0c.18,0,.64-.07.84-.07a4.8,4.8,0,0,0,.51-.09h0s.06,0,.08.07,0,.13-.18.17a3.11,3.11,0,0,1-.66.12,4.56,4.56,0,0,1-.84.06l-.16.2c-.11.18-.09.2-.22.42s-.57.84-.79,1.24-.42.57-.54.75a3.76,3.76,0,0,0-.31.49c-.24.22-.26.42-.44.7a4.39,4.39,0,0,1-.35.69,1.12,1.12,0,0,0-.2.47,1.55,1.55,0,0,0-.18.7c0,.23.07.34.22.34s.34-.2.51-.25a1,1,0,0,0,.4-.22l.44-.35a5.42,5.42,0,0,1,.74-.55c.06,0,.13,0,.13-.1s.26-.17.37-.24a1.42,1.42,0,0,0,.42-.33,2.35,2.35,0,0,1,.4-.27s0,0,.05,0,.08,0,.08.09-.08.09-.13.15-.24.2-.38.29a1.31,1.31,0,0,1-.5.35c-.05,0-.12.1-.31.21a3.46,3.46,0,0,0-.54.39c-.21.18-.52.34-.68.47s-.18.13-.37.28-.29.16-.4.21a1,1,0,0,1-.45.11H52a1,1,0,0,1-.6-.72,2.4,2.4,0,0,1,.36-1.13c.18-.29.22-.51.31-.65a2.67,2.67,0,0,1,.29-.42,3.61,3.61,0,0,1,.3-.59c.11-.16.22-.36.31-.47a11.22,11.22,0,0,1,.67-.93,6.54,6.54,0,0,1,.6-.88l.41-.46h-.28l-.22,0-.27,0a2.17,2.17,0,0,1-.53-.1c-.11,0-.24-.1-.24-.21s.19-.38.28-.38,0,0,.2.17a2,2,0,0,0,1,.23,1.06,1.06,0,0,1,.26,0l.27-.44c.13-.23.28-.4.39-.62a3.92,3.92,0,0,1,.14-.44.7.7,0,0,1,.51-.25m0-.25a.89.89,0,0,0-.75.43h0l0,.09c0,.1-.08.21-.12.36l-.15.24a3.16,3.16,0,0,0-.21.33l-.18.28h-.13a1.7,1.7,0,0,1-.84-.19l-.07-.06a.29.29,0,0,0-.27-.15c-.28,0-.53.43-.53.63s.14.35.41.44a2.12,2.12,0,0,0,.53.12h.06l.22,0,0,0-.07.08a4.57,4.57,0,0,0-.57.85l-.13.16a7.2,7.2,0,0,0-.54.75,2,2,0,0,0-.18.28l-.12.18a2.23,2.23,0,0,0-.25.48s0,.09-.05.12l0,0a2.27,2.27,0,0,0-.26.4s-.06.12-.1.22a2,2,0,0,1-.19.4,2.68,2.68,0,0,0-.4,1.26,1.17,1.17,0,0,0,.82,1l.16,0a1.31,1.31,0,0,0,.58-.14l.12-.07a1.38,1.38,0,0,1,.25-.13l.06,0a.52.52,0,0,1,.12-.07.7.7,0,0,0,.27-.22l.2-.13a3,3,0,0,0,.46-.34l.11-.08a4,4,0,0,1,.39-.27A1.39,1.39,0,0,0,55,16l0,0a1.61,1.61,0,0,0,.55-.39,1.46,1.46,0,0,0,.21-.16l.13-.1.07,0a.4.4,0,0,0,.2-.32.32.32,0,0,0-.55-.24,2.77,2.77,0,0,0-.4.27s0,0,0,0a1,1,0,0,1-.32.25l-.14.08a.78.78,0,0,0-.33.26h0l0,0a4.42,4.42,0,0,0-.77.56l-.44.34a.52.52,0,0,1-.3.17,1,1,0,0,0-.28.16.7.7,0,0,1-.14.08v-.08a1.33,1.33,0,0,1,.14-.57l0-.05c0-.06,0-.11,0-.15a.72.72,0,0,1,.12-.25,1.34,1.34,0,0,0,.23-.43c0-.09.08-.19.13-.29a2.28,2.28,0,0,0,.17-.3.91.91,0,0,1,.22-.33.18.18,0,0,0,0-.07c.09-.16.17-.27.25-.39l.05-.08.14-.18c.1-.13.23-.29.41-.57A13.39,13.39,0,0,1,55.14,12l.14-.27a1,1,0,0,1,.09-.17l.07-.08a4.81,4.81,0,0,0,.76-.06l.17,0a3.4,3.4,0,0,0,.51-.11.45.45,0,0,0,.33-.22.32.32,0,0,0,0-.27c-.1-.21-.23-.24-.32-.24h-.09a1.26,1.26,0,0,1-.28.05l-.21,0h0l-.33,0,.21-.32a1.91,1.91,0,0,0,.4-1.06c0-.1,0-.4-.45-.4Z"/><path class="cls-2" d="M56.05,16.85a.67.67,0,0,1-.47-.17.45.45,0,0,1-.26-.38.23.23,0,0,0,0-.12,1.06,1.06,0,0,1,0-.22,1.72,1.72,0,0,1,.16-.7,3.08,3.08,0,0,1,.27-.44c0-.07.09-.18.14-.29A2,2,0,0,1,56,14.2a1.83,1.83,0,0,1,.59-.64l.11-.14a2.29,2.29,0,0,1,.31-.35,1,1,0,0,1,.65-.39c.24,0,.56,0,.56.21a.41.41,0,0,1-.14.31,1.44,1.44,0,0,1-.35.37,2.74,2.74,0,0,0-.25.34l-.18.26a2.7,2.7,0,0,1-.3.4.17.17,0,0,0-.06.09,2.91,2.91,0,0,1-.29.51,3.55,3.55,0,0,0-.44,1c0,.12.06.19.15.19A1.63,1.63,0,0,0,57,16.1l.14-.09c.31-.2.39-.25.46-.25a.67.67,0,0,1,.3-.26.41.41,0,0,0,.11-.07,1.33,1.33,0,0,0,.43-.3c.21-.21.33-.32.44-.32H59a.17.17,0,0,1,.18.19.29.29,0,0,1-.19.25,1.84,1.84,0,0,1-.36.3,1.37,1.37,0,0,1-.53.36,1.74,1.74,0,0,1-.3.2l-.4.24a1.58,1.58,0,0,1-.27.16,1,1,0,0,1-.25.15l-.15.07A1.28,1.28,0,0,1,56.05,16.85Zm2.28-5.06c-.16,0-.45,0-.45-.25a.68.68,0,0,1,.29-.57l.13-.11a.81.81,0,0,1,.37-.24h.11a1.21,1.21,0,0,1,.48.06.29.29,0,0,1,.11.19.8.8,0,0,1-.3.55A1.44,1.44,0,0,1,58.33,11.79Z"/><path class="cls-3" d="M58.7,10.74a1.61,1.61,0,0,1,.51,0,.1.1,0,0,1,0,.08.69.69,0,0,1-.26.45,1.34,1.34,0,0,1-.66.35c-.14,0-.33,0-.33-.13a.55.55,0,0,1,.24-.47,1.38,1.38,0,0,1,.46-.33m-1,2.06c.14,0,.44,0,.44.09a.29.29,0,0,1-.11.22,1.68,1.68,0,0,1-.33.37,4.06,4.06,0,0,0-.46.62c-.29.43-.35.4-.38.53a3.7,3.7,0,0,1-.28.47,3.71,3.71,0,0,0-.45,1,.28.28,0,0,0,.27.31,1.81,1.81,0,0,0,.68-.22,5.25,5.25,0,0,1,.54-.33.14.14,0,0,0,.13-.1c.06-.1.24-.17.35-.24a1.57,1.57,0,0,0,.46-.33c0-.05.25-.27.34-.27a.15.15,0,0,1,.09,0s.06,0,.06.09,0,.09-.13.15a2.75,2.75,0,0,1-.36.29,1.31,1.31,0,0,1-.5.35c-.09,0-.13.1-.33.21-.36.19-.49.33-.65.39a3.31,3.31,0,0,1-.42.24,1.16,1.16,0,0,1-.57.1.55.55,0,0,1-.4-.14.35.35,0,0,1-.2-.28c0-.14-.06-.18-.06-.34a1.63,1.63,0,0,1,.15-.64,2.4,2.4,0,0,1,.26-.42c.11-.18.2-.46.31-.64a1.52,1.52,0,0,1,.53-.58c.11-.06.21-.31.45-.51a1,1,0,0,1,.57-.37m1-2.31h-.06a.93.93,0,0,0-.42.26l-.14.11a.82.82,0,0,0-.33.67c0,.38.44.38.58.38a1.57,1.57,0,0,0,.85-.43.92.92,0,0,0,.32-.62.35.35,0,0,0-.12-.26l-.06,0a1.42,1.42,0,0,0-.62-.08Zm-1,2.06a1.2,1.2,0,0,0-.75.45,1.66,1.66,0,0,0-.31.35.59.59,0,0,1-.09.11c-.25.09-.58.61-.62.67s-.11.23-.17.35a2,2,0,0,1-.14.29,2.38,2.38,0,0,0-.26.44,1.79,1.79,0,0,0-.18.75,1.08,1.08,0,0,0,0,.25.37.37,0,0,1,0,.09.59.59,0,0,0,.34.5.71.71,0,0,0,.51.17,1.32,1.32,0,0,0,.69-.14l.14-.07a1.33,1.33,0,0,0,.28-.16,1.74,1.74,0,0,0,.26-.15,3.36,3.36,0,0,1,.39-.23,1.36,1.36,0,0,0,.25-.18,1.58,1.58,0,0,0,.61-.41,2.85,2.85,0,0,0,.3-.24l.06-.05a.42.42,0,0,0,.23-.35.32.32,0,0,0-.31-.34.45.45,0,0,0-.19,0,1.2,1.2,0,0,0-.4.31l0,0a1.31,1.31,0,0,1-.37.26l-.14.08a.74.74,0,0,0-.32.26h0a1.65,1.65,0,0,0-.44.25l-.16.1a1.38,1.38,0,0,1-.54.18s0,0,0-.06a3.5,3.5,0,0,1,.41-.87,2.83,2.83,0,0,0,.3-.53l0-.07a2.59,2.59,0,0,0,.32-.41l.18-.26a1.74,1.74,0,0,1,.23-.31,1.63,1.63,0,0,0,.36-.4.52.52,0,0,0,.17-.38c0-.34-.44-.34-.69-.34Z"/><path class="cls-2" d="M59.17,16.94a.78.78,0,0,1-.33-.12.35.35,0,0,1-.12-.07l-.15-.1a.84.84,0,0,1-.25-.71,2,2,0,0,1,.31-1l.1-.21a2,2,0,0,1,.27-.46,5.08,5.08,0,0,1,.88-.95A1.15,1.15,0,0,1,60.4,13c.05,0,.08-.07.17-.14a1.32,1.32,0,0,1,.78-.27.59.59,0,0,1,.58.49,1.16,1.16,0,0,1-.25.68.39.39,0,0,1-.33.23.32.32,0,0,1-.28-.29c0-.1.09-.2.29-.35a.42.42,0,0,0,.12-.23.23.23,0,0,0-.11,0,.53.53,0,0,0-.31.13.37.37,0,0,0-.13.11.75.75,0,0,1-.18.14l-.12.1a1.13,1.13,0,0,0-.19.18.74.74,0,0,1-.18.25l-.2.25a2.5,2.5,0,0,1-.16.24,1.06,1.06,0,0,0-.2.35l0,.12a1,1,0,0,1-.16.37.2.2,0,0,0,0,.1v.1c0,.06,0,.13,0,.21a2.21,2.21,0,0,0-.05.29c0,.26.06.29.2.29a2.8,2.8,0,0,0,.87-.26.85.85,0,0,1,.3-.1l.24-.12.19-.09a.43.43,0,0,1,.21-.08.72.72,0,0,1,.3-.2.46.46,0,0,0,.17-.09,1.2,1.2,0,0,1,.24-.15.62.62,0,0,0,.19-.13,2.54,2.54,0,0,1,.36-.28c.1-.06.14-.09.2-.09A.21.21,0,0,1,63,15a.36.36,0,0,1-.18.27l-.1.07a3,3,0,0,1-.34.21l-.11.08c-.22.16-.36.26-.47.26a1.37,1.37,0,0,1-.3.19.5.5,0,0,0-.17.11,1,1,0,0,1-.36.17l-.19.08c-.24.1-.67.29-1,.39A2.45,2.45,0,0,1,59.17,16.94Z"/><path class="cls-3" d="M61.35,12.75c.2,0,.45.18.45.36a1,1,0,0,1-.22.6c-.09.15-.18.19-.23.19a.2.2,0,0,1-.15-.17c0-.05.09-.14.24-.25a.51.51,0,0,0,.16-.33.19.19,0,0,0-.18-.19.81.81,0,0,0-.44.21c-.13.07-.15.14-.29.23s-.33.24-.37.35-.22.26-.36.47a3.25,3.25,0,0,0-.39.62,1.06,1.06,0,0,1-.18.46c0,.09,0,.11,0,.26a5,5,0,0,0-.09.51c0,.25,0,.42.32.42a5.4,5.4,0,0,0,1.17-.37c.06,0,.17-.09.28-.13s.31-.16.36-.16a.29.29,0,0,0,.17-.09c0-.07.27-.13.38-.22s.36-.18.46-.31a1.78,1.78,0,0,1,.36-.27s.06,0,.09,0a.08.08,0,0,1,.07.09c0,.06,0,.11-.12.17a3.91,3.91,0,0,1-.42.27,1.91,1.91,0,0,1-.53.33c-.08,0-.15.11-.35.2a.62.62,0,0,0-.22.14,1.38,1.38,0,0,1-.36.15c-.13.05-.73.33-1.08.46a2.58,2.58,0,0,1-.66.11,1.18,1.18,0,0,1-.29-.11c-.07,0-.07-.06-.24-.17s-.2-.29-.2-.6a1.77,1.77,0,0,1,.3-.93,2.88,2.88,0,0,1,.36-.66A4.82,4.82,0,0,1,60,13.4a1,1,0,0,1,.45-.25c.13,0,0,0,.22-.17a1.27,1.27,0,0,1,.7-.23m0-.25a1.41,1.41,0,0,0-.86.3l-.13.11a1.35,1.35,0,0,0-.54.3,4.85,4.85,0,0,0-.94,1,1.65,1.65,0,0,0-.26.45,2.21,2.21,0,0,1-.11.21,2.1,2.1,0,0,0-.32,1,.91.91,0,0,0,.29.79l.16.12.13.08a1,1,0,0,0,.4.14,2.75,2.75,0,0,0,.74-.13c.29-.1.72-.3,1-.4l.14-.06h0a1.59,1.59,0,0,0,.36-.16.17.17,0,0,0,.06-.06l.1-.05a1,1,0,0,0,.29-.18l0,0a1.29,1.29,0,0,0,.5-.28l.12-.09a2,2,0,0,0,.32-.2l.09-.07a.47.47,0,0,0,.24-.37.33.33,0,0,0-.32-.34.56.56,0,0,0-.19,0l-.08.05a2.93,2.93,0,0,0-.36.28.68.68,0,0,1-.18.13,2.92,2.92,0,0,0-.27.17s-.09.05-.13.07a.68.68,0,0,0-.28.18.65.65,0,0,0-.24.1l-.16.07-.21.1,0,0a1.68,1.68,0,0,0-.31.1,2.69,2.69,0,0,1-.82.26h-.06a.79.79,0,0,1,0-.16s0-.18,0-.27a1,1,0,0,0,0-.21c0-.05,0-.09,0-.12a1.45,1.45,0,0,0,.18-.44l0-.12A.94.94,0,0,1,60,14.6a2.07,2.07,0,0,0,.17-.24,1.55,1.55,0,0,1,.19-.23,1,1,0,0,0,.2-.3,1.28,1.28,0,0,1,.15-.12l.14-.12a.61.61,0,0,0,.17-.14l.08-.07.19-.12,0,0c-.19.15-.31.28-.31.44a.44.44,0,0,0,.4.42.53.53,0,0,0,.44-.3,1.21,1.21,0,0,0,.26-.74.71.71,0,0,0-.7-.61Z"/><path class="cls-2" d="M66,17.43a.77.77,0,0,1-.8-.83,3.4,3.4,0,0,1,.51-1.5,1.41,1.41,0,0,1,.28-.42s.07-.07.11-.13a1.49,1.49,0,0,0,.23-.39,2.82,2.82,0,0,1,.22-.42,2.34,2.34,0,0,1,.57-.57l.08-.07a5,5,0,0,1,.44-.32l.11-.08a2.43,2.43,0,0,1,.57-.24h.11a.27.27,0,0,1,.29.25c0,.12-.11.17-.22.21l-.13.07a1,1,0,0,0-.18.21,1.83,1.83,0,0,1-.18.24l-.16.21c-.13.17-.21.28-.3.42s-.12.18-.17.25a.93.93,0,0,0-.15.24.48.48,0,0,1-.17.21.17.17,0,0,0-.1.14,1.4,1.4,0,0,1-.18.42,3.08,3.08,0,0,0-.17.36l-.09.21a2.26,2.26,0,0,0-.23.7c0,.15,0,.15.09.15a.72.72,0,0,0,.3-.12,1,1,0,0,1,.21-.1,1,1,0,0,0,.39-.29s.18-.18.35-.34a6.46,6.46,0,0,0,.79-.78.91.91,0,0,1,0-.31.48.48,0,0,1,.23-.49.7.7,0,0,0,.2-.12.69.69,0,0,1,.2-.13.51.51,0,0,1,.21-.06.3.3,0,0,1,.25.14.58.58,0,0,1,.06.26c0,.06,0,.13,0,.24l0,.33a5.71,5.71,0,0,0,.06.63l0,.2a.45.45,0,0,0,.41.41c.21,0,.34,0,.43-.14a1.39,1.39,0,0,1,.15-.19.74.74,0,0,0,.21-.31l.06-.2a4,4,0,0,0,.12-.6,2.82,2.82,0,0,0-.13-.72,1.89,1.89,0,0,0-.1-.31,1.47,1.47,0,0,1-.1-.44c0-.29.39-.54.58-.54s.33.5.34.71l0,.1a1.65,1.65,0,0,1,.07.46,1.49,1.49,0,0,1,0,.28c0,.28-.07.44-.11.62l0,.17a1.5,1.5,0,0,1-.29.66l-.09.14a1.47,1.47,0,0,1-.13.17.59.59,0,0,0-.14.19,1.15,1.15,0,0,1-.78.45,2.49,2.49,0,0,1-.5.06.73.73,0,0,1-.39-.09,1.37,1.37,0,0,1-.66-.64.78.78,0,0,1-.07-.25h0c-.06,0-.21.13-.3.22l-.08.08-.13.12a.63.63,0,0,1-.22.16s0,0-.06.07a1.54,1.54,0,0,1-.31.34A2.31,2.31,0,0,1,66,17.43Z"/><path class="cls-3" d="M68.45,12.58c.12,0,.16.07.16.13s-.09.07-.27.16-.17.19-.41.5-.34.43-.47.64a3.3,3.3,0,0,0-.33.51c-.07.18-.22.12-.27.36s-.22.44-.35.77a3.37,3.37,0,0,0-.33,1c0,.23.09.27.22.27a1.86,1.86,0,0,0,.55-.22c.15,0,.27-.16.44-.33a11.69,11.69,0,0,0,1.17-1.16,2.84,2.84,0,0,1,0-.35c0-.2,0-.29.16-.39s.24-.18.39-.23a.32.32,0,0,1,.16-.06.2.2,0,0,1,.15.09.75.75,0,0,1,0,.19c0,.11,0,.25,0,.56a5.45,5.45,0,0,0,.09.86.56.56,0,0,0,.53.51.61.61,0,0,0,.53-.18c.11-.18.27-.26.38-.53a5,5,0,0,0,.18-.84A3,3,0,0,0,71,14a4.18,4.18,0,0,1-.2-.71c0-.22.33-.42.46-.42s.2.37.22.6a2,2,0,0,1,.09.55,1.23,1.23,0,0,1,0,.26c-.05.36-.09.51-.14.78,0,0,0,.06,0,.09a2.06,2.06,0,0,1-.35.68,2.81,2.81,0,0,0-.27.36,1,1,0,0,1-.68.39,3.38,3.38,0,0,1-.49,0,.67.67,0,0,1-.33-.07,1.23,1.23,0,0,1-.6-.59c-.09-.16-.06-.38-.17-.38s-.32.22-.51.38-.16.21-.31.26-.09.16-.4.44a2.2,2.2,0,0,1-1.22.62.65.65,0,0,1-.68-.71,3.23,3.23,0,0,1,.5-1.43,1.79,1.79,0,0,1,.38-.54c.18-.21.26-.52.46-.83a2.45,2.45,0,0,1,.62-.6c.16-.14.42-.31.54-.4a2.81,2.81,0,0,1,.53-.22h.08m0-.25H68.3a2.6,2.6,0,0,0-.59.25l-.12.08c-.14.1-.32.23-.46.35l-.07.05a2.71,2.71,0,0,0-.59.59,3.8,3.8,0,0,0-.23.44,1.49,1.49,0,0,1-.21.36l-.11.14a1.41,1.41,0,0,0-.31.47,3.44,3.44,0,0,0-.52,1.53.9.9,0,0,0,.93,1,2.38,2.38,0,0,0,1.38-.68,1.69,1.69,0,0,0,.33-.37l0,0A.53.53,0,0,0,68,16.3a1.33,1.33,0,0,1,.12-.12l.09-.08.14-.13a.47.47,0,0,0,.06.15,1.43,1.43,0,0,0,.74.69.71.71,0,0,0,.41.09,3.15,3.15,0,0,0,.54-.06,1.26,1.26,0,0,0,.82-.46l0-.05a.52.52,0,0,1,.12-.16,1.56,1.56,0,0,0,.14-.19l.09-.14a1.61,1.61,0,0,0,.3-.63,1.23,1.23,0,0,0,0-.13l0-.11c0-.19.08-.34.12-.64a1.42,1.42,0,0,0,0-.29,2,2,0,0,0-.07-.5l0-.1c0-.34-.13-.8-.46-.8s-.71.29-.71.67a1.36,1.36,0,0,0,.12.48l.09.29a3.17,3.17,0,0,1,.12.71,2.82,2.82,0,0,1-.11.55l-.06.23a.76.76,0,0,1-.18.23,2.31,2.31,0,0,0-.18.23s-.11.06-.31.06-.25-.12-.29-.3l0-.19a4.11,4.11,0,0,1-.06-.63,2.54,2.54,0,0,1,0-.31c0-.11,0-.19,0-.25a.7.7,0,0,0-.06-.3.45.45,0,0,0-.37-.23A.57.57,0,0,0,69,14a.69.69,0,0,0-.22.14.34.34,0,0,1-.13.09l-.06,0a.61.61,0,0,0-.28.6,1.07,1.07,0,0,0,0,.29c-.13.15-.53.52-.74.71s-.32.3-.36.35a1,1,0,0,1-.31.25l-.25.11-.21.1v0a2.22,2.22,0,0,1,.23-.65l.08-.21c.06-.14.12-.25.17-.35a2,2,0,0,0,.19-.45s0,0,.05-.07a.53.53,0,0,0,.21-.26,1.54,1.54,0,0,1,.14-.22c0-.07.12-.16.18-.26a4.75,4.75,0,0,1,.29-.4l.16-.21a2.71,2.71,0,0,0,.18-.25.72.72,0,0,1,.18-.2h0l.09,0c.11,0,.28-.13.28-.33a.38.38,0,0,0-.41-.38Z"/><path class="cls-2" d="M73.65,16.61a2,2,0,0,1-.78-.14l-.17-.06a1.4,1.4,0,0,1-.65-1.2,2.23,2.23,0,0,1,.34-1.27.54.54,0,0,0,.12-.18,1.23,1.23,0,0,1,.22-.36,2.41,2.41,0,0,1,.46-.45.34.34,0,0,1,.14-.08s.06,0,.18-.14a1.21,1.21,0,0,1,.83-.31.82.82,0,0,1,.73.69.54.54,0,0,1-.19.44,1.49,1.49,0,0,0-.29.32l-.17.18a1.06,1.06,0,0,0-.15.15.55.55,0,0,1-.19.12.84.84,0,0,1-.33.27l-.1.06a.24.24,0,0,1-.11.09c-.05,0-.07,0-.09.08a.52.52,0,0,1-.24.2c-.06.3-.06.49.06.62a.61.61,0,0,0,.38.21l.1,0a1.26,1.26,0,0,0,.41,0,2,2,0,0,0,.74-.2l.12-.05a.84.84,0,0,0,.22-.1.84.84,0,0,1,.3-.14,1.54,1.54,0,0,0,.44-.3,2.55,2.55,0,0,1,.35-.27c.08-.06.12-.09.18-.09a.21.21,0,0,1,.2.22.28.28,0,0,1-.09.18l-.09.08a.63.63,0,0,0-.15.11,1,1,0,0,1-.22.18,1.57,1.57,0,0,1-.55.36,5.08,5.08,0,0,1-.78.43A2.56,2.56,0,0,1,73.65,16.61ZM74.47,13a.51.51,0,0,0-.3.12.71.71,0,0,0-.25.22l-.06.08a2.51,2.51,0,0,0-.63.84,1.16,1.16,0,0,0-.07.24.81.81,0,0,0,.14-.12l.11-.1a1,1,0,0,1,.21-.17.66.66,0,0,0,.21-.15l.19-.17a1,1,0,0,0,.25-.32l.09-.11a.39.39,0,0,0,.13-.29Z"/><path class="cls-3" d="M74.34,12.55a.69.69,0,0,1,.6.56c0,.2,0,.24-.2.4a1.11,1.11,0,0,0-.25.29c-.11.13-.2.19-.31.31s-.18.08-.22.15-.29.22-.38.29-.19.09-.24.22S73,14.94,73,15c0,.33,0,.55.14.71a.77.77,0,0,0,.48.26,1.62,1.62,0,0,0,.51.07,2.65,2.65,0,0,0,.89-.26.85.85,0,0,0,.26-.12,1.71,1.71,0,0,1,.35-.15,1.52,1.52,0,0,0,.42-.31,2.11,2.11,0,0,1,.36-.27s0,0,.07,0a.09.09,0,0,1,.08.09c0,.06-.08.09-.11.15s-.22.2-.39.29a1.39,1.39,0,0,1-.51.35,8.59,8.59,0,0,1-.8.43,2.47,2.47,0,0,1-1.13.28,2.22,2.22,0,0,1-.91-.2,1.29,1.29,0,0,1-.57-1.08A2.19,2.19,0,0,1,72.48,14c.2-.22.07-.2.35-.54a1.56,1.56,0,0,1,.44-.42c.12-.13.09,0,.32-.24a1.1,1.1,0,0,1,.75-.27m-1.29,2.17.07,0a1,1,0,0,0,.27-.22,2.1,2.1,0,0,1,.3-.24A1.4,1.4,0,0,0,74,14a1.54,1.54,0,0,0,.37-.44c.13-.17.24-.24.24-.46s-.06-.2-.15-.2a.81.81,0,0,0-.44.18,1.12,1.12,0,0,0-.27.3,2.57,2.57,0,0,0-.64.85,1,1,0,0,0-.09.42c0,.06,0,.08,0,.08m1.29-2.42a1.31,1.31,0,0,0-.91.33l-.13.12a.45.45,0,0,0-.21.13,1.84,1.84,0,0,0-.45.44,1.44,1.44,0,0,0-.25.39.4.4,0,0,1-.09.14,2.38,2.38,0,0,0-.38,1.36,1.49,1.49,0,0,0,.71,1.3l.2.07a1.91,1.91,0,0,0,.82.16,2.79,2.79,0,0,0,1.24-.3,6.07,6.07,0,0,0,.74-.4l0,0a1.54,1.54,0,0,0,.57-.38,1.15,1.15,0,0,0,.23-.18.59.59,0,0,1,.11-.08.31.31,0,0,0,.11-.09.41.41,0,0,0,.15-.29.34.34,0,0,0-.33-.34.53.53,0,0,0-.2.07l0,0a2.93,2.93,0,0,0-.36.28,1.22,1.22,0,0,1-.36.27h0a1.42,1.42,0,0,0-.35.16.76.76,0,0,1-.18.09h0l-.11,0a2,2,0,0,1-.7.2,1,1,0,0,1-.37,0l-.09,0h0a.63.63,0,0,1-.28-.16c-.08-.09-.09-.22-.09-.44a.6.6,0,0,0,.28-.25l0,0,.15-.11.06,0a.94.94,0,0,0,.34-.27.69.69,0,0,0,.21-.14l.14-.15a1.41,1.41,0,0,0,.18-.17,1,1,0,0,1,.23-.27l.06-.07a.65.65,0,0,0,.22-.52.93.93,0,0,0-.85-.81Zm-.85,1.77a2.19,2.19,0,0,1,.43-.51l0,0,.06-.09a.67.67,0,0,1,.17-.16l0,0,.12-.07a.38.38,0,0,1-.09.13l-.08.1a1,1,0,0,1-.25.32l-.09.09-.09.08a.55.55,0,0,1-.18.13l-.08.05Z"/><path class="cls-2" d="M76,17.11a.55.55,0,0,1-.47-.51,1.88,1.88,0,0,1,.14-.51c0-.12.08-.24.1-.32.12-.25.26-.59.33-.77a2.07,2.07,0,0,1,.18-.42c.1-.21.27-.54.52-1.12l.22-.51a4,4,0,0,1,.36-.73.79.79,0,0,0,.18-.3.27.27,0,0,1,.08-.21.76.76,0,0,0,.07-.13,1,1,0,0,1,.15-.3,1.47,1.47,0,0,0,.16-.27,4.9,4.9,0,0,1,.52-.81l.2-.29a2.34,2.34,0,0,1,.29-.37.93.93,0,0,0,.17-.19,1.63,1.63,0,0,1,.23-.22l.2-.28c.07-.1.14-.2.2-.27a1.48,1.48,0,0,1,.39-.37c.09,0,.13-.05.18-.13a.84.84,0,0,1,.2-.19.41.41,0,0,0,.12-.11,1.63,1.63,0,0,1,.94-.32.58.58,0,0,1,.62.65,1.37,1.37,0,0,1-.19.67,3.78,3.78,0,0,1-.46.86c-.11.15-.21.32-.32.48l-.15.23a1.79,1.79,0,0,1-.22.24,2.18,2.18,0,0,0-.29.34,2.65,2.65,0,0,1-.42.53l-.12.13a4.27,4.27,0,0,1-.33.37,2.15,2.15,0,0,0-.26.32,14,14,0,0,1-1.13,1.2,1.12,1.12,0,0,0-.17.19l-.11.13c-.06.08-.25.27-.4.42a1.41,1.41,0,0,1-.17.18.77.77,0,0,0-.22.26,4.56,4.56,0,0,1-.36.69h0a3.62,3.62,0,0,0,.29-.28,4.84,4.84,0,0,1,.32-.38l.1-.11A2.8,2.8,0,0,1,78,14.3a3,3,0,0,0,.28-.24c.23-.23.39-.36.52-.36a.68.68,0,0,1,.28-.23.66.66,0,0,0,.24-.14l.08-.06a2.18,2.18,0,0,1,1-.45.69.69,0,0,1,.65.73,1.9,1.9,0,0,1-.24.81l-.07.13c-.09.17-.2.37-.35.43a.42.42,0,0,0-.08.13,1.44,1.44,0,0,1-.24.34,1.41,1.41,0,0,1-.17.18l.19,0a1.05,1.05,0,0,0,.43-.08.66.66,0,0,1,.25-.06.18.18,0,0,0,.16-.05l.09-.06.13,0a.7.7,0,0,0,.28-.15l.41-.27.14-.06a.21.21,0,0,1,.2.2.23.23,0,0,1-.07.14,2.17,2.17,0,0,1-.8.53l-.15,0-.33.1a3.11,3.11,0,0,1-.49.16A3,3,0,0,0,80,16l-.35.06a2,2,0,0,0-.41,0c-.07,0-.14,0-.29.17a1.37,1.37,0,0,1-.33.18l-.25.13a1.31,1.31,0,0,1-.74.25.82.82,0,0,1-.38-.18.29.29,0,0,1-.11-.24.37.37,0,0,1,.19-.32,1.24,1.24,0,0,1,.52-.22c.14,0,.52-.09.72-.11a1.19,1.19,0,0,0,.41-.08,2.42,2.42,0,0,0,.15-.27,1.49,1.49,0,0,1,.18-.3.9.9,0,0,0,.11-.22,1.05,1.05,0,0,1,.16-.32l.11-.15a1.22,1.22,0,0,0,.18-.34c0-.09,0-.16.07-.23a1,1,0,0,0,.07-.28.35.35,0,0,0,0-.12,2.09,2.09,0,0,0-.78.44,3.25,3.25,0,0,1-.28.23l-.2.16a.9.9,0,0,1-.23.18l-.09.07c-.1.1-.52.49-.67.6a5.24,5.24,0,0,0-.44.5,1.72,1.72,0,0,0-.2.22L77,16l-.08.08a1.25,1.25,0,0,0-.32.46C76.39,17,76.18,17.11,76,17.11ZM81.7,8c-.17,0-.46.29-.57.4a.8.8,0,0,0-.2.24l-.06.09c0,.06-.09.11-.13.16a2.74,2.74,0,0,0-.31.39,5.24,5.24,0,0,1-.55.87A5.16,5.16,0,0,0,79,11.42a3.6,3.6,0,0,1-.34.52l-.13.18a3.06,3.06,0,0,0-.23.57l-.12.16a1.25,1.25,0,0,0-.25.38c0,.07-.06.15-.1.25A1,1,0,0,1,78,13.3c.07,0,.08,0,.18-.22l.06-.11a.84.84,0,0,1,.26-.21l.1-.07a.83.83,0,0,0,.13-.14A2.16,2.16,0,0,1,79,12.3l.2-.24a3.46,3.46,0,0,1,.23-.26,8.3,8.3,0,0,0,.74-.89,1.33,1.33,0,0,1,.14-.19l.19-.25a3.52,3.52,0,0,1,.31-.39.69.69,0,0,0,.22-.26,3.09,3.09,0,0,1,.25-.42l.15-.24a2.41,2.41,0,0,0,.42-.92C81.88,8,81.84,8,81.7,8Z"/><path class="cls-3" d="M81.7,7.58c.38,0,.49.26.49.53a1.26,1.26,0,0,1-.16.6,4.47,4.47,0,0,1-.46.86c-.16.22-.33.49-.47.71a6.94,6.94,0,0,0-.52.59,2.89,2.89,0,0,1-.52.63c-.26.33-.5.52-.61.72s-1,1.11-1.07,1.15-.24.27-.31.34-.26.28-.41.42-.32.28-.41.48a6.37,6.37,0,0,1-.39.73,1.22,1.22,0,0,0-.07.2,0,0,0,0,0,0,.05.2.2,0,0,0,.11,0,4.08,4.08,0,0,0,.44-.4c.17-.22.29-.35.42-.5s.38-.31.58-.51.33-.33.44-.33a1.65,1.65,0,0,1,.33-.23,1.17,1.17,0,0,0,.35-.22,2,2,0,0,1,.95-.42.56.56,0,0,1,.53.6,1.77,1.77,0,0,1-.26.8c-.09.17-.2.4-.33.46s-.14.27-.36.49a2.87,2.87,0,0,1-.53.46s.45-.08.65-.09a2.8,2.8,0,0,0,.68-.15c.18,0,.16,0,.31-.13l.06,0a.72.72,0,0,0,.36-.18l.4-.25.07,0a.09.09,0,0,1,.08.07s0,0,0,.06a2.29,2.29,0,0,1-.75.49c-.14,0-.22.09-.47.15a4.6,4.6,0,0,1-.49.16c-.17,0-.5.11-.7.13a2.2,2.2,0,0,0-.42,0c-.09,0-.2,0-.36.22a5.94,5.94,0,0,0-.57.29,1.26,1.26,0,0,1-.66.22.65.65,0,0,1-.29-.15.18.18,0,0,1-.07-.15.25.25,0,0,1,.13-.21A1.12,1.12,0,0,1,77.9,16c.15,0,.51-.09.71-.11a1.12,1.12,0,0,0,.44-.09c.17-.12.24-.43.38-.6s.13-.35.28-.55a1.79,1.79,0,0,0,.31-.53,2.52,2.52,0,0,0,.14-.54c0-.17,0-.24-.18-.24a2.19,2.19,0,0,0-.82.47c-.2.19-.31.24-.47.39s-.24.16-.33.25-.51.48-.66.59a3.47,3.47,0,0,0-.45.53,2.31,2.31,0,0,0-.33.36,1.4,1.4,0,0,0-.42.57c-.17.34-.33.49-.46.49a.43.43,0,0,1-.35-.38,6.7,6.7,0,0,1,.24-.81c.11-.22.26-.56.33-.74s.2-.41.69-1.54a13.35,13.35,0,0,1,.57-1.22.71.71,0,0,0,.2-.35c0-.14.09-.14.15-.33a4.3,4.3,0,0,1,.31-.54,5.92,5.92,0,0,1,.58-.92,5.22,5.22,0,0,1,.4-.52c.17-.15.22-.28.38-.41s.3-.42.42-.56a1.4,1.4,0,0,1,.37-.35.35.35,0,0,0,.22-.16c.11-.15.22-.17.31-.29a1.49,1.49,0,0,1,.84-.28m-4.31,6.53a1.08,1.08,0,0,0,.33-.34,4.44,4.44,0,0,1,.38-.37c.11,0,.13-.09.28-.34s.22-.17.34-.28.17-.2.39-.38.32-.4.43-.51a9.73,9.73,0,0,0,.9-1.1,7.42,7.42,0,0,1,.49-.62,1.15,1.15,0,0,0,.28-.34,4.18,4.18,0,0,1,.36-.61,2.46,2.46,0,0,0,.44-1c0-.24,0-.4-.31-.4s-.46.23-.66.44a1,1,0,0,0-.27.34,5.37,5.37,0,0,0-.44.55,4.77,4.77,0,0,1-.55.86,6,6,0,0,0-.89,1.33,4.6,4.6,0,0,1-.46.69,3.71,3.71,0,0,0-.25.6,2.12,2.12,0,0,0-.37.55c-.07.22-.38.79-.42.91M81.7,7.33a1.71,1.71,0,0,0-1,.33l0,0-.09.08a.82.82,0,0,0-.22.21c0,.05,0,.06-.07.06l-.06,0a1.51,1.51,0,0,0-.46.43,1.76,1.76,0,0,0-.19.26,3.4,3.4,0,0,1-.21.28,1,1,0,0,0-.21.21L79,9.44a2.07,2.07,0,0,0-.32.4l-.12.16-.09.12A5.63,5.63,0,0,0,78,11a2.75,2.75,0,0,1-.15.24,1,1,0,0,0-.17.33.93.93,0,0,1,0,.1.4.4,0,0,0-.11.3h0a.91.91,0,0,1-.14.19,4.2,4.2,0,0,0-.38.77l-.22.51c-.25.57-.42.9-.52,1.12A1.78,1.78,0,0,0,76,15c-.05.13-.2.47-.3.68a.19.19,0,0,0,0,.07c0,.08-.06.19-.1.3a1.69,1.69,0,0,0-.15.55.67.67,0,0,0,.6.63c.25,0,.48-.21.68-.64a1.08,1.08,0,0,1,.3-.42l.07-.07a.88.88,0,0,0,.14-.17c.06-.06.1-.11.18-.18a5.15,5.15,0,0,1,.45-.53c.16-.12.58-.51.68-.6s0,0,.07,0a1.18,1.18,0,0,0,.25-.21l.18-.14a2.2,2.2,0,0,0,.29-.23,2.42,2.42,0,0,1,.58-.38,1.36,1.36,0,0,1-.06.2c0,.07,0,.15-.07.24a.92.92,0,0,1-.16.29,1.25,1.25,0,0,0-.12.17,1.34,1.34,0,0,0-.17.34.67.67,0,0,1-.09.19,1,1,0,0,0-.19.32,1.28,1.28,0,0,1-.13.21.74.74,0,0,1-.31.06,7.36,7.36,0,0,0-.77.12,1.3,1.3,0,0,0-.56.25.48.48,0,0,0-.23.41.39.39,0,0,0,.18.35.75.75,0,0,0,.43.2,1.44,1.44,0,0,0,.81-.27.82.82,0,0,1,.23-.12c.1-.05.22-.1.32-.16l.06-.06c.11-.12.15-.12.17-.12a1.94,1.94,0,0,1,.36,0h.06a2.66,2.66,0,0,0,.39-.07,1.64,1.64,0,0,1,.31-.06h.06a4.67,4.67,0,0,0,.51-.16l.32-.1.13-.05a2.48,2.48,0,0,0,.89-.58.31.31,0,0,0,.09-.21.33.33,0,0,0-.33-.32.42.42,0,0,0-.22.08l-.38.25a.61.61,0,0,1-.3.15h0l0,0-.07,0-.11.07s0,0-.07,0a1,1,0,0,0-.3.07.89.89,0,0,1-.26.07,1.56,1.56,0,0,0,.2-.3.36.36,0,0,1,0-.09c.16-.06.28-.28.38-.47l0-.08,0-.06a1.86,1.86,0,0,0,.26-.86.81.81,0,0,0-.78-.85,2.33,2.33,0,0,0-1.12.48l-.07.05a.61.61,0,0,1-.18.12,1.69,1.69,0,0,0-.37.24,1.55,1.55,0,0,0-.5.38,2.76,2.76,0,0,1-.27.23l0,0,.34-.36a.84.84,0,0,0,.1-.12l.13-.16a12.72,12.72,0,0,0,1.19-1.26,1.23,1.23,0,0,1,.23-.28,4.75,4.75,0,0,0,.34-.39l.11-.11a2.84,2.84,0,0,0,.43-.55,2.44,2.44,0,0,1,.28-.32,1.94,1.94,0,0,0,.23-.25c0-.08.11-.16.16-.25s.2-.32.31-.46a5.17,5.17,0,0,0,.49-.9,1.5,1.5,0,0,0,.18-.71.7.7,0,0,0-.74-.78Zm-3.27,5.35a2.78,2.78,0,0,1,.22-.51l.11-.15a3.08,3.08,0,0,0,.35-.55A5.67,5.67,0,0,1,80,10.19a5.2,5.2,0,0,0,.58-.9,2,2,0,0,1,.28-.35L81,8.77,81,8.66a.68.68,0,0,1,.18-.2c.33-.33.45-.37.49-.37h.06s0,0,0,.15a2.55,2.55,0,0,1-.4.85l-.16.25a2.26,2.26,0,0,0-.22.38l0,0c0,.07,0,.1-.19.23a2.78,2.78,0,0,0-.33.4c-.06.08-.11.16-.18.24a2.12,2.12,0,0,0-.15.21,8.62,8.62,0,0,1-.74.88l-.23.26-.21.25a1.79,1.79,0,0,0-.24.24l-.12.12-.08.06,0,0Z"/><path class="cls-2" d="M85.28,17.23c-.46,0-.66-.56-.66-.85a2.71,2.71,0,0,1,.15-.73,2.3,2.3,0,0,1,.28-.54.85.85,0,0,0,.17-.28,3.6,3.6,0,0,1,.74-.94,3,3,0,0,1,.85-.57,1.14,1.14,0,0,0,.37-.17,1.2,1.2,0,0,1,.73-.16.62.62,0,0,1,.46.18l.07.1c0-.1,0-.19.06-.29a1.49,1.49,0,0,1,.13-.49,5.88,5.88,0,0,1,.25-.77,3.11,3.11,0,0,1,.27-.55,3.13,3.13,0,0,0,.19-.36,2.07,2.07,0,0,0,.09-.24,1.8,1.8,0,0,1,.24-.52l.12-.19c.07-.11.14-.22.21-.31l.08-.09a.93.93,0,0,0,.18-.26,1.41,1.41,0,0,1,.42-.53l.1-.1A1.39,1.39,0,0,0,91,8.33c.09-.25.3-.4.6-.6a1.44,1.44,0,0,1,.9-.29c.29,0,.46.25.46.67a1.18,1.18,0,0,1-.17.52,1,1,0,0,0-.07.17,4.47,4.47,0,0,1-.22.43c0,.09-.11.18-.14.25A3.5,3.5,0,0,0,92,10a2.45,2.45,0,0,1-.31.43.61.61,0,0,0-.11.18,2.07,2.07,0,0,1-.15.28l-.14.24a1.5,1.5,0,0,1-.29.43.29.29,0,0,0-.11.16,2.51,2.51,0,0,1-.36.54,2.51,2.51,0,0,0-.21.28,2.11,2.11,0,0,1-.25.27l-.13.14a1.12,1.12,0,0,1-.18.14.64.64,0,0,1-.16.29,2.23,2.23,0,0,0-.2.24.57.57,0,0,0-.17.38.56.56,0,0,1-.06.21l0,.12a.3.3,0,0,0,0,.12,1,1,0,0,0,0,.19.84.84,0,0,1,0,.19.46.46,0,0,0,0,.14,1.54,1.54,0,0,1,0,.47,1.37,1.37,0,0,0,.19.53c.07.17.12.17.23.17A.88.88,0,0,0,90,16l.09-.06c.21-.13.24-.14.28-.14s.15-.18.26-.24l.11-.07a1.57,1.57,0,0,0,.45-.32,2.06,2.06,0,0,1,.35-.27c.1-.06.13-.09.18-.09a.23.23,0,0,1,.22.22.24.24,0,0,1-.13.2l-.23.18a1.46,1.46,0,0,1-.21.16,1.43,1.43,0,0,1-.5.36c-.06,0-.08,0-.14.09l-.16.12a1.41,1.41,0,0,0-.3.22,1.13,1.13,0,0,1-.48.24,1,1,0,0,1-.44.13.87.87,0,0,1-.52-.1c-.07-.13-.11-.15-.16-.17a.48.48,0,0,1-.16-.19,1.09,1.09,0,0,1-.1-.17,1.75,1.75,0,0,1-.28-1l-.1.09-.14.2c-.05.07-.1.15-.16.22s-.12.1-.18.15a.8.8,0,0,0-.21.2.57.57,0,0,1-.2.21l-.13.1-.16.15a1.49,1.49,0,0,0-.18.17l-.1.08-.33.29A1.67,1.67,0,0,1,85.28,17.23Zm2.53-3.74a1.18,1.18,0,0,0-.87.32,2.72,2.72,0,0,0-.41.51.6.6,0,0,1-.21.23s0,0,0,.13a.88.88,0,0,1,0,.15c0,.08,0,.11-.07.14a.68.68,0,0,1-.13.21.55.55,0,0,0,0,.13.26.26,0,0,1,0,.15.68.68,0,0,0-.06.16c0,.09-.08.2-.13.3a2,2,0,0,0-.14.64.29.29,0,0,0,0,.14,1.14,1.14,0,0,0,.33-.2,1.78,1.78,0,0,0,.34-.2l.28-.27.54-.51.19-.21.15-.17a3.49,3.49,0,0,0,.46-.5.74.74,0,0,1,.24-.24.38.38,0,0,0,.06-.16.76.76,0,0,1,.06-.18h0c-.2,0-.2-.2-.2-.35A.26.26,0,0,0,87.81,13.49ZM92.45,8c-.11,0-.13,0-.35.24a1,1,0,0,0-.22.23l-.11.15a.38.38,0,0,1-.23.17s0,0-.07.09l0,.09-.09.18a3,3,0,0,1-.18.38L91,9.66c-.07.07-.07.07-.09.13s-.09.16-.14.24a1.07,1.07,0,0,1-.09.19,1.09,1.09,0,0,0,0,.14,1.41,1.41,0,0,1-.19.42,1.55,1.55,0,0,0-.2.41,2,2,0,0,1-.1.26,1.45,1.45,0,0,0-.08.21,1.25,1.25,0,0,1-.13.33.58.58,0,0,0-.1.22.52.52,0,0,1-.06.19,1.76,1.76,0,0,0-.09.2l.15-.13a.89.89,0,0,0,.25-.31.75.75,0,0,1,.19-.23l.08-.09a11.78,11.78,0,0,0,.68-1,1.05,1.05,0,0,1,.08-.13.71.71,0,0,1,.11-.17.57.57,0,0,0,.09-.16,1.31,1.31,0,0,1,.25-.38c.08-.1.31-.46.34-.52A.92.92,0,0,0,92,9.23l.11-.2a.7.7,0,0,1,.19-.35.44.44,0,0,0,.15-.27.94.94,0,0,0,.05-.3C92.51,8,92.48,8,92.45,8Z"/><path class="cls-3" d="M92.5,7.56c.28,0,.33.33.33.55s-.2.51-.23.66-.26.47-.35.65a2.66,2.66,0,0,0-.33.5,2.52,2.52,0,0,1-.29.4c-.11.11-.11.2-.28.47a3.16,3.16,0,0,1-.4.64c-.14.13-.12.17-.18.29s-.42.55-.53.72a4.48,4.48,0,0,1-.36.4c-.15.14-.22.11-.22.22s-.09.14-.33.45-.17.48-.24.6,0,0,0,.06a1.11,1.11,0,0,0,0,.25,1.17,1.17,0,0,0,0,.21c0,.12,0,.16,0,.31a1.58,1.58,0,0,1,0,.47,1.43,1.43,0,0,0,.2.58.31.31,0,0,0,.34.24,1,1,0,0,0,.46-.16,2.92,2.92,0,0,1,.31-.19.14.14,0,0,0,.13-.1c0-.1.25-.17.33-.24a1.41,1.41,0,0,0,.45-.33,2.17,2.17,0,0,1,.37-.27s.05,0,.07,0a.1.1,0,0,1,.09.09c0,.06-.07.09-.13.15s-.23.2-.38.29a1.6,1.6,0,0,1-.47.35c-.11,0-.17.1-.33.21s-.13.08-.31.24a1.45,1.45,0,0,1-.4.2,1.07,1.07,0,0,1-.44.13.81.81,0,0,1-.44-.07.36.36,0,0,0-.22-.2c0-.06-.07-.13-.18-.3a1.37,1.37,0,0,1-.24-.63,1.44,1.44,0,0,1,0-.35c0-.07,0-.13,0-.13s-.15.06-.26.17-.2.29-.31.42a2.66,2.66,0,0,0-.4.36c0,.13-.18.16-.31.29s-.25.22-.35.33-.18.13-.42.37a1.61,1.61,0,0,1-.85.29c-.37,0-.53-.49-.53-.73a2.63,2.63,0,0,1,.14-.7,2.46,2.46,0,0,1,.26-.49,1.05,1.05,0,0,0,.18-.31A3.45,3.45,0,0,1,86,14a3,3,0,0,1,.81-.55,1.44,1.44,0,0,0,.4-.18,1,1,0,0,1,.66-.15.56.56,0,0,1,.41.18c0,.08.08.24.17.24s0,0,.05-.18.08-.55.2-.8.1-.37.26-.79a7.58,7.58,0,0,1,.46-.89,3.49,3.49,0,0,1,.31-.73c.11-.17.22-.37.33-.51a1.41,1.41,0,0,0,.27-.37,1.37,1.37,0,0,1,.38-.49,2.56,2.56,0,0,0,.35-.37c.09-.23.25-.36.56-.56a1.39,1.39,0,0,1,.84-.28m-3.15,5.57a3.17,3.17,0,0,0,.29-.33,1.13,1.13,0,0,1,.29-.25,1.57,1.57,0,0,0,.24-.33c.07-.15.22-.22.27-.31a13.06,13.06,0,0,0,.75-1.17c.09-.17.15-.18.22-.35a1.11,1.11,0,0,1,.22-.34A5.07,5.07,0,0,0,92,9.5a3.45,3.45,0,0,0,.24-.4.71.71,0,0,1,.16-.33.51.51,0,0,0,.19-.33,1.14,1.14,0,0,0,0-.33c0-.16,0-.27-.18-.27s-.22,0-.44.27a1.09,1.09,0,0,0-.27.31c-.09.09-.11.18-.22.2s-.11.09-.2.24-.11.29-.28.56-.23.21-.27.33a4.23,4.23,0,0,0-.22.4,2.34,2.34,0,0,1-.24.57,4.1,4.1,0,0,0-.31.68,3.52,3.52,0,0,1-.2.52c-.12.19-.09.28-.16.42a4,4,0,0,0-.18.44,1,1,0,0,0-.11.35m-3.74,3.69A.9.9,0,0,0,86,16.6a3.44,3.44,0,0,0,.34-.2c.28-.26.37-.37.82-.79.15-.14.24-.27.35-.38a4.19,4.19,0,0,0,.47-.51c.13-.2.22-.2.26-.26s.07-.31.13-.38a.3.3,0,0,0,0-.15s0-.07,0-.07-.08.07-.17.07-.07-.07-.07-.22a.4.4,0,0,0-.37-.34,1.31,1.31,0,0,0-1,.34c-.4.39-.47.66-.6.73s-.09.2-.14.35a1.53,1.53,0,0,1-.19.31c-.09.16-.05.2-.11.29s-.1.29-.2.48a2.25,2.25,0,0,0-.14.69c0,.22,0,.26.13.26M92.5,7.31a1.66,1.66,0,0,0-1,.32,1.43,1.43,0,0,0-.64.65,1.28,1.28,0,0,1-.18.2l-.12.11a1.51,1.51,0,0,0-.43.56,1,1,0,0,1-.16.22l-.09.1a2.7,2.7,0,0,0-.22.33l-.12.2a1.55,1.55,0,0,0-.24.53,1.85,1.85,0,0,1-.09.23,3.72,3.72,0,0,1-.19.34,3.19,3.19,0,0,0-.28.59,5.79,5.79,0,0,0-.24.72l0,.07a1.78,1.78,0,0,0-.13.48v0a.74.74,0,0,0-.46-.15,1.29,1.29,0,0,0-.79.18,1,1,0,0,1-.3.15h0a3.33,3.33,0,0,0-.9.61,3.58,3.58,0,0,0-.76,1A1,1,0,0,1,85,15a2,2,0,0,0-.29.55,2.85,2.85,0,0,0-.16.79c0,.34.23,1,.78,1a1.85,1.85,0,0,0,1-.33l0,0a2.54,2.54,0,0,1,.32-.28.49.49,0,0,0,.1-.08,1.41,1.41,0,0,1,.18-.17l.17-.16.11-.09a.63.63,0,0,0,.25-.28.71.71,0,0,1,.17-.13l.18-.16A1.88,1.88,0,0,0,88,15.4l0,0a.13.13,0,0,0,0,.06,1.57,1.57,0,0,0,.3.75l.07.12a.62.62,0,0,0,.11.17l.11.07a.12.12,0,0,1,.07.07.24.24,0,0,0,.06.08,1,1,0,0,0,.6.13,1.14,1.14,0,0,0,.49-.13h0a1.36,1.36,0,0,0,.48-.24l.25-.21a.11.11,0,0,0,.07,0l.17-.13.06-.05a1.65,1.65,0,0,0,.59-.4,1.56,1.56,0,0,0,.2-.16l.14-.1.06,0A.4.4,0,0,0,92,15a.34.34,0,0,0-.34-.34.48.48,0,0,0-.17,0l-.08.05a2.93,2.93,0,0,0-.36.28,1.24,1.24,0,0,1-.37.27l-.09.06-.08,0a.64.64,0,0,0-.29.25L90,15.8l-.09,0a.74.74,0,0,1-.33.13h-.07a.22.22,0,0,1,0-.08,1.57,1.57,0,0,1-.18-.49,1.91,1.91,0,0,0,0-.5s0-.06,0-.09a.84.84,0,0,0,0-.19,1.24,1.24,0,0,1,0-.21.51.51,0,0,1,0-.09.3.3,0,0,0,0-.1s0,0,0,0a.91.91,0,0,0,0-.21.52.52,0,0,1,.13-.31c.1-.13.17-.2.21-.25a.68.68,0,0,0,.18-.29l.15-.13.14-.14a1.87,1.87,0,0,0,.26-.3l.21-.27a2.79,2.79,0,0,0,.34-.48.36.36,0,0,0,0-.09c0-.05,0-.06.08-.11a1.72,1.72,0,0,0,.31-.46c0-.08.09-.16.14-.24a2,2,0,0,0,.15-.29.42.42,0,0,1,.08-.13,3.23,3.23,0,0,0,.34-.46,2.2,2.2,0,0,1,.3-.45l0-.05.14-.25c.09-.17.18-.33.22-.43a1,1,0,0,1,.07-.18,1.32,1.32,0,0,0,.18-.57c0-.59-.3-.8-.58-.8Zm-.89,1.55a.51.51,0,0,0,.26-.2l0-.06L92,8.5a.74.74,0,0,1,.19-.2,1.29,1.29,0,0,1,.2-.19h0a.73.73,0,0,1,0,.25.6.6,0,0,1-.08.2l0,0A1,1,0,0,0,92,9l-.1.18a1.94,1.94,0,0,1-.1.17l0,.05a4.69,4.69,0,0,1-.33.49,1.38,1.38,0,0,0-.26.41l-.08.14a1.22,1.22,0,0,0-.13.19l-.07.12a11.48,11.48,0,0,1-.66,1,.46.46,0,0,1-.07.07l-.08.07c0-.07,0-.14.07-.2l.07-.21a1.56,1.56,0,0,0,.11-.26,1.49,1.49,0,0,1,.17-.36,1.78,1.78,0,0,0,.22-.48s0-.09,0-.13l.09-.17a.57.57,0,0,1,.1-.18.36.36,0,0,0,0-.09s0,0,0-.07l.16-.15a.1.1,0,0,0,0,0,2.23,2.23,0,0,0,.19-.39L91.52,9l.06-.1,0,0ZM85.73,16.5a1.9,1.9,0,0,1,.12-.53,2,2,0,0,0,.13-.31l.07-.16a.82.82,0,0,0,.06-.16.27.27,0,0,1,0-.12.67.67,0,0,0,.13-.2.88.88,0,0,1,0-.1s0,0,0,0a1.54,1.54,0,0,0,.05-.17.15.15,0,0,1,0-.08.64.64,0,0,0,.21-.24,2.73,2.73,0,0,1,.41-.5,1,1,0,0,1,.77-.27c.06,0,.11.08.12.1s0,.35.18.43l0,.06s0,.07,0,.1a.74.74,0,0,0-.27.27,3,3,0,0,1-.38.41l-.06.06-.16.18-.18.2-.54.51-.28.27a1.5,1.5,0,0,1-.25.15l-.07,0-.15.1Z"/><path class="cls-2" d="M92.87,16.61a2,2,0,0,1-.78-.14l-.17-.06a1.4,1.4,0,0,1-.65-1.2,2.23,2.23,0,0,1,.34-1.27.54.54,0,0,0,.12-.18A1.23,1.23,0,0,1,92,13.4a2.19,2.19,0,0,1,.47-.45.25.25,0,0,1,.14-.08.57.57,0,0,0,.17-.14,1.22,1.22,0,0,1,.83-.31.82.82,0,0,1,.73.69.54.54,0,0,1-.19.44,1.17,1.17,0,0,0-.28.32c-.07.08-.13.13-.18.18a1,1,0,0,0-.14.15.57.57,0,0,1-.2.12.72.72,0,0,1-.33.27l-.09.06a.34.34,0,0,1-.12.09c-.05,0-.07,0-.08.08a.52.52,0,0,1-.24.2c-.06.3-.06.49,0,.62a.67.67,0,0,0,.38.21l.1,0a1.31,1.31,0,0,0,.41,0,2.16,2.16,0,0,0,.75-.2l.12-.05a1,1,0,0,0,.21-.1.84.84,0,0,1,.3-.14,1.41,1.41,0,0,0,.44-.3,3.34,3.34,0,0,1,.35-.27c.08-.06.12-.09.19-.09a.2.2,0,0,1,.19.22.24.24,0,0,1-.09.18l-.09.08a.63.63,0,0,0-.15.11,1,1,0,0,1-.22.18,1.57,1.57,0,0,1-.55.36,5.08,5.08,0,0,1-.78.43A2.56,2.56,0,0,1,92.87,16.61ZM93.69,13a.51.51,0,0,0-.3.12.82.82,0,0,0-.25.22l-.06.08a2.51,2.51,0,0,0-.63.84,1.16,1.16,0,0,0-.07.24.81.81,0,0,0,.14-.12l.11-.1a.84.84,0,0,1,.22-.17,1,1,0,0,0,.21-.15l.18-.17a1,1,0,0,0,.25-.32l.09-.11a.39.39,0,0,0,.13-.29Z"/><path class="cls-3" d="M93.56,12.55a.7.7,0,0,1,.61.56c0,.2-.06.24-.2.4a1,1,0,0,0-.26.29c-.11.13-.2.19-.31.31s-.18.08-.22.15-.29.22-.38.29-.18.09-.24.22-.31.17-.31.24c0,.33,0,.55.15.71a.73.73,0,0,0,.47.26,1.62,1.62,0,0,0,.51.07,2.81,2.81,0,0,0,.9-.26.93.93,0,0,0,.25-.12,1.71,1.71,0,0,1,.35-.15,1.52,1.52,0,0,0,.42-.31,2.11,2.11,0,0,1,.36-.27s0,0,.08,0a.09.09,0,0,1,.07.09c0,.06-.07.09-.11.15s-.22.2-.38.29a1.48,1.48,0,0,1-.51.35c-.08,0-.17.14-.81.43a2.44,2.44,0,0,1-1.13.28,2.22,2.22,0,0,1-.91-.2,1.29,1.29,0,0,1-.57-1.08A2.19,2.19,0,0,1,91.7,14c.2-.22.08-.2.35-.54a1.71,1.71,0,0,1,.44-.42c.13-.13.09,0,.33-.24a1.06,1.06,0,0,1,.74-.27m-1.29,2.17a.11.11,0,0,0,.07,0,1.27,1.27,0,0,0,.28-.22,1.61,1.61,0,0,1,.29-.24,1.69,1.69,0,0,0,.33-.25,1.66,1.66,0,0,0,.36-.44c.13-.17.24-.24.24-.46s-.06-.2-.15-.2a.84.84,0,0,0-.44.18,1.12,1.12,0,0,0-.27.3,2.71,2.71,0,0,0-.64.85,1,1,0,0,0-.09.42c0,.06,0,.08,0,.08m1.29-2.42a1.33,1.33,0,0,0-.91.33l-.13.12a.45.45,0,0,0-.21.13,2,2,0,0,0-.45.44,1.44,1.44,0,0,0-.25.39.4.4,0,0,1-.09.14,2.38,2.38,0,0,0-.38,1.36,1.49,1.49,0,0,0,.71,1.3l.2.07a2,2,0,0,0,.82.16,2.75,2.75,0,0,0,1.24-.3,6.07,6.07,0,0,0,.74-.4l.05,0a1.62,1.62,0,0,0,.57-.38,1.42,1.42,0,0,0,.22-.18.59.59,0,0,1,.11-.08.31.31,0,0,0,.11-.09.41.41,0,0,0,.15-.29.33.33,0,0,0-.32-.34.43.43,0,0,0-.2.07l-.05,0a3,3,0,0,0-.37.28,1.31,1.31,0,0,1-.35.27h0a1.2,1.2,0,0,0-.34.16,1.51,1.51,0,0,1-.18.09h0l-.12,0a2,2,0,0,1-.7.2,1,1,0,0,1-.37,0l-.09,0h0a.69.69,0,0,1-.28-.16.7.7,0,0,1-.09-.44.56.56,0,0,0,.28-.25l0,0a.63.63,0,0,0,.15-.11l.06,0a.94.94,0,0,0,.34-.27.69.69,0,0,0,.21-.14l.14-.15A1.41,1.41,0,0,0,93.9,14a1,1,0,0,1,.23-.27l.07-.07a.68.68,0,0,0,.22-.52.94.94,0,0,0-.86-.81Zm-.85,1.77a2.19,2.19,0,0,1,.43-.51l0,0,.07-.09a.48.48,0,0,1,.16-.16l0,0,.11-.07a.51.51,0,0,1-.08.13l-.09.1a.87.87,0,0,1-.25.32l-.09.09-.09.08a.64.64,0,0,1-.17.13l-.09.05Z"/><path class="cls-2" d="M95.34,16.89a.58.58,0,0,1-.55-.46,2.47,2.47,0,0,1,.34-.75,3,3,0,0,0,.18-.34,2.43,2.43,0,0,0,.33-.61L96,14l.09-.16a3.44,3.44,0,0,0,.28-.6,1.46,1.46,0,0,0,.13-.43.28.28,0,0,0,0-.1l-.06-.08a.47.47,0,0,1-.06-.15.19.19,0,0,1,.18-.18.43.43,0,0,1,.31.1,1.28,1.28,0,0,1,.45.9,1.36,1.36,0,0,1-.19.7,2.67,2.67,0,0,1-.27.47l-.1.18a3.26,3.26,0,0,1-.31.62l-.1.15a2.53,2.53,0,0,0-.23.36A2.18,2.18,0,0,1,96,16a.56.56,0,0,0-.09.19l.22-.16a3.34,3.34,0,0,1,.52-.33,1.78,1.78,0,0,0,.58-.44l.56-.58a4.37,4.37,0,0,0,.59-.69l.25-.43.08-.15a1.28,1.28,0,0,0,.2-.5,1.34,1.34,0,0,0,.05-.42c0-.42.06-.63.18-.72a.79.79,0,0,1,.37-.16c.16,0,.34.14.34.79a2.49,2.49,0,0,1-.46,1c-.06.09-.12.17-.16.24a1.91,1.91,0,0,1-.49.67l-.17.15a.54.54,0,0,0-.17.2,2.22,2.22,0,0,1-.3.31l-.13.12a8.82,8.82,0,0,1-.9.77l-.29.22a1.3,1.3,0,0,1-.39.28.88.88,0,0,0-.23.14A2.08,2.08,0,0,1,95.34,16.89Z"/><path class="cls-3" d="M99.48,11.78c.14,0,.22.27.22.66s-.44.93-.6,1.22a2,2,0,0,1-.48.64c-.18.18-.27.22-.36.38a3.16,3.16,0,0,1-.41.4,13.36,13.36,0,0,1-1.18,1c-.22.23-.44.25-.62.42a2,2,0,0,1-.71.27c-.2,0-.42-.2-.42-.33a8.12,8.12,0,0,1,.51-1,2.74,2.74,0,0,0,.33-.62l.36-.73a4,4,0,0,0,.38-.78,1.3,1.3,0,0,0,.13-.46c0-.16,0-.15,0-.18s-.1-.11-.1-.15a.06.06,0,0,1,.06-.05.36.36,0,0,1,.24.07,1.12,1.12,0,0,1,.4.8,1.24,1.24,0,0,1-.18.64c-.22.46-.28.46-.37.66a3.3,3.3,0,0,1-.35.67c-.14.21-.16.22-.29.44a4.6,4.6,0,0,0-.25.5.76.76,0,0,0-.06.18.06.06,0,0,0,.06.05.06.06,0,0,0,0,0c.16-.07.62-.45.86-.56a1.72,1.72,0,0,0,.62-.46l.56-.58a4.67,4.67,0,0,0,.61-.71c.14-.24.23-.42.33-.59A1.37,1.37,0,0,0,99,13a1.44,1.44,0,0,0,.06-.45c0-.42,0-.57.13-.62a.65.65,0,0,1,.29-.13m0-.25a.91.91,0,0,0-.44.17c-.17.13-.23.36-.23.83a1.35,1.35,0,0,1,0,.38,1.23,1.23,0,0,1-.17.45l-.1.18c-.07.12-.14.26-.25.43a3.93,3.93,0,0,1-.56.66l-.57.59a1.71,1.71,0,0,1-.53.4,1.47,1.47,0,0,0-.35.21v0c.09-.15.12-.19.21-.32l.06-.07,0-.09a4.41,4.41,0,0,0,.33-.65,1,1,0,0,1,.08-.14,3.19,3.19,0,0,0,.27-.49,1.48,1.48,0,0,0,.21-.75,1.36,1.36,0,0,0-.5-1,.56.56,0,0,0-.39-.13.32.32,0,0,0-.31.3.35.35,0,0,0,.09.22l0,.06v.05a.91.91,0,0,1-.08.29l0,.08a3.18,3.18,0,0,1-.28.6l-.09.15-.37.74a2.57,2.57,0,0,1-.27.53l0,.07c-.06.1-.12.23-.2.36-.27.5-.35.67-.35.81a.69.69,0,0,0,.67.58,2.24,2.24,0,0,0,.84-.31.9.9,0,0,1,.23-.15,1.23,1.23,0,0,0,.44-.31l.26-.2a8.93,8.93,0,0,0,.92-.78l.13-.11a2.26,2.26,0,0,0,.29-.32.7.7,0,0,1,.18-.2l.17-.16a2,2,0,0,0,.52-.7l.14-.23a2.35,2.35,0,0,0,.49-1.1c0-.75-.26-.91-.47-.91Z"/><path class="cls-2" d="M100.72,16.61a2,2,0,0,1-.78-.14l-.17-.06a1.4,1.4,0,0,1-.65-1.2,2.23,2.23,0,0,1,.34-1.27.54.54,0,0,0,.12-.18,1.23,1.23,0,0,1,.22-.36,2.19,2.19,0,0,1,.47-.45.27.27,0,0,1,.13-.08s.06,0,.18-.14a1.22,1.22,0,0,1,.83-.31.82.82,0,0,1,.73.69.54.54,0,0,1-.19.44,1.17,1.17,0,0,0-.28.32l-.18.18-.15.15a.47.47,0,0,1-.19.12.72.72,0,0,1-.33.27l-.09.06a.34.34,0,0,1-.12.09s-.07,0-.09.08-.15.15-.23.2c-.06.3-.06.49,0,.62a.61.61,0,0,0,.38.21l.1,0a1.31,1.31,0,0,0,.41,0,2.16,2.16,0,0,0,.75-.2l.12-.05a1,1,0,0,0,.21-.1.84.84,0,0,1,.3-.14,1.41,1.41,0,0,0,.44-.3,2.55,2.55,0,0,1,.35-.27c.08-.06.12-.09.19-.09a.21.21,0,0,1,.19.22.24.24,0,0,1-.09.18l-.09.08a.63.63,0,0,0-.15.11,1,1,0,0,1-.22.18,1.57,1.57,0,0,1-.55.36,5.08,5.08,0,0,1-.78.43A2.56,2.56,0,0,1,100.72,16.61Zm.82-3.59a.51.51,0,0,0-.3.12.71.71,0,0,0-.25.22l-.06.08a2.51,2.51,0,0,0-.63.84,1.16,1.16,0,0,0-.07.24.81.81,0,0,0,.14-.12l.11-.1a1,1,0,0,1,.21-.17.86.86,0,0,0,.22-.15l.18-.17a1,1,0,0,0,.25-.32l.09-.11a.39.39,0,0,0,.13-.29Z"/><path class="cls-3" d="M101.41,12.55a.7.7,0,0,1,.61.56c0,.2-.06.24-.2.4a1,1,0,0,0-.26.29c-.11.13-.2.19-.31.31s-.18.08-.22.15-.29.22-.38.29-.19.09-.24.22-.31.17-.31.24c0,.33,0,.55.15.71a.73.73,0,0,0,.47.26,1.62,1.62,0,0,0,.51.07,2.81,2.81,0,0,0,.9-.26.93.93,0,0,0,.25-.12,1.71,1.71,0,0,1,.35-.15,1.52,1.52,0,0,0,.42-.31,2.11,2.11,0,0,1,.36-.27s0,0,.08,0a.09.09,0,0,1,.07.09c0,.06-.07.09-.11.15s-.22.2-.38.29a1.48,1.48,0,0,1-.51.35c-.08,0-.17.14-.81.43a2.44,2.44,0,0,1-1.13.28,2.22,2.22,0,0,1-.91-.2,1.29,1.29,0,0,1-.57-1.08A2.19,2.19,0,0,1,99.55,14c.2-.22.08-.2.35-.54a1.56,1.56,0,0,1,.44-.42c.12-.13.09,0,.33-.24a1.06,1.06,0,0,1,.74-.27m-1.29,2.17.07,0a1,1,0,0,0,.27-.22,2.1,2.1,0,0,1,.3-.24,1.69,1.69,0,0,0,.33-.25,1.66,1.66,0,0,0,.36-.44c.13-.17.24-.24.24-.46s-.06-.2-.15-.2a.84.84,0,0,0-.44.18,1.12,1.12,0,0,0-.27.3,2.57,2.57,0,0,0-.64.85,1,1,0,0,0-.09.42c0,.06,0,.08,0,.08m1.29-2.42a1.33,1.33,0,0,0-.91.33l-.13.12a.45.45,0,0,0-.21.13,2,2,0,0,0-.45.44,1.44,1.44,0,0,0-.25.39.4.4,0,0,1-.09.14A2.38,2.38,0,0,0,99,15.21a1.49,1.49,0,0,0,.71,1.3l.2.07a1.91,1.91,0,0,0,.82.16,2.75,2.75,0,0,0,1.24-.3,6.07,6.07,0,0,0,.74-.4l0,0a1.51,1.51,0,0,0,.56-.38,1.15,1.15,0,0,0,.23-.18.59.59,0,0,1,.11-.08.31.31,0,0,0,.11-.09.41.41,0,0,0,.15-.29.33.33,0,0,0-.32-.34.43.43,0,0,0-.2.07l0,0A3,3,0,0,0,103,15a1.31,1.31,0,0,1-.35.27h-.05a1.42,1.42,0,0,0-.35.16.91.91,0,0,1-.17.09h0l-.12,0a2,2,0,0,1-.7.2,1,1,0,0,1-.37,0l-.09,0h0a.69.69,0,0,1-.28-.16.7.7,0,0,1-.09-.44.56.56,0,0,0,.28-.25l0,0a.63.63,0,0,0,.15-.11l.06,0a.94.94,0,0,0,.34-.27.69.69,0,0,0,.21-.14l.14-.15a1.41,1.41,0,0,0,.18-.17,1,1,0,0,1,.23-.27l.07-.07a.68.68,0,0,0,.22-.52.94.94,0,0,0-.86-.81Zm-.85,1.77a2.19,2.19,0,0,1,.43-.51s0,0,0,0l.06-.09a.67.67,0,0,1,.17-.16l0,0,.11-.07a.51.51,0,0,1-.08.13l-.09.1a.87.87,0,0,1-.25.32l-.09.09-.09.08a.55.55,0,0,1-.18.13l-.08.05Z"/><path class="cls-2" d="M103.86,17.14a.83.83,0,0,1-.53-.25l-.12-.1A1.07,1.07,0,0,1,103,16a5.93,5.93,0,0,1,.43-1.49,5.75,5.75,0,0,1,.32-.53,2.62,2.62,0,0,1,.21-.37c.1-.15.23-.34.39-.63a6.49,6.49,0,0,1,.54-.81l.15-.21a.48.48,0,0,0,.08-.16,1.69,1.69,0,0,1,.26-.44,5.19,5.19,0,0,0,.54-.72,7.68,7.68,0,0,1,.49-.61l.18-.21a4.2,4.2,0,0,0,.3-.3l.11-.13c.07-.07.3-.32.44-.5a5.19,5.19,0,0,1,.65-.57.91.91,0,0,1,.16-.1.81.81,0,0,0,.3-.23,1.6,1.6,0,0,1,1-.37c.52,0,.6.33.6.53a2.23,2.23,0,0,1-.25.9,4,4,0,0,1-.3.55l-.06.09-.14.16a.5.5,0,0,0-.18.27,5.12,5.12,0,0,1-.58.81l-.07.09a.91.91,0,0,0-.26.31.65.65,0,0,1-.08.09,1.4,1.4,0,0,0-.22.25,1.49,1.49,0,0,0-.15.17l-.11.12a.55.55,0,0,0-.16.15l-.19.23a4.16,4.16,0,0,1-.41.42l-.14.13-.14.09c-.08.05-.11.06-.15.15a2.92,2.92,0,0,1-.69.59l-.23.2-.19.19a.57.57,0,0,0-.16.14.42.42,0,0,1-.16.13.77.77,0,0,0-.17.13l-.17.15c-.14.12-.37.35-.37.35a5.66,5.66,0,0,0-.24.7,2.33,2.33,0,0,0,0,.65c0,.23.1.33.2.33a1.25,1.25,0,0,0,.44-.14c.13-.08.5-.29.65-.41a2.19,2.19,0,0,1,.66-.34.27.27,0,0,0,.07-.06c0-.07.11-.13.23-.2l.1-.06a1.45,1.45,0,0,0,.44-.31,1,1,0,0,1,.27-.22l.09-.07.15-.07a.22.22,0,0,1,.22.22.26.26,0,0,1-.12.2l-.18.14a1.28,1.28,0,0,1-.28.21,1.27,1.27,0,0,1-.52.36l-.27.2-.37.22-.18.11-.12.06-.22.13-.24.15a3,3,0,0,1-.4.23A2.05,2.05,0,0,1,103.86,17.14Zm5.53-9a1.38,1.38,0,0,0-.54.39l-.17.16a.55.55,0,0,0-.15.16.52.52,0,0,0-.15.14.68.68,0,0,1-.17.19c-.1.1-.21.24-.31.36l-.22.25a1.83,1.83,0,0,1-.17.2l-.17.22a1.36,1.36,0,0,0-.31.43,1.45,1.45,0,0,1-.27.36l-.23.28a5.54,5.54,0,0,0-.53.8l-.14.22-.12.17a1.88,1.88,0,0,1-.18.24.63.63,0,0,1-.17.27,1,1,0,0,0-.14.2,3.08,3.08,0,0,1-.3.56,1.39,1.39,0,0,1-.11.21l.17-.13.21-.17a.87.87,0,0,1,.15-.13,1.56,1.56,0,0,0,.12-.11.9.9,0,0,1,.22-.2,4,4,0,0,0,.38-.34,2.68,2.68,0,0,1,.23-.22c.2-.2.5-.48.75-.78a1.14,1.14,0,0,0,.19-.19,2.25,2.25,0,0,1,.26-.27c.08-.08.15-.17.23-.26a1.71,1.71,0,0,1,.21-.24,2,2,0,0,1,.19-.22l.09-.08a2.13,2.13,0,0,0,.29-.42l.19-.31a5.57,5.57,0,0,1,.45-.66.25.25,0,0,0,.12-.2.65.65,0,0,1,0-.13,1.61,1.61,0,0,1,.07-.25,1.15,1.15,0,0,0,.08-.32C109.48,8.11,109.45,8.11,109.39,8.11Z"/><path class="cls-3" d="M109.48,7.71c.33,0,.48.15.48.4a2.06,2.06,0,0,1-.24.84,3.8,3.8,0,0,1-.35.62c-.14.18-.29.26-.35.48a6.61,6.61,0,0,1-.62.85,1,1,0,0,0-.27.33,1.62,1.62,0,0,0-.29.33c-.13.11-.17.2-.24.26s-.16.18-.36.4-.41.4-.55.54-.24.11-.31.28a5,5,0,0,1-.73.6c-.13.13-.28.24-.37.35s-.18.2-.27.23a3.49,3.49,0,0,0-.37.3c-.14.12-.38.36-.38.36a4.15,4.15,0,0,0-.27.77,2,2,0,0,0-.06.67c0,.33.19.46.33.46a1.18,1.18,0,0,0,.49-.16c.13-.08.52-.3.68-.42a2.34,2.34,0,0,1,.58-.32.26.26,0,0,0,.17-.1c0-.1.22-.17.31-.24a1.53,1.53,0,0,0,.45-.33,2.55,2.55,0,0,1,.35-.27l.07,0a.09.09,0,0,1,.1.09c0,.06-.08.09-.13.15s-.22.2-.39.29a1.3,1.3,0,0,1-.49.35c-.09,0-.13.1-.31.21s-.42.26-.55.33a3.29,3.29,0,0,0-.34.2c-.17.1-.46.3-.62.37a2,2,0,0,1-.77.13c-.26,0-.42-.22-.58-.33a1,1,0,0,1-.2-.73,5.23,5.23,0,0,1,.42-1.44,3.87,3.87,0,0,1,.31-.51c.09-.22.27-.42.6-1s.6-.86.69-1a3.25,3.25,0,0,1,.33-.58,7.34,7.34,0,0,0,.55-.73c.2-.3.49-.61.65-.81a3.84,3.84,0,0,0,.41-.42c.07-.07.31-.33.45-.51a5.1,5.1,0,0,1,.62-.55,1.91,1.91,0,0,0,.5-.36,1.5,1.5,0,0,1,.87-.31m-5,6.7a3.12,3.12,0,0,0,.45-.35c.11-.11.26-.2.42-.35s.24-.18.29-.27.41-.31.59-.51.6-.55,1-1c.08,0,.28-.31.44-.45s.31-.38.44-.49a1.72,1.72,0,0,1,.29-.31,2.32,2.32,0,0,0,.31-.46c.11-.15.46-.77.62-.93s.13-.22.18-.38a4,4,0,0,0,.17-.61c0-.18,0-.31-.22-.31s-.51.3-.64.44-.25.22-.33.33-.13.16-.29.31-.42.51-.53.6-.25.29-.36.44a1.45,1.45,0,0,0-.33.47,5.51,5.51,0,0,1-.48.61,8.44,8.44,0,0,0-.67,1c-.11.14-.18.27-.29.4s-.22.29-.33.49a3.78,3.78,0,0,1-.29.55c-.13.29-.28.47-.42.77m5-6.95a1.73,1.73,0,0,0-1.06.39.89.89,0,0,1-.29.23l-.18.11a4.77,4.77,0,0,0-.66.59c-.13.17-.37.42-.43.49l-.12.12a2.21,2.21,0,0,1-.26.28l0,0-.17.21a7.75,7.75,0,0,0-.5.61,4.67,4.67,0,0,1-.53.71,2.23,2.23,0,0,0-.28.48.64.64,0,0,1-.06.12,1,1,0,0,1-.16.22,6.15,6.15,0,0,0-.55.83c-.16.28-.29.48-.38.62a2.68,2.68,0,0,0-.24.41c-.12.18-.2.32-.29.48a5.7,5.7,0,0,0-.45,1.57,1.19,1.19,0,0,0,.28.92l.14.1a.93.93,0,0,0,.61.29,2.12,2.12,0,0,0,.87-.15,2.87,2.87,0,0,0,.42-.25l.22-.13a1.19,1.19,0,0,1,.22-.13l.13-.07.19-.11.35-.22a.8.8,0,0,0,.23-.17,1.69,1.69,0,0,0,.61-.41,2.17,2.17,0,0,0,.26-.2l.1-.08,0,0a.39.39,0,0,0,.21-.32.34.34,0,0,0-.35-.34.43.43,0,0,0-.16,0l-.07,0-.09.07a1.53,1.53,0,0,0-.29.24,1.14,1.14,0,0,1-.36.26l-.06,0-.08.06a.62.62,0,0,0-.28.23,2.71,2.71,0,0,0-.69.37c-.15.11-.52.32-.64.39a1,1,0,0,1-.38.14s-.08-.05-.08-.21a1.86,1.86,0,0,1,0-.6,3.8,3.8,0,0,1,.24-.69l.34-.33a.88.88,0,0,0,.17-.14l.13-.11a.49.49,0,0,0,.21-.16l.09-.09.07,0a1.36,1.36,0,0,1,.17-.17l.18-.16,0,0a2.76,2.76,0,0,0,.73-.62c0-.07,0-.07.1-.11l.13-.08.17-.16a4.32,4.32,0,0,0,.43-.43l.19-.23.09-.11a.75.75,0,0,0,.18-.17l.11-.12,0-.06a1.42,1.42,0,0,1,.2-.22l.06-.06,0-.05a.64.64,0,0,1,.22-.27l.1-.12a5.67,5.67,0,0,0,.58-.82.54.54,0,0,1,.16-.26l.16-.16.06-.1A3.25,3.25,0,0,0,110,9a2.16,2.16,0,0,0,.26-.93c0-.41-.28-.65-.73-.65Zm-1.69,2.37.21-.24a2.62,2.62,0,0,1,.3-.35,1.12,1.12,0,0,0,.19-.21s0,0,.06-.06a.3.3,0,0,0,.08-.08.78.78,0,0,1,.13-.13l.17-.16a2,2,0,0,1,.43-.35v0a1,1,0,0,1-.08.28c0,.09-.06.19-.08.28a.81.81,0,0,0,0,.11c0,.09,0,.09-.06.12a4.22,4.22,0,0,0-.49.7c-.08.13-.14.23-.18.28l0,0a1.45,1.45,0,0,1-.22.33l-.06.07-.06.06a2.73,2.73,0,0,0-.22.24l-.2.23a1.71,1.71,0,0,1-.21.24,2.5,2.5,0,0,0-.27.29l-.14.15-.06,0a9.36,9.36,0,0,1-.74.77l-.24.24c-.09.09-.24.21-.36.31a1.48,1.48,0,0,0-.24.21.32.32,0,0,1-.1.1l0,0,.1-.22.12-.16a1.31,1.31,0,0,0,.2-.3l.16-.22.11-.16.15-.24a5.27,5.27,0,0,1,.5-.76l.25-.3c.2-.23.27-.32.29-.41a1.25,1.25,0,0,1,.26-.36l.2-.23.18-.22Z"/><path class="cls-2" d="M107.93,17.27a.74.74,0,0,1-.46-.12l-.08,0a1.29,1.29,0,0,1-.19-.13,1,1,0,0,1-.45-.85,2.91,2.91,0,0,1,.42-1.27,4.31,4.31,0,0,1,.46-.71,2.07,2.07,0,0,0,.36-.41,1.93,1.93,0,0,1,.44-.37l.24-.18a1.47,1.47,0,0,1,.73-.36l.1-.05a1.18,1.18,0,0,1,.69-.13.81.81,0,0,1,.79.89,4.81,4.81,0,0,1-.62,1.78l-.21.29a1.1,1.1,0,0,0-.13.17l.21,0a3.17,3.17,0,0,0,.46-.08l.22-.08.19-.06a3.24,3.24,0,0,0,.51-.37l.41-.3.16-.06c.09,0,.18.07.18.22a.28.28,0,0,1-.19.25l-.1.08a1.3,1.3,0,0,1-.31.22,1.29,1.29,0,0,1-.6.37l-.42.16a1.83,1.83,0,0,1-.31.12l-.26.06a2.26,2.26,0,0,1-.45.07.47.47,0,0,0-.38.2,2.83,2.83,0,0,1-.61.41.8.8,0,0,0-.16.08.68.68,0,0,1-.27.1A.73.73,0,0,1,107.93,17.27Zm2.23-4.16a1.26,1.26,0,0,0-.78.35l-.21.24a2.91,2.91,0,0,1-.3.31.67.67,0,0,0-.19.26l-.08.13a2.33,2.33,0,0,0-.28.38,1.19,1.19,0,0,1-.15.3l-.13.23a1.69,1.69,0,0,0-.22.74c0,.29.05.4.09.44s.14.16.2.16a.4.4,0,0,0,.18-.08.64.64,0,0,1,.24-.11,1.31,1.31,0,0,0,.32-.23l.17-.08c-.08-.08-.14-.14-.14-.23a.81.81,0,0,1,.57-.56.68.68,0,0,1,.19,0h0a1.58,1.58,0,0,0,.26-.44,2.07,2.07,0,0,0,.21-.47c0-.06,0-.11.06-.15a1.23,1.23,0,0,0,.12-.58,1.48,1.48,0,0,1,0-.21s0-.11,0-.16a.5.5,0,0,1,0-.12A.22.22,0,0,0,110.16,13.11Z"/><path class="cls-3" d="M110.19,12.76a.69.69,0,0,1,.66.77,4.54,4.54,0,0,1-.6,1.72c-.11.2-.35.42-.35.51s.07.09.17.09h.16a4,4,0,0,0,.49-.09c.11-.06.33-.09.44-.15a3.5,3.5,0,0,0,.55-.4l.38-.27a.15.15,0,0,1,.09,0s.06,0,.06.09,0,.09-.13.15a3.9,3.9,0,0,1-.4.29,1.43,1.43,0,0,1-.59.36c-.4.13-.47.2-.73.28a5.43,5.43,0,0,1-.67.13.63.63,0,0,0-.48.23,2.44,2.44,0,0,1-.56.39c-.15.05-.27.16-.38.16s-.22.16-.37.16a.57.57,0,0,1-.38-.09,3,3,0,0,1-.28-.18.92.92,0,0,1-.4-.75,2.91,2.91,0,0,1,.4-1.2,3.89,3.89,0,0,1,.46-.7,1.92,1.92,0,0,0,.36-.42,4.21,4.21,0,0,1,.66-.52,1.27,1.27,0,0,1,.68-.33s.07,0,.14-.08a1.08,1.08,0,0,1,.62-.11m-2.08,4c.15,0,.31-.18.44-.2a1.11,1.11,0,0,0,.38-.26c.17-.07.28-.11.28-.16s-.2-.15-.2-.24.33-.44.44-.44a1.1,1.1,0,0,1,.21,0c.08,0,.21-.22.35-.51a3.62,3.62,0,0,0,.27-.62,1.29,1.29,0,0,0,.13-.64c0-.13,0-.26,0-.37a.32.32,0,0,0,0-.14.33.33,0,0,0-.25-.26,1.37,1.37,0,0,0-.86.39,6.88,6.88,0,0,1-.51.54,1.22,1.22,0,0,0-.29.42,2.4,2.4,0,0,0-.3.41,3.31,3.31,0,0,1-.27.51,1.74,1.74,0,0,0-.24.8.79.79,0,0,0,.13.53c.11.13.15.2.29.2m2.08-4.27a1.25,1.25,0,0,0-.76.16l.09.25-.14-.21h0a1.52,1.52,0,0,0-.78.39l-.24.17a1.88,1.88,0,0,0-.46.41,3,3,0,0,1-.33.37,4.08,4.08,0,0,0-.51.76,3,3,0,0,0-.43,1.32,1.17,1.17,0,0,0,.53,1l.18.12.08.05a.83.83,0,0,0,.52.13.69.69,0,0,0,.38-.14l0,0a1.1,1.1,0,0,0,.29-.11l.14-.07a2.58,2.58,0,0,0,.66-.45.36.36,0,0,1,.29-.15,2.39,2.39,0,0,0,.48-.08l.24-.06a2.32,2.32,0,0,0,.35-.12l.41-.16a1.67,1.67,0,0,0,.66-.4,2,2,0,0,0,.29-.21l.09-.07a.43.43,0,0,0,.25-.36.32.32,0,0,0-.31-.34.4.4,0,0,0-.27.11l-.35.25,0,0a3.76,3.76,0,0,1-.44.31l-.06,0-.15,0-.23.08-.32.07c.05-.07.11-.15.15-.22a4.86,4.86,0,0,0,.63-1.84.93.93,0,0,0-.91-1Zm-2.08,4h0l0-.06,0,0s-.07-.08-.07-.37a1.53,1.53,0,0,1,.21-.68l.13-.22a1.53,1.53,0,0,0,.16-.35l.21-.26,0,0a1.81,1.81,0,0,0,.1-.17.66.66,0,0,1,.15-.21,2,2,0,0,0,.32-.33l.22-.24a1.17,1.17,0,0,1,.68-.31s0,0,0,0a.14.14,0,0,0,0,.07h0s0,0,0,0a.92.92,0,0,1,0,.16c0,.06,0,.14,0,.21a1.12,1.12,0,0,1-.09.51,1,1,0,0,0-.07.18,2.49,2.49,0,0,1-.2.44c-.11.2-.17.31-.21.37l-.14,0a.92.92,0,0,0-.69.69.35.35,0,0,0,0,.18l0,0a1,1,0,0,1-.27.19.84.84,0,0,0-.27.13l-.12.07Z"/><path class="cls-2" d="M108.21,22a.67.67,0,0,1-.6-.66,2.07,2.07,0,0,1,.19-.8c.07-.14.18-.31.28-.48s.21-.33.25-.41a3.45,3.45,0,0,1,.43-.59l.2-.26.19-.27a6.76,6.76,0,0,1,.54-.73,1.17,1.17,0,0,0,.28-.38c0-.06.07-.12.2-.23s.26-.24.46-.46.8-.93,1-1.19.27-.58.41-.85.22-.42.3-.59l.36-.65c.07-.13.15-.25.23-.4l.13-.27a1.19,1.19,0,0,1,.25-.39,1.27,1.27,0,0,0,.19-.3,1.09,1.09,0,0,1,.14-.21,4.08,4.08,0,0,1,.54-.61c.3-.27.34-.29.54-.29s.27.2.27.31a.24.24,0,0,1-.25.23.66.66,0,0,0-.29.14l-.16.2a2.13,2.13,0,0,0-.18.21,3.48,3.48,0,0,0-.37.69c-.2.43-.37.83-.52,1.2a7.4,7.4,0,0,1,.58-.58,3.3,3.3,0,0,1,.36-.28l.44-.32a1.84,1.84,0,0,1,1.1-.47.83.83,0,0,1,.86.75,1.54,1.54,0,0,1-.09.59l-.05.09a1.26,1.26,0,0,1-.25.41.45.45,0,0,0-.12.24c0,.12-.16.3-.53.68l-.18.19-.4.29a6.32,6.32,0,0,0,.87-.11,3.54,3.54,0,0,0,1-.35c.15-.08.3-.18.41-.25a.77.77,0,0,1,.16-.07.21.21,0,0,1,.21.22.27.27,0,0,1-.13.2,2.59,2.59,0,0,1-.49.3,4,4,0,0,1-.9.33,11.72,11.72,0,0,1-1.19.21l-.29,0c-.26,0-.72,0-.72,0a1.87,1.87,0,0,1-.84.4c-.28,0-.43-.14-.43-.4s.29-.45.67-.45l.42,0a3.73,3.73,0,0,0,.86-.71,1.85,1.85,0,0,0,.25-.37,2.36,2.36,0,0,1,.15-.25l.14-.15a.57.57,0,0,0,.16-.22,1.92,1.92,0,0,0,.3-.79c0-.07,0-.25-.11-.25a1.88,1.88,0,0,0-.67.35l-.28.2a2.08,2.08,0,0,1-.33.22,1,1,0,0,0-.33.29,2.19,2.19,0,0,1-.51.53c-.07.07-.14.13-.18.18l-.38.4-.38.91a7.85,7.85,0,0,0-.34.85c0,.16-.1.29-.13.37l-.12.27a1.38,1.38,0,0,0-.15.43l-.37.82a3.69,3.69,0,0,0-.29.5l-.14.27a4.92,4.92,0,0,1-.79,1.24l0,.06a2.85,2.85,0,0,1-.57.62A2.08,2.08,0,0,1,108.21,22Zm2.65-4.87a3.5,3.5,0,0,1-.27.28,3.87,3.87,0,0,0-.4.47,1,1,0,0,1-.27.41l-.14.16-.09.1a3.09,3.09,0,0,0-.37.5,1.4,1.4,0,0,1-.21.26.53.53,0,0,0-.17.24,2.34,2.34,0,0,1-.27.48l-.18.27-.11.24a2.46,2.46,0,0,0-.27.64c0,.16.11.33.22.33a.62.62,0,0,0,.33-.23,2.53,2.53,0,0,0,.13-.22c0-.07.1-.16.16-.23a.52.52,0,0,0,.21-.36c.06-.14.2-.4.35-.69s.39-.72.46-.91l.14-.27C110.3,18.25,110.58,17.73,110.86,17.13Z"/><path class="cls-3" d="M114.76,11.1c.09,0,.14.13.14.19a.11.11,0,0,1-.12.11h-.06a.71.71,0,0,0-.31.16c-.13.18-.22.24-.36.44a3.71,3.71,0,0,0-.39.71c-.31.69-.56,1.31-.78,1.82.18-.18.87-.93,1-1s.45-.33.8-.61a1.73,1.73,0,0,1,1-.43.7.7,0,0,1,.73.62,1.58,1.58,0,0,1-.07.53,2,2,0,0,1-.27.47.54.54,0,0,0-.17.31c0,.15-.47.58-.67.8s-.73.53-.73.53a10.13,10.13,0,0,0,1.33-.14,3.71,3.71,0,0,0,1-.37,3.89,3.89,0,0,0,.42-.25.1.1,0,0,1,.08,0,.09.09,0,0,1,.09.09c0,.06-.09.09-.15.15a2.53,2.53,0,0,1-.4.23,4.21,4.21,0,0,1-.88.33c-1,.2-1.22.2-1.48.26s-.69,0-.69,0a2.51,2.51,0,0,1-.84.4c-.24,0-.31-.11-.31-.28s.22-.32.55-.32h.53a5.39,5.39,0,0,0,.84-.73,5.38,5.38,0,0,0,.42-.64,1.64,1.64,0,0,0,.31-.39,2.06,2.06,0,0,0,.31-.84c0-.25-.09-.38-.24-.38a2.13,2.13,0,0,0-.75.38c-.18.11-.44.33-.58.41a1,1,0,0,0-.38.34,6.21,6.21,0,0,1-.68.68,5.2,5.2,0,0,1-.38.4l-.4,1c-.15.27-.39,1-.48,1.22a3.83,3.83,0,0,0-.27.73l-.37.79a6.86,6.86,0,0,0-.42.76,5.08,5.08,0,0,1-.76,1.21,3,3,0,0,1-.61.67,2,2,0,0,1-1.16.53.54.54,0,0,1-.48-.53,2,2,0,0,1,.18-.75c.15-.27.46-.73.53-.89s.46-.6.62-.82.59-.88.72-1a1.44,1.44,0,0,0,.31-.42c0-.09.21-.2.63-.65s.81-.94,1-1.19c0,0,0-.06,0-.09.18-.44.51-1,.69-1.39s.39-.67.59-1,.14-.4.36-.64.2-.36.33-.51a4.61,4.61,0,0,1,.53-.6c.29-.26.31-.26.46-.26m-3.23,5c-.24.26-.46.51-.61.69s-.65.68-.83,1a1.69,1.69,0,0,1-.41.55,3.87,3.87,0,0,0-.47.62c-.16.27-.26.22-.38.51a4.28,4.28,0,0,1-.44.73,3.82,3.82,0,0,0-.4.95c0,.22.14.45.34.45a.67.67,0,0,0,.44-.31c.07-.07.17-.27.28-.42a.55.55,0,0,0,.23-.4c.11-.27.68-1.24.81-1.59s.58-1.05,1-1.89c.11-.2.31-.55.48-.88m3.23-5.29c-.24,0-.32.05-.62.32a3.9,3.9,0,0,0-.52.58l-.05.06a2,2,0,0,0-.14.23,1,1,0,0,1-.18.27,1.11,1.11,0,0,0-.26.42c0,.07-.07.15-.13.26s-.15.27-.23.4l-.36.65c-.08.18-.19.38-.3.59s-.29.56-.4.81a.09.09,0,0,0,0,.05c-.28.29-.76.82-1,1.17s-.34.34-.44.44a.83.83,0,0,0-.24.28,1,1,0,0,1-.22.31,4.79,4.79,0,0,0-.58.77l-.19.27-.2.25a4.27,4.27,0,0,0-.45.62c0,.07-.14.24-.23.4a4.38,4.38,0,0,0-.29.48,2.21,2.21,0,0,0-.21.86.79.79,0,0,0,.73.78,2.27,2.27,0,0,0,1.34-.6,2.89,2.89,0,0,0,.57-.62l.06-.09a5,5,0,0,0,.79-1.26l.13-.24a3.52,3.52,0,0,1,.27-.47l.38-.82a.25.25,0,0,0,0-.07,1.41,1.41,0,0,1,.15-.4l.12-.29.13-.36c.1-.26.22-.62.31-.8h0a.5.5,0,0,0,.56.53,2.25,2.25,0,0,0,.92-.4l.63,0a1.77,1.77,0,0,1,.32-.05c.22,0,.56-.08,1.19-.21a5,5,0,0,0,1-.36,2.74,2.74,0,0,0,.42-.25l.06-.05a.4.4,0,0,0,.19-.3.34.34,0,0,0-.34-.34.34.34,0,0,0-.25.11l-.36.21a3.37,3.37,0,0,1-.94.34,2.43,2.43,0,0,1-.41.07h0l.21-.21c.39-.4.56-.6.56-.79a.54.54,0,0,1,.11-.15,1.83,1.83,0,0,0,.26-.42l0-.1a1.57,1.57,0,0,0,.1-.64.94.94,0,0,0-1-.87,1.93,1.93,0,0,0-1.18.49l-.43.32a3.41,3.41,0,0,0-.39.3l-.11.09c.09-.18.17-.38.26-.58a3.52,3.52,0,0,1,.36-.67,1.93,1.93,0,0,1,.17-.2l.17-.2.13-.08h.06a.36.36,0,0,0,.37-.36.44.44,0,0,0-.39-.44Zm-1.87,4.3a4.89,4.89,0,0,0,.37-.39l.16-.15A2.49,2.49,0,0,0,114,14a.92.92,0,0,1,.28-.23,2.68,2.68,0,0,0,.32-.22l.26-.18a2.56,2.56,0,0,1,.61-.35.52.52,0,0,0,0,.13,1.89,1.89,0,0,1-.27.7.52.52,0,0,1-.16.22l-.13.14a3,3,0,0,0-.18.29,1.46,1.46,0,0,1-.24.35,6.13,6.13,0,0,1-.73.66h-.45a.89.89,0,0,0-.65.24l.26-.62Zm-4.56,6.23a.24.24,0,0,1-.09-.2,3.06,3.06,0,0,1,.25-.59l.12-.25.16-.24a2.15,2.15,0,0,0,.29-.51.57.57,0,0,1,.13-.19,1.25,1.25,0,0,0,.23-.28,3.46,3.46,0,0,1,.36-.49l.09-.1.14-.15a1.43,1.43,0,0,0,.3-.45l.06-.09-.37.71-.14.25a9.67,9.67,0,0,1-.46.93,6.48,6.48,0,0,0-.35.68c-.06.21-.07.23-.13.27l-.07.07c-.06.08-.11.17-.16.25l-.1.15a.22.22,0,0,0,0,.08.54.54,0,0,1-.21.15Z"/><path class="cls-2" d="M118.59,16.61a2,2,0,0,1-.78-.14l-.17-.06a1.4,1.4,0,0,1-.65-1.2,2.23,2.23,0,0,1,.34-1.27.54.54,0,0,0,.12-.18,1.23,1.23,0,0,1,.22-.36,2.19,2.19,0,0,1,.47-.45.25.25,0,0,1,.14-.08.57.57,0,0,0,.17-.14,1.23,1.23,0,0,1,.84-.31.82.82,0,0,1,.72.69.54.54,0,0,1-.19.44,1.17,1.17,0,0,0-.28.32l-.18.18a1,1,0,0,0-.14.15.57.57,0,0,1-.2.12.72.72,0,0,1-.33.27l-.09.06a.34.34,0,0,1-.12.09s-.07,0-.08.08a.52.52,0,0,1-.24.2c-.06.3-.06.49,0,.62a.67.67,0,0,0,.38.21l.1,0a1.31,1.31,0,0,0,.41,0,2.16,2.16,0,0,0,.75-.2l.12-.05a1,1,0,0,0,.21-.1.93.93,0,0,1,.3-.14,1.41,1.41,0,0,0,.44-.3,2.59,2.59,0,0,1,.36-.27.26.26,0,0,1,.18-.09.2.2,0,0,1,.19.22.24.24,0,0,1-.09.18l-.09.08a.63.63,0,0,0-.15.11,1,1,0,0,1-.22.18,1.57,1.57,0,0,1-.55.36,5.08,5.08,0,0,1-.78.43A2.56,2.56,0,0,1,118.59,16.61Zm.82-3.59a.51.51,0,0,0-.3.12.65.65,0,0,0-.24.22l-.07.08a2.64,2.64,0,0,0-.63.84,1.16,1.16,0,0,0-.07.24.55.55,0,0,0,.14-.12l.11-.1a1.05,1.05,0,0,1,.22-.17,1,1,0,0,0,.21-.15l.18-.17a1,1,0,0,0,.25-.32l.09-.11a.39.39,0,0,0,.13-.29Z"/><path class="cls-3" d="M119.29,12.55a.7.7,0,0,1,.6.56c0,.2-.06.24-.2.4a1,1,0,0,0-.26.29c-.11.13-.2.19-.31.31s-.18.08-.22.15-.29.22-.38.29-.18.09-.24.22-.31.17-.31.24c0,.33,0,.55.15.71a.75.75,0,0,0,.47.26,1.62,1.62,0,0,0,.51.07,2.81,2.81,0,0,0,.9-.26.93.93,0,0,0,.25-.12,1.71,1.71,0,0,1,.35-.15,1.52,1.52,0,0,0,.42-.31,2.11,2.11,0,0,1,.36-.27s0,0,.08,0a.09.09,0,0,1,.07.09c0,.06-.07.09-.11.15s-.22.2-.38.29a1.48,1.48,0,0,1-.51.35c-.08,0-.17.14-.81.43a2.44,2.44,0,0,1-1.13.28,2.22,2.22,0,0,1-.91-.2,1.29,1.29,0,0,1-.57-1.08,2.19,2.19,0,0,1,.31-1.19c.2-.22.08-.2.35-.54a1.71,1.71,0,0,1,.44-.42c.13-.13.09,0,.33-.24a1.07,1.07,0,0,1,.75-.27M118,14.72a.11.11,0,0,0,.07,0,1.08,1.08,0,0,0,.28-.22,1.61,1.61,0,0,1,.29-.24A1.69,1.69,0,0,0,119,14a1.48,1.48,0,0,0,.36-.44c.13-.17.24-.24.24-.46s-.06-.2-.15-.2a.78.78,0,0,0-.43.18,1,1,0,0,0-.28.3,2.87,2.87,0,0,0-.64.85,1,1,0,0,0-.09.42c0,.06,0,.08,0,.08m1.3-2.42a1.34,1.34,0,0,0-.92.33l-.13.12a.45.45,0,0,0-.21.13,2,2,0,0,0-.45.44,1.44,1.44,0,0,0-.25.39.29.29,0,0,1-.09.14,2.38,2.38,0,0,0-.38,1.36,1.49,1.49,0,0,0,.71,1.3l.2.07a2,2,0,0,0,.82.16,2.72,2.72,0,0,0,1.24-.3,6.07,6.07,0,0,0,.74-.4l.05,0a1.62,1.62,0,0,0,.57-.38,1.42,1.42,0,0,0,.22-.18.59.59,0,0,1,.11-.08.31.31,0,0,0,.11-.09.41.41,0,0,0,.15-.29.33.33,0,0,0-.32-.34.43.43,0,0,0-.2.07l-.05,0a4,4,0,0,0-.37.28,1.31,1.31,0,0,1-.35.27h0a1.2,1.2,0,0,0-.34.16,1.51,1.51,0,0,1-.18.09h0l-.12,0a1.93,1.93,0,0,1-.7.2,1,1,0,0,1-.37,0l-.09,0h0a.69.69,0,0,1-.28-.16.7.7,0,0,1-.09-.44.56.56,0,0,0,.28-.25l0,0a.92.92,0,0,0,.14-.11l.07,0a1,1,0,0,0,.33-.27.69.69,0,0,0,.21-.14l.14-.15a1.41,1.41,0,0,0,.18-.17,1,1,0,0,1,.23-.27l.07-.07a.68.68,0,0,0,.22-.52.93.93,0,0,0-.85-.81Zm-.86,1.77a2.19,2.19,0,0,1,.43-.51l0,0,.07-.09a.6.6,0,0,1,.16-.16l.05,0,.11-.07a.51.51,0,0,1-.08.13l-.09.1a.87.87,0,0,1-.25.32l-.09.09-.09.08a.64.64,0,0,1-.17.13l-.09.05Z"/><path class="cls-2" d="M122.83,17.16a1,1,0,0,1-.51-.17l-.1-.06a.78.78,0,0,1-.34-.75.79.79,0,0,1,.27-.65.24.24,0,0,1,.06-.08.61.61,0,0,1,.05-.12,1.21,1.21,0,0,1,.17-.24.83.83,0,0,1,.22-.2l.24-.21.26-.23.14-.11a.72.72,0,0,0,.18-.16l-.32-.24,0,0a2.3,2.3,0,0,1-.24.23,2.71,2.71,0,0,1-.25.18c-.06,0-.07,0-.08.07a.86.86,0,0,1-.3.24.4.4,0,0,0-.12.11,2.18,2.18,0,0,1-.21.17l-.26.22a.51.51,0,0,1-.3.15.24.24,0,0,1-.18-.18.35.35,0,0,1,.2-.3l.26-.21.37-.3a3,3,0,0,0,.37-.31l.1-.09a1.74,1.74,0,0,1,.22-.19l.09-.1a.59.59,0,0,1-.17-.32.68.68,0,0,0,0-.17,1.54,1.54,0,0,1-.09-.53,1.16,1.16,0,0,1,.34-.77,2.19,2.19,0,0,1,.8-.57l.09-.06a.42.42,0,0,1,.28-.09.52.52,0,0,1,.46.58,1.11,1.11,0,0,1-.09.48l0,.11a1.13,1.13,0,0,1-.07.2l-.12.2a1.67,1.67,0,0,1-.16.24l-.33.41,0,.06a1.12,1.12,0,0,0,.15.24l.09.1,0,.1a1,1,0,0,1,.14.41,1.14,1.14,0,0,1-.29.55l-.15.2c-.12.15-.28.37-.38.51l-.08.12a.64.64,0,0,0-.14.32,1.15,1.15,0,0,0-.11.49c0,.12.11.28.2.28s.24,0,.29,0a1.22,1.22,0,0,0,.31-.17,3.21,3.21,0,0,0,.73-.38,1.47,1.47,0,0,1,.45-.26,1.12,1.12,0,0,1,.4-.34l.34-.37a1.13,1.13,0,0,1,.27-.22l.09-.07.15-.07a.2.2,0,0,1,.22.22.26.26,0,0,1-.12.2,2.43,2.43,0,0,0-.24.18.83.83,0,0,1-.21.16l-.08.09a2,2,0,0,1-.4.34,3.92,3.92,0,0,1-.32.25,3.15,3.15,0,0,1-.27.19,1.77,1.77,0,0,0-.29.19,1.81,1.81,0,0,1-.4.22,1.58,1.58,0,0,0-.23.11,1,1,0,0,1-.56.22Zm1-5.53c-.08,0-.12,0-.22.25a.31.31,0,0,0-.06.2,1,1,0,0,1,0,.16l0,.14s0,.24,0,.27a1,1,0,0,0,0,.16l.07-.08a2.31,2.31,0,0,1,.17-.37,1.56,1.56,0,0,0,.11-.24l0-.11s0-.1,0-.12A.65.65,0,0,0,123.87,11.63Z"/><path class="cls-3" d="M124,11.21c.15,0,.33.15.33.46a1.24,1.24,0,0,1-.11.53.63.63,0,0,1-.07.22,4.64,4.64,0,0,1-.26.4l-.38.47.06.13a.9.9,0,0,0,.23.35,1,1,0,0,1,.19.45c0,.19-.3.48-.42.68s-.41.55-.46.62a.81.81,0,0,0-.16.36.28.28,0,0,0,0,.08,1.37,1.37,0,0,0-.07.45c0,.17.14.41.32.41s.28,0,.37-.08a.92.92,0,0,0,.31-.16,3.44,3.44,0,0,0,.73-.38A1.45,1.45,0,0,1,125,16a1.86,1.86,0,0,1,.42-.35,3,3,0,0,0,.38-.4,2.55,2.55,0,0,1,.35-.27l.07,0c.08,0,.1,0,.1.09s-.08.09-.13.15-.24.2-.39.29a2,2,0,0,1-.47.42c-.07.05-.15.13-.33.25s-.33.2-.56.39a6.47,6.47,0,0,1-.62.33.93.93,0,0,1-.5.2h-.45a1.51,1.51,0,0,1-.57-.21.7.7,0,0,1-.25-.64.69.69,0,0,1,.21-.55c.1-.13.11-.07.15-.24a1.42,1.42,0,0,1,.15-.22c.12-.14.22-.18.45-.4s.31-.25.4-.35.22-.16.22-.23-.16-.2-.36-.35l-.13-.09a3.34,3.34,0,0,1-.31.29c-.24.2-.31.18-.37.29a.58.58,0,0,1-.23.19c-.13.07-.18.18-.35.29l-.27.22c-.06.05-.15.13-.22.13a.06.06,0,0,1-.06-.06.27.27,0,0,1,.15-.2c.24-.16.27-.24.64-.51l.47-.4c.13-.15.28-.22.31-.28l.09-.11a.66.66,0,0,1-.21-.32,4.21,4.21,0,0,1-.13-.7,1.1,1.1,0,0,1,.34-.73,2.16,2.16,0,0,1,.7-.49c.16-.07.18-.15.34-.15m-.54,1.86.12-.11a.74.74,0,0,0,.17-.18c.07-.2.24-.47.29-.62s0-.05,0-.07,0-.15,0-.2-.06-.39-.21-.39-.23.11-.34.32-.06.23-.09.4a.24.24,0,0,0,0,.16c0,.09,0,.2,0,.27a3.75,3.75,0,0,0,0,.42M124,11a.52.52,0,0,0-.34.11.26.26,0,0,1-.09,0,2.39,2.39,0,0,0-.81.59,1.29,1.29,0,0,0-.39.87,1.77,1.77,0,0,0,.09.57.46.46,0,0,1,0,.13.52.52,0,0,0,.13.32,2,2,0,0,0-.26.22l-.07.07c-.07.06-.12.11-.37.3a4.13,4.13,0,0,0-.37.31c-.08.06-.14.12-.25.19a.51.51,0,0,0-.26.41.32.32,0,0,0,.31.31.56.56,0,0,0,.39-.21L122,15a1.18,1.18,0,0,0,.21-.18l.1-.09a.76.76,0,0,0,.27-.2.27.27,0,0,0,.07-.08l0,0a1.82,1.82,0,0,0,.26-.2l.18-.15.14.11,0,0-.16.13-.28.24-.23.2a1.65,1.65,0,0,0-.24.22,1.35,1.35,0,0,0-.18.26.14.14,0,0,0,0,.07l-.09.11a1,1,0,0,0-.28.73.91.91,0,0,0,.39.86l.11.06a1.16,1.16,0,0,0,.57.18h.45a1.05,1.05,0,0,0,.63-.25l.21-.1a1.66,1.66,0,0,0,.43-.23l.27-.19a2.43,2.43,0,0,0,.31-.21,2,2,0,0,0,.24-.19l.07-.05a1.91,1.91,0,0,0,.4-.34l.08-.09.21-.15a.58.58,0,0,1,.13-.11.15.15,0,0,0,.06,0,.39.39,0,0,0,.21-.32.33.33,0,0,0-.35-.34.55.55,0,0,0-.17,0s-.05,0-.05,0l-.09.06a1.73,1.73,0,0,0-.3.25,3.89,3.89,0,0,1-.33.35,2.16,2.16,0,0,0-.42.34,2.19,2.19,0,0,0-.41.26,3.17,3.17,0,0,1-.65.34l-.09,0a.73.73,0,0,1-.23.13l-.08,0a.53.53,0,0,1-.21,0,.3.3,0,0,1-.07-.16,1.47,1.47,0,0,1,0-.36.19.19,0,0,0,.05-.1c0-.18.07-.22.12-.27l.08-.13c.1-.13.25-.35.37-.49a1.16,1.16,0,0,1,.16-.21,1.23,1.23,0,0,0,.32-.63,1,1,0,0,0-.16-.47l0-.09a.1.1,0,0,0,0-.05l-.07-.08a.94.94,0,0,1-.12-.2l.29-.35a1.92,1.92,0,0,0,.17-.26l.1-.16s0,0,0-.05a1.63,1.63,0,0,0,.08-.22.3.3,0,0,1,0-.09,1.36,1.36,0,0,0,.09-.53A.64.64,0,0,0,124,11Zm-.31,1.35v0a.65.65,0,0,0,0-.18.24.24,0,0,1,.05-.15.41.41,0,0,1,.06-.11s0,.07,0,.09h0s0,0,0,.06a.64.64,0,0,1,0,.07v0a2,2,0,0,1-.1.22Z"/></svg>